<?xml version="1.0" encoding="utf-8"?>
<!-- Generator: Adobe Illustrator 23.0.5, SVG Export Plug-In . SVG Version: 6.00 Build 0)  -->
<svg version="1.1" id="Layer_1" xmlns="http://www.w3.org/2000/svg" xmlns:xlink="http://www.w3.org/1999/xlink" x="0px" y="0px"
	width="122" height="75" viewBox="0 0 67 41.1" style="enable-background:new 0 0 67 41.1;" xml:space="preserve">
<style type="text/css">
	.st0{fill:#0571BA;}
	.st1{fill:#FCFDFD;}
</style>
<path class="st0" d="M33.6,39.8c-10.6,0-21.2,0-31.8,0c-0.4,0-0.5,0-0.5-0.5c0-12.5,0-25,0-37.4c0-0.4,0.1-0.5,0.5-0.5
	c21.2,0,42.4,0,63.6,0c0.5,0,0.5,0.1,0.5,0.5c0,12.5,0,24.9,0,37.4c0,0.4-0.1,0.5-0.5,0.5C54.7,39.7,44.2,39.8,33.6,39.8z
	 M18.2,31.1c0,0,0.1,0.1,0.1,0.1c1.4,0,2.8,0.1,4.1,0c0.1,0,0.2-0.1,0.3-0.2c0.5-1.3,0.3-3.3-1.6-3.9c-2.3-0.7-4.9,0.9-5.4,3.4
	c-0.2,1.3-0.1,2.6,1.1,3.4c1.2,0.8,3.4,0.8,4.6-0.1c0.1-0.1,0.3-0.2,0.1-0.4c-0.4-0.7-0.6-0.8-1.4-0.5c-1,0.4-2.1,0.2-2.6-0.5
	c-0.6-1-0.4-1.9,0.2-2.8c0.5-0.9,1.4-1.3,2.3-1.1c0.6,0.1,0.9,0.4,1,1c0.1,0.5,0,0.8-0.6,0.7c-0.3,0-0.7,0-1,0
	C18.4,30,18.4,30,18.2,31.1z M57.7,23.8c0.3-0.1,0.1-0.4,0.1-0.5c0-3.9,0-7.8,0-11.7c0-0.1,0-0.2,0-0.3c-0.1-0.4-0.2-0.1-0.3,0
	c-0.1,0.1-0.2,0.1-0.2,0.2c-3.5,3.3-7,6.6-10.5,9.9c-0.2,0.2-0.4,0.5-0.8,0.3c-0.4-0.2-0.3-0.5-0.3-0.8c0-3,0-5.9,0-8.9
	c0-0.4,0-0.7,0-1.2c-0.9,0.8-1.7,1.5-2.5,2.3c-3.3,3-6.6,6-9.9,9c-0.2,0.2-0.4,0.3-0.7,0.2c-0.3-0.1-0.3-0.4-0.3-0.6
	c0-0.1,0-0.3,0-0.4c0-3.5,0-7,0-10.4c0-0.3,0.1-0.6-0.4-0.6c-2.4,0-4.8,0-7.2,0c-0.4,0-0.4,0.1-0.2,0.4c0.3,0.8,0.9,1.4,1.8,1.5
	c1.1,0.3,2.2,0.1,3.3,0.1c0.6,0,0.7,0.2,0.7,0.7c0,2.9,0,5.9,0,8.8c0,2.1,2,3.3,3.9,2.4c0.5-0.2,1-0.6,1.4-1
	c1.4-1.3,2.8-2.7,4.2-4.1c1.2-1.2,2.4-2.3,3.7-3.6c0,0.4,0,0.6,0,0.8c0,1.7,0,3.4,0,5c0,0.5,0.1,1,0.4,1.4c0.9,1.5,2.8,1.7,4.2,0.5
	c2.4-2.3,4.9-4.7,7.3-7c0.1-0.1,0.2-0.3,0.5-0.3c0,1.8,0,3.7,0,5.5C55.8,22.5,56.5,23.5,57.7,23.8z M46.7,19.9
	c0.3-0.2,0.4-0.4,0.6-0.6c3.4-3.2,6.8-6.4,10.3-9.6c0.3-0.3,0.5-0.7,1-0.5c0.5,0.2,0.3,0.7,0.3,1.1c0,4.3,0,8.6,0,13
	c0,0.6,0.2,0.6,0.6,0.4c1-0.5,1.5-1.2,1.5-2.3c0-3.9,0-7.7,0-11.6c0-1.2-0.5-2.1-1.6-2.6c-1.1-0.5-2.1-0.2-3,0.7c-1,1-2.1,2-3.1,3
	c-1.5,1.4-3,2.8-4.5,4.3c0-1.8,0-3.5,0-5.3c0-1.2-0.4-2.2-1.6-2.7c-1.1-0.5-2.3-0.2-3.3,0.7c-2.1,2-4.1,3.9-6.2,5.9
	c-0.7,0.6-1.4,1.3-2.1,2c0-0.9,0-1.7,0-2.6c0-0.4-0.1-0.8,0.1-1c0.1-0.2,0.6,0,0.9-0.1c0.1,0,0.2,0,0.2-0.1c1.2-0.2,1.8-1.2,2.7-1.9
	C39.2,9.9,39,10,38.8,10c-1.6,0-3.2,0-4.8,0c-0.5,0-0.7,0.1-0.7,0.6c0,3.1,0,6.1,0,9.2c0,0.2,0,0.4,0,0.7c1.4-1.3,2.7-2.5,4.1-3.7
	c2.7-2.5,5.5-5,8.2-7.5C45.8,9.1,46,8.9,46.3,9c0.4,0.2,0.3,0.5,0.3,0.8c0,0.6,0,1.2,0,1.8C46.7,14.3,46.7,17,46.7,19.9z M21.7,23.8
	c1.4-0.3,2.1-1.3,2.1-2.7c0-3.8,0-7.6,0-11.4c0-1.3-0.6-2.3-1.6-2.7c-1.1-0.4-2.1-0.1-3,0.7c-2.2,2.1-4.4,4.2-6.5,6.3
	c-1.8,1.8-3.7,3.5-5.5,5.3c-1,1-1.2,2.4-0.4,3.3c0.1-0.1,0.2-0.1,0.2-0.2c4.5-4.2,9-8.5,13.5-12.7c0.2-0.2,0.5-0.5,0.9-0.4
	c0.4,0.2,0.3,0.6,0.3,0.9c0,2.4,0,4.9,0,7.3C21.7,19.6,21.7,21.7,21.7,23.8z M20.7,11c-0.2,0.1-0.2,0.2-0.3,0.3
	c-2.3,2.2-4.6,4.3-6.9,6.5c-1.9,1.8-3.7,3.5-5.6,5.3c-0.4,0.3-0.3,0.5,0.1,0.6C9,24.1,10,23.8,10.8,23c2.3-2.2,4.6-4.4,6.9-6.6
	c0.3-0.3,0.5-0.5,0.9-0.8c0,1.9,0,3.6,0,5.4c0,1.3,0.6,2.2,1.6,2.7c0.4,0.2,0.5,0.1,0.5-0.3C20.7,19.3,20.7,15.2,20.7,11z
	 M13.4,29.5c0.2-0.1,0.3-0.1,0.4-0.1c1.3-0.3,2-1.1,1.9-2.4c0-1.1-0.8-1.8-2.1-2.1c-1-0.2-1.9-0.1-2.9-0.1c-1.3,0-2.1,0.7-2.5,2
	c-0.3,1.2-0.6,2.4-1,3.6c-0.4,1.3-0.7,2.6-1.1,4c1.8,0,3.6,0,5.3,0c0.6,0,1.1-0.1,1.6-0.4c1.1-0.4,1.8-1.2,1.8-2.4
	C15.1,30.5,14.5,29.9,13.4,29.5z M48.7,28.4c-0.8-1.7-1.7-1.9-4-0.8c-0.2-0.2,0.2-0.4,0-0.6c-0.5-0.4-1.8,0.1-1.9,0.7
	c-0.5,1.7-0.9,3.5-1.4,5.2c-0.4,1.4-0.4,1.4,1.1,1.4c0.3,0,0.5-0.1,0.6-0.4c0.3-1.2,0.6-2.3,0.9-3.5c0.1-0.5,0.3-1,0.7-1.4
	c0.5-0.5,1.2-0.6,1.7-0.3c0.5,0.4,0.6,0.9,0.4,1.4c-0.3,0.9-0.5,1.9-0.7,2.8c-0.4,1.4-0.4,1.3,1.1,1.3c0.3,0,0.5-0.1,0.6-0.4
	c0.3-1.3,0.7-2.5,1-3.7c0.1-0.4,0.3-0.7,0.5-1.1c0.5-0.5,1.2-0.7,1.8-0.4c0.5,0.2,0.6,0.8,0.4,1.6c-0.2,0.9-0.5,1.8-0.7,2.7
	c-0.4,1.5-0.4,1.5,1.2,1.4c0.2,0,0.3-0.1,0.4-0.3c0.3-1.6,0.9-3.1,1.2-4.7c0.3-1.7-0.8-2.7-2.5-2.4C50,27.1,49.3,27.7,48.7,28.4z
	 M32.5,8.9c2.5,0,5,0,7.5,0c0.7,0,0.9-0.2,1-0.9c0.1-0.8-0.4-1.2-1.3-1.3c-4.3,0-8.5,0-12.8,0c-1.1,0-1.9,0.6-2.3,1.5
	C24.4,8.8,24.4,9,25,9C27.5,8.9,30,8.9,32.5,8.9z M38.5,27C38.5,27,38.5,27,38.5,27c-0.2,0-0.4,0-0.6,0c-0.5,0-1,0.1-1.5,0.3
	c-0.6,0.3-0.4,0.8-0.3,1.2c0.1,0.5,0.5,0.2,0.7,0.1c0.6-0.1,1.2-0.2,1.8-0.1c0.8,0.1,1.1,0.5,1,1.2c-0.1,0.7-0.3,1.4-0.5,2.1
	c-0.3,0.8-1.2,1.3-2,1.3c-0.5,0-0.9-0.2-1.1-0.7c-0.1-0.5,0.2-0.8,0.5-1c0.4-0.3,0.9-0.6,1.4-0.6c0.6,0,0.7-0.5,0.9-0.9
	c0.1-0.2,0-0.3-0.2-0.3c-1.5,0-2.9,0.3-4,1.5c-0.8,0.9-0.6,2.2,0.5,2.8c0.9,0.5,1.8,0.3,2.7,0.1c0.2-0.1,0.7-0.7,0.7,0.2
	c0,0,0.2,0.1,0.3,0.1c0.3,0,0.6,0,0.9,0c0.3,0,0.5-0.1,0.6-0.4c0.3-1.3,0.7-2.5,1-3.8c0.5-1.9-0.4-3-2.4-3.1
	C38.9,27,38.7,27,38.5,27z M57.7,34.4c0.5,0,1,0,1.4,0c0.3,0,0.4-0.1,0.4-0.3c0.4-1.5,0.8-2.9,1.1-4.4c0.3-1.2-0.4-2.1-1.5-2.4
	c-1.1-0.3-2.1-0.2-3.2,0c-0.2,0-0.3,0.1-0.4,0.2c-0.4,0.4-0.3,0.8-0.1,1.2c0.2,0.4,0.4,0.1,0.6,0c0.6-0.1,1.2-0.2,1.8-0.1
	c0.8,0.1,1.2,0.7,1,1.4c-0.2,0.5-0.3,1.1-0.4,1.7c-0.3,1-1.2,1.6-2.1,1.5c-0.5,0-0.9-0.2-1-0.7c-0.2-0.5,0.1-0.8,0.5-1.1
	c0.4-0.3,0.9-0.6,1.4-0.6c0.5,0,0.7-0.4,0.8-0.8c0.1-0.2,0.1-0.3-0.2-0.4c-1.4,0-2.7,0.3-3.7,1.3c-1.2,1.1-0.8,2.7,0.8,3.2
	c0.5,0.2,0.9,0.2,1.4,0.1c0.5-0.1,1-0.3,1.6-0.6C57.8,34,57.7,34.1,57.7,34.4z M30.7,34.4c0.7,0,1.4-0.2,2-0.6
	c1.3-1,1.2-2.6-0.2-3.4c-0.4-0.3-0.9-0.4-1.4-0.7c-0.3-0.2-0.7-0.4-0.6-0.9c0.1-0.5,0.5-0.6,1-0.6c0.6,0,1.2,0.2,1.6,0.6
	c0.2,0.2,0.4,0.2,0.5-0.1c0.1-0.2,0.3-0.3,0.4-0.5c0.3-0.3,0.2-0.5-0.1-0.7c-1.3-0.8-2.6-1-4-0.3c-0.8,0.4-1.2,1.2-1.2,2.1
	c0,0.8,0.5,1.3,1.2,1.7c0.4,0.2,0.8,0.4,1.2,0.6c0.3,0.2,0.7,0.4,0.6,0.8c-0.1,0.4-0.5,0.6-0.9,0.6c-0.8,0-1.5-0.2-2-0.7
	c-0.7-0.6-0.8,0.3-1.1,0.5c-0.4,0.3,0,0.6,0.3,0.7C28.8,34.2,29.7,34.4,30.7,34.4z M22.4,34.4c0.4,0,0.8,0,1.2,0
	c0.4,0,0.6-0.1,0.7-0.5c0.2-1,0.6-2.1,0.8-3.1c0.3-1.3,1.1-1.9,2.4-2c0.5,0,0.9-0.2,0.9-0.8c0-0.2,0.1-0.4,0.1-0.5
	c0.1-0.3,0-0.5-0.4-0.5c-0.8,0-1.6,0.1-2.3,0.7c0-0.3,0.2-0.6,0.1-0.7c-0.4-0.2-0.8-0.1-1.2-0.1c-0.3,0-0.4,0.2-0.4,0.5
	C23.7,29.7,23.1,32,22.4,34.4z"/>
<path class="st1" d="M57.7,23.8c-1.2-0.3-1.9-1.2-1.9-2.4c0-1.8,0-3.7,0-5.5c-0.3-0.1-0.3,0.1-0.5,0.3c-2.4,2.3-4.9,4.7-7.3,7
	c-1.3,1.3-3.3,1-4.2-0.5c-0.3-0.4-0.4-0.9-0.4-1.4c0-1.7,0-3.4,0-5c0-0.2,0-0.4,0-0.8c-1.3,1.2-2.5,2.4-3.7,3.6
	c-1.4,1.3-2.8,2.7-4.2,4.1c-0.4,0.4-0.9,0.7-1.4,1c-1.9,0.9-3.9-0.3-3.9-2.4c0-2.9,0-5.9,0-8.8c0-0.5-0.1-0.7-0.7-0.7
	c-1.1,0-2.2,0.2-3.3-0.1c-0.9-0.2-1.4-0.7-1.8-1.5c-0.1-0.3-0.1-0.4,0.2-0.4c2.4,0,4.8,0,7.2,0c0.5,0,0.4,0.3,0.4,0.6
	c0,3.5,0,7,0,10.4c0,0.1,0,0.3,0,0.4c0,0.3,0,0.5,0.3,0.6c0.3,0.1,0.5,0,0.7-0.2c3.3-3,6.6-6,9.9-9c0.8-0.7,1.6-1.5,2.5-2.3
	c0,0.5,0,0.9,0,1.2c0,3,0,5.9,0,8.9c0,0.3-0.1,0.7,0.3,0.8c0.4,0.2,0.6-0.1,0.8-0.3c3.5-3.3,7-6.6,10.5-9.9c0.1-0.1,0.2-0.1,0.2-0.2
	c0.3,0.2,0.2,0.5,0.2,0.7C57.7,15.8,57.7,19.8,57.7,23.8z"/>
<path class="st1" d="M46.7,19.9c0-2.9,0-5.6,0-8.3c0-0.6,0-1.2,0-1.8c0-0.3,0-0.6-0.3-0.8c-0.4-0.2-0.5,0.1-0.7,0.3
	c-2.7,2.5-5.5,5-8.2,7.5c-1.3,1.2-2.6,2.4-4.1,3.7c0-0.3,0-0.5,0-0.7c0-3.1,0-6.1,0-9.2c0-0.5,0.2-0.7,0.7-0.6c1.6,0,3.2,0,4.8,0
	c0.2,0,0.4-0.1,0.6,0.1c-0.9,0.7-1.5,1.7-2.7,1.9c-0.1,0-0.2,0-0.2,0.1c-0.3,0-0.7-0.1-0.9,0.1c-0.2,0.3-0.1,0.7-0.1,1
	c0,0.8,0,1.6,0,2.6c0.8-0.7,1.5-1.4,2.1-2c2.1-2,4.1-3.9,6.2-5.9c1-0.9,2.2-1.2,3.3-0.7c1.2,0.5,1.6,1.5,1.6,2.7c0,1.7,0,3.4,0,5.3
	c1.6-1.5,3-2.9,4.5-4.3c1-1,2.1-2,3.1-3c0.9-0.8,1.8-1.1,3-0.7C60.5,7.6,61,8.5,61,9.7c0,3.9,0,7.7,0,11.6c0,1.1-0.5,1.9-1.5,2.3
	c-0.4,0.2-0.6,0.2-0.6-0.4c0-4.3,0-8.6,0-13c0-0.4,0.2-0.9-0.3-1.1c-0.5-0.2-0.7,0.3-1,0.5c-3.4,3.2-6.8,6.4-10.3,9.6
	C47.1,19.5,46.9,19.7,46.7,19.9z"/>
<path class="st1" d="M21.7,23.8c0-2.1,0-4.2,0-6.3c0-2.4,0-4.9,0-7.3c0-0.3,0.1-0.7-0.3-0.9c-0.4-0.2-0.6,0.1-0.9,0.4
	c-4.5,4.2-9,8.5-13.5,12.7c-0.1,0.1-0.2,0.1-0.2,0.2c-0.8-0.9-0.6-2.3,0.4-3.3c1.8-1.8,3.7-3.5,5.5-5.3c2.2-2.1,4.4-4.2,6.5-6.3
	c0.9-0.8,1.8-1.1,3-0.7c1.1,0.4,1.6,1.4,1.6,2.7c0,3.8,0,7.6,0,11.4C23.8,22.5,23.1,23.5,21.7,23.8z"/>
<path class="st1" d="M20.7,11c0,4.2,0,8.3,0,12.3c0,0.4-0.1,0.5-0.5,0.3c-1-0.4-1.6-1.4-1.6-2.7c0-1.7,0-3.5,0-5.4
	c-0.4,0.3-0.6,0.6-0.9,0.8c-2.3,2.2-4.6,4.4-6.9,6.6C10,23.8,9,24,7.9,23.7c-0.4-0.1-0.5-0.3-0.1-0.6c1.9-1.8,3.8-3.5,5.6-5.3
	c2.3-2.2,4.6-4.3,6.9-6.5C20.4,11.2,20.5,11.1,20.7,11z"/>
<path class="st1" d="M13.4,29.5c1.1,0.4,1.7,1.1,1.6,2.1c-0.1,1.2-0.7,2-1.8,2.4c-0.5,0.2-1.1,0.4-1.6,0.4c-1.7,0-3.5,0-5.3,0
	c0.4-1.4,0.7-2.7,1.1-4c0.3-1.2,0.6-2.4,1-3.6c0.3-1.3,1.2-2,2.5-2c1,0,1.9-0.1,2.9,0.1c1.3,0.3,2,1,2.1,2.1c0,1.3-0.6,2-1.9,2.4
	C13.8,29.4,13.7,29.4,13.4,29.5z M10.3,30.1c0.2-1.2,0.2-1.2,1.3-1.2c0.6,0,1.1,0,1.6-0.3c0.5-0.3,0.8-0.7,0.6-1.3
	c-0.1-0.6-0.5-0.8-1.1-0.8c-0.7,0-1.4,0-2.1,0c-0.3,0-0.5,0.1-0.6,0.4c-0.5,2-1,3.9-1.6,5.9c1.2,0,2.3,0.1,3.4,0
	c0.8-0.1,1.3-0.7,1.3-1.4c0-0.7-0.6-1.2-1.4-1.2C11.3,30.1,10.8,30.1,10.3,30.1z"/>
<path class="st1" d="M48.7,28.4c0.6-0.7,1.3-1.3,2.2-1.4c1.7-0.3,2.8,0.7,2.5,2.4c-0.2,1.6-0.8,3.1-1.2,4.7
	c-0.1,0.2-0.2,0.3-0.4,0.3c-1.6,0.1-1.6,0.2-1.2-1.4c0.2-0.9,0.5-1.8,0.7-2.7c0.2-0.8,0-1.3-0.4-1.6c-0.6-0.3-1.4-0.1-1.8,0.4
	c-0.3,0.3-0.4,0.7-0.5,1.1c-0.3,1.2-0.7,2.5-1,3.7c-0.1,0.3-0.2,0.4-0.6,0.4c-1.4,0-1.4,0-1.1-1.3c0.3-0.9,0.5-1.9,0.7-2.8
	c0.2-0.6,0.1-1.1-0.4-1.4c-0.5-0.3-1.2-0.2-1.7,0.3c-0.4,0.4-0.6,0.9-0.7,1.4c-0.3,1.2-0.6,2.3-0.9,3.5c-0.1,0.3-0.2,0.4-0.6,0.4
	c-1.4,0-1.4,0-1.1-1.4c0.5-1.7,0.9-3.5,1.4-5.2c0.2-0.6,1.5-1.1,1.9-0.7c0.2,0.2-0.2,0.4,0,0.6C46.9,26.5,47.9,26.7,48.7,28.4z"/>
<path class="st1" d="M32.5,8.9c-2.5,0-5,0-7.5,0c-0.6,0-0.6-0.2-0.4-0.6c0.5-1,1.3-1.5,2.3-1.5c4.3,0,8.5,0,12.8,0
	c0.9,0,1.3,0.5,1.3,1.3c-0.1,0.6-0.3,0.9-1,0.9C37.5,8.9,35,8.9,32.5,8.9z"/>
<path class="st1" d="M38.5,27c0.2,0,0.3,0,0.5,0c2,0.1,2.8,1.2,2.4,3.1c-0.3,1.3-0.7,2.5-1,3.8c-0.1,0.4-0.2,0.5-0.6,0.4
	c-0.3,0-0.6,0-0.9,0c-0.1,0-0.3,0-0.3-0.1c0-0.9-0.5-0.3-0.7-0.2c-0.9,0.3-1.8,0.5-2.7-0.1c-1.1-0.7-1.3-1.9-0.5-2.8
	c1-1.2,2.4-1.5,4-1.5c0.2,0,0.3,0.1,0.2,0.3c-0.2,0.4-0.3,0.8-0.9,0.9c-0.5,0-1,0.3-1.4,0.6c-0.4,0.3-0.7,0.6-0.5,1
	c0.1,0.5,0.6,0.7,1.1,0.7c0.8,0.1,1.7-0.5,2-1.3c0.3-0.7,0.4-1.4,0.5-2.1c0.1-0.7-0.2-1.2-1-1.2c-0.6-0.1-1.2,0-1.8,0.1
	c-0.2,0.1-0.6,0.4-0.7-0.1c-0.1-0.4-0.3-0.9,0.3-1.2c0.5-0.2,1-0.3,1.5-0.3C38.2,27,38.4,27,38.5,27C38.5,27,38.5,27,38.5,27z"/>
<path class="st1" d="M18.2,31.1c0.3-1.1,0.3-1.1,1.4-1.1c0.3,0,0.7,0,1,0c0.6,0.1,0.7-0.2,0.6-0.7c-0.1-0.6-0.4-0.9-1-1
	c-0.9-0.2-1.8,0.3-2.3,1.1c-0.5,0.9-0.8,1.9-0.2,2.8c0.4,0.7,1.6,0.9,2.6,0.5c0.7-0.3,1-0.2,1.4,0.5c0.1,0.2,0,0.3-0.1,0.4
	c-1.2,0.9-3.4,0.9-4.6,0.1c-1.2-0.9-1.4-2.1-1.1-3.4c0.5-2.5,3-4.1,5.4-3.4c1.8,0.6,2.1,2.6,1.6,3.9c-0.1,0.1-0.2,0.2-0.3,0.2
	c-0.2-0.1-0.4-0.1-0.6-0.1C20.6,31.1,19.4,31.1,18.2,31.1z"/>
<path class="st1" d="M57.7,34.4c0-0.2,0.1-0.4,0.1-0.7c-0.5,0.3-1,0.5-1.6,0.6c-0.5,0.1-1,0.1-1.4-0.1c-1.5-0.5-1.9-2.1-0.8-3.2
	c1-1,2.3-1.3,3.7-1.3c0.3,0,0.3,0.1,0.2,0.4c-0.2,0.4-0.3,0.7-0.8,0.8c-0.5,0.1-1,0.3-1.4,0.6c-0.3,0.3-0.6,0.6-0.5,1.1
	c0.2,0.5,0.6,0.7,1,0.7c0.9,0.1,1.8-0.6,2.1-1.5c0.2-0.6,0.2-1.2,0.4-1.7c0.2-0.7-0.2-1.3-1-1.4c-0.6-0.1-1.2,0-1.8,0.1
	c-0.2,0-0.5,0.3-0.6,0c-0.2-0.4-0.3-0.9,0.1-1.2c0.1-0.1,0.3-0.2,0.4-0.2c1.1-0.2,2.1-0.3,3.2,0c1.2,0.3,1.8,1.2,1.5,2.4
	c-0.3,1.5-0.7,3-1.1,4.4c-0.1,0.2-0.2,0.4-0.4,0.3C58.6,34.3,58.2,34.4,57.7,34.4z"/>
<path class="st1" d="M30.7,34.4c-1,0-1.9-0.3-2.7-0.8c-0.3-0.2-0.6-0.4-0.3-0.7c0.3-0.3,0.4-1.1,1.1-0.5c0.6,0.5,1.3,0.7,2,0.7
	c0.4,0,0.8-0.2,0.9-0.6c0.1-0.5-0.2-0.7-0.6-0.8c-0.4-0.2-0.8-0.4-1.2-0.6c-0.7-0.3-1.2-0.8-1.2-1.7c0-0.9,0.4-1.7,1.2-2.1
	c1.4-0.7,2.7-0.5,4,0.3c0.3,0.2,0.4,0.4,0.1,0.7c-0.1,0.2-0.3,0.3-0.4,0.5c-0.2,0.2-0.3,0.3-0.5,0.1c-0.5-0.3-1-0.6-1.6-0.6
	c-0.5,0-0.9,0.1-1,0.6c-0.1,0.5,0.2,0.7,0.6,0.9c0.5,0.2,1,0.4,1.4,0.7c1.4,0.8,1.5,2.4,0.2,3.4C32.1,34.3,31.4,34.4,30.7,34.4z"/>
<path class="st1" d="M22.4,34.4c0.6-2.4,1.3-4.7,1.9-7c0.1-0.2,0.2-0.5,0.4-0.5c0.4,0,0.8-0.1,1.2,0.1c0.2,0.1-0.1,0.4-0.1,0.7
	c0.7-0.5,1.5-0.7,2.3-0.7c0.4,0,0.5,0.2,0.4,0.5c0,0.2-0.1,0.4-0.1,0.5c0,0.6-0.4,0.8-0.9,0.8c-1.3,0.1-2.1,0.7-2.4,2
	c-0.2,1-0.6,2.1-0.8,3.1c-0.1,0.4-0.3,0.5-0.7,0.5C23.3,34.3,22.9,34.4,22.4,34.4z"/>
<path class="st1" d="M57.7,23.8c0-4,0-7.9,0-11.9c0-0.2,0.1-0.5-0.2-0.7c0.1-0.1,0.2-0.4,0.3,0c0,0.1,0,0.2,0,0.3
	c0,3.9,0,7.8,0,11.7C57.8,23.4,57.9,23.6,57.7,23.8z"/>
<path class="st1" d="M18.2,31.1c1.2,0,2.4,0,3.6,0c0.2,0,0.4-0.1,0.6,0.1c-1.4,0.1-2.8,0-4.1,0C18.2,31.2,18.2,31.1,18.2,31.1z"/>
<path class="st0" d="M10.3,30.1c0.5,0,1,0,1.5,0c0.8,0,1.4,0.5,1.4,1.2c0,0.7-0.5,1.3-1.3,1.4c-1.1,0.1-2.2,0-3.4,0
	c0.5-2,1-3.9,1.6-5.9c0.1-0.3,0.3-0.4,0.6-0.4c0.7,0,1.4,0,2.1,0c0.5,0,0.9,0.3,1.1,0.8c0.1,0.6-0.2,1-0.6,1.3
	c-0.5,0.3-1.1,0.3-1.6,0.3C10.4,28.8,10.4,28.9,10.3,30.1z"/>
</svg>
