<svg xmlns="http://www.w3.org/2000/svg" viewBox="0 0 738.24 144.48"><path d="M2353.24,1480.73v8.4H1822.35a3.08,3.08,0,0,1,.65-.21,44.1,44.1,0,0,0,11.19-2.47,54.92,54.92,0,0,0,24.54-17.74c.44-.55,1-1,1.5-1.53l.37.2c-1.47,6.19-2.93,12.38-4.41,18.67.52,0,.91,0,1.3,0,7.72,0,15.44.07,23.16.08,17.08,0,34.16,0,51.24.06,1.07,0,1.4-.36,1.63-1.35,1.55-6.93,3.18-13.84,4.78-20.76q7.34-31.68,14.67-63.34,5.68-24.48,11.39-49c.43-1.88.84-3.76,1.26-5.65h-34.87c-.07.2-.11.31-.14.42q-4,17.43-8.11,34.87-7.62,32.76-15.23,65.53-2,8.64-4,17.26c-.08.34-.45.87-.7.87-3.55.06-7.1,0-10.77,0,3.5-15,7-29.84,10.46-44.81h-61.85c-1.59,6.73-3.19,13.46-4.82,20.36h20.36a3.93,3.93,0,0,1-.1.49c-.1.26-.21.52-.33.77a23.36,23.36,0,0,1-12.69,11.63c-6.8,2.73-13.82,2.71-20.89,1.52a14.42,14.42,0,0,1-11.77-9.9c-.54-1.49-.92-3-1.4-4.65h-1.16c-5,0-10.08,0-15.12.07a1.58,1.58,0,0,1-1.74-1.19,23.23,23.23,0,0,1-1.33-11.89c.3-2.47.93-4.89,1.41-7.31,5.84,0,11.36,0,16.88,0a1.48,1.48,0,0,0,1.71-1.31,81.22,81.22,0,0,1,6.63-16.69,56.78,56.78,0,0,1,12.66-16.29c7.09-6.2,15.36-8.35,24.52-7,7.27,1.09,11.57,5.49,12.68,12.72a49.2,49.2,0,0,1,.05,7.29h41.2c-.1-1.79-.17-3.46-.29-5.13a74.06,74.06,0,0,0-3.64-19.73c-3.85-10.79-10.43-19.24-20.87-24.39a49.69,49.69,0,0,0-17.73-4.68c-1.37-.12-2.72-.3-4.08-.45h492.73V1480h-14.81c2-9.72,4-19.27,6-28.87H2336c-2.41,11.72-4.82,23.38-7.23,35.08h23.13C2352.38,1484.34,2352.81,1482.53,2353.24,1480.73Zm-352.2,5.55c2.48-11.76,4.93-23.43,7.41-35.2-2.7,0-5.18,0-7.65,0a1.14,1.14,0,0,0-.81.72c-.85,3.81-1.64,7.64-2.44,11.46-.61,2.86-1.21,5.73-1.88,8.91-.36-.66-.57-1-.77-1.41-3.34-6.3-6.68-12.62-10.06-18.91a1.59,1.59,0,0,0-1.11-.77c-2.31-.08-4.63,0-7.07,0q-4.17,17.55-8.34,35.16h8.28c1.82-7,3.62-13.89,5.48-21a7.7,7.7,0,0,1,.41.67q5.15,9.73,10.3,19.45c.19.38.59.9.91.91C1996.13,1486.32,1998.56,1486.28,2001,1486.28Zm256-.06h8.28c1.48-7,3-13.87,4.48-21,.26.42.42.63.55.87q5.1,9.68,10.22,19.35c.18.34.57.79.87.8,2.43.07,4.86,0,7.32,0,2.48-11.77,4.93-23.44,7.41-35.21-2.68,0-5.16,0-7.64,0-.29,0-.75.49-.82.82-.85,3.82-1.64,7.64-2.45,11.46-.6,2.83-1.21,5.66-1.86,8.73-.3-.51-.49-.79-.65-1.08-3.38-6.38-6.78-12.75-10.13-19.14a1.3,1.3,0,0,0-1.37-.85q-2.92.09-5.87,0c-.79,0-1.09.2-1.25,1-1,4.85-2,9.68-3,14.52C2259.8,1473.11,2258.45,1479.63,2257.08,1486.22Zm-125-14c-.73-1.38-1.31-2.46-1.88-3.55q-4.47-8.4-8.94-16.8c-.18-.33-.59-.76-.89-.77-2.43-.06-4.86,0-7.31,0-2.46,11.77-4.9,23.43-7.34,35.15H2114c1.49-7,3-13.87,4.5-21.07.59,1.09,1,1.89,1.46,2.7q4.7,8.88,9.4,17.77a1.3,1.3,0,0,0,.84.63c2.39,0,4.79,0,7.25,0,2.47-11.75,4.93-23.42,7.4-35.17h-8.31C2135.05,1458.06,2133.59,1465,2132.06,1472.23Zm-59.67-104.9c-.36-.66-.6-1.07-.82-1.49-3.3-6.24-6.62-12.47-9.89-18.72a1.5,1.5,0,0,0-1.57-.93q-2.88.06-5.76,0c-.72,0-1,.16-1.17.94-1.14,5.63-2.35,11.24-3.53,16.86s-2.39,11.53-3.6,17.34h8.28c1.49-7,3-13.89,4.49-21,.45.81.78,1.4,1.09,2q4.8,9.09,9.63,18.19c.19.37.6.89.92.9,2.42.07,4.85,0,7.31,0l7.39-35.13h-8.31C2075.37,1353.27,2073.91,1360.17,2072.39,1367.33Zm147.82,104.77c0,.36,0,.72,0,1.08s0,.56.05.84c.44,5.28,3,9.23,7.88,11.21,7.49,3,14.5,1.83,20.51-3.55,5.43-4.87,7.37-11.32,6.82-18.43a13,13,0,0,0-10.58-12.2,19.4,19.4,0,0,0-15.15,2.75C2223.11,1458.07,2220.46,1464.48,2220.21,1472.1Zm61.22-51.57c-1,4.6-1.89,9.08-2.82,13.55h8.26c2.48-11.74,4.94-23.39,7.43-35.16H2289c-3.08,0-3.07,0-3.69,3-.68,3.31-1.38,6.62-2.07,9.91h-15.33c.91-4.33,1.79-8.56,2.67-12.84h-8.32c-2.47,11.74-4.92,23.42-7.39,35.14h8.29l2.9-13.59Zm-186.73-8.69h-15.31l2.67-12.84h-8.34c-2.46,11.74-4.91,23.41-7.37,35.12h8.28c1-4.56,1.94-9.1,2.89-13.55h15.37c-.95,4.56-1.88,9-2.82,13.53h8.26l7.43-35.14h-8.35C2096.51,1403.28,2095.6,1407.56,2094.7,1411.84ZM1986.52,1346c-2.82,11.88-5.59,23.57-8.36,35.26,7,0,13.86.15,20.73,0,6.34-.18,9.22-4.58,10.08-8.46.93-4.21-.31-7.82-4.25-9.8a2.48,2.48,0,0,1-.51-.43c2.86-2,4.08-3.66,4.74-6.17,1-3.76,0-6.84-3-8.56a9,9,0,0,0-3.81-1.24C1997,1346.31,1991.79,1346.21,1986.52,1346Zm187.91,75c-.1.49-.16.8-.22,1.11-.74,4-.74,4-4.79,4.53a7.31,7.31,0,0,1-8.63-6.32A12.51,12.51,0,0,1,2169,1407a20.44,20.44,0,0,1,9.82-.59c1.83.29,3.63.73,5.5,1.12.55-2.56,1.09-5,1.62-7.52a37,37,0,0,0-14.81-1.36,22,22,0,0,0-11,4c-6.1,4.55-8.33,11-8.24,18.25s5.21,12.63,12.54,13.46c5.12.58,9.89-.67,14.58-2.48a1.45,1.45,0,0,0,.71-.93c.58-2.6,1.11-5.22,1.65-7.84.58-2.8,1.15-5.59,1.73-8.44H2170c-.41,2.07-.83,4.11-1.25,6.24Zm-80.62,49.77A26.56,26.56,0,0,0,2098,1469c3.67-2.34,4.53-6,3.91-10-.74-4.68-2.92-7.17-7.22-7.54-5.43-.46-10.91-.4-16.44-.57-2.45,11.91-4.86,23.59-7.28,35.31h8.23c1.06-4.93,2.1-9.82,3.11-14.56a4.23,4.23,0,0,1,5.35,2.77c.28.66.62,1.3.87,2,1.25,3.27,2.47,6.55,3.7,9.81h9.08l-3.85-10.4A9.79,9.79,0,0,0,2093.81,1470.77Zm90.82-36.65h8.23c.5-2.33,1-4.62,1.48-6.92s1-4.6,1.47-6.9c.08-.34.3-.81.57-.9a3.84,3.84,0,0,1,3.93,1.37,38.26,38.26,0,0,1,2.38,4.8c1.14,2.83,2.14,5.73,3.2,8.57H2215c-1.19-3.27-2.35-6.48-3.54-9.69-.84-2.24-1.78-4.43-4.06-5.91l1.41-.39a8.57,8.57,0,0,0,6.59-6.54c1.69-6.76-1.84-12-8.72-12.49-4.82-.33-9.67-.13-14.51-.17-.06,0-.13.07-.29.18Q2188.27,1416.52,2184.63,1434.12Zm-171.44-14.68c3-.26,4,.22,5.27,2.81a27.88,27.88,0,0,1,1.17,2.62c1.17,3.08,2.31,6.17,3.46,9.23h9.06c-.61-1.69-1.11-3.32-1.78-4.89-1.58-3.71-2.07-8-5.81-10.74l.74-.14c4.17-.88,6.7-3.33,7.42-7.44.88-5.06-.94-11.51-8.77-11.8-3.15-.12-6.31-.13-9.47-.16-1.78,0-3.57,0-5.39,0-2.43,11.78-4.83,23.45-7.25,35.19h8.23C2011.11,1429.23,2012.14,1424.36,2013.19,1419.44Zm102.9-38L2105.55,1362l15.24-15.82c-3.28,0-6.22,0-9.17,0a2,2,0,0,0-1.19.63q-6.27,6.45-12.49,12.93l-.91.92-.26-.19c1-4.74,2-9.47,3-14.27h-8.34q-3.67,17.52-7.37,35.1h8.28c1.32-6.17,2.62-12.28,4-18.65l.84,1.5q4.55,8.22,9.1,16.43c.18.33.58.74.89.74C2110,1381.43,2113,1381.41,2116.09,1381.41Zm-77.64-35.21c-2.66,0-5.13,0-7.61,0a1.66,1.66,0,0,0-1.76,1q-7.26,13.54-14.59,27l-3.85,7.16c2.77,0,5.36,0,7.94,0a1.26,1.26,0,0,0,.83-.63,23.66,23.66,0,0,0,1.89-3.85c.85-2.65,2.42-3.89,5.25-3.3a6.91,6.91,0,0,0,1.44,0h5.08v7.7h8.79C2040.72,1369.59,2039.59,1358,2038.45,1346.2Zm286.17,140c-.14-1.34-.27-2.57-.39-3.79q-1.47-15.27-2.92-30.54c-.06-.67-.29-.86-1-.85-2.35,0-4.71,0-7.07,0a1.33,1.33,0,0,0-1.35.87q-8.2,15.22-16.45,30.41c-.69,1.27-1.35,2.55-2.08,3.94,2.75,0,5.3,0,7.86,0a1.48,1.48,0,0,0,1-.77c1.07-2,2.05-4.14,3.11-6.2.15-.3.51-.71.78-.72,3.15,0,6.3,0,9.71,0v7.72Zm-182.74,0c2.82,0,5.44,0,8.07,0,.26,0,.61-.42.77-.72,1.05-2.06,2.08-4.13,3.07-6.22a1.15,1.15,0,0,1,1.26-.8c1.47.06,2.95,0,4.43,0h4.85v7.69h8.78c-1.14-11.74-2.27-23.41-3.41-35.14-2.62,0-5.09.06-7.56,0a1.74,1.74,0,0,0-1.84,1.1q-7.31,13.59-14.67,27.16ZM1994,1398.92c-2.55,0-5,.06-7.42,0a1.91,1.91,0,0,0-2,1.19q-7.83,14.61-15.75,29.17c-.86,1.59-1.7,3.2-2.6,4.89h8.48c1.15-2.34,2.28-4.67,3.46-7,.17-.34.56-.8.86-.81,3.11,0,6.22,0,9.42,0,.12,2.67.23,5.24.35,7.78h8.65C1996.27,1422.35,1995.13,1410.67,1994,1398.92Zm328.45,35.19c-1.15-11.76-2.29-23.45-3.43-35.19-2.61,0-5.05,0-7.48,0a1.86,1.86,0,0,0-1.94,1.16q-7.18,13.4-14.43,26.74c-1.3,2.41-2.59,4.82-3.93,7.33h8.47c.71-1.42,1.42-2.88,2.16-4.34.57-1.13.9-2.68,1.83-3.26s2.47-.19,3.74-.19c2,0,4,0,6.2,0v7.79ZM2121.93,1399l-19,35.22c2.65,0,5.13,0,7.61,0a1.27,1.27,0,0,0,1.33-.87c.86-1.84,1.89-3.61,2.65-5.49a2.18,2.18,0,0,1,2.51-1.54c2.7.11,5.41,0,8.16,0,.12,2.68.23,5.22.34,7.76h8.65c-1.15-11.76-2.29-23.43-3.42-35.13Zm119.7,35.15h8.83c-1.14-11.75-2.28-23.42-3.42-35.18-2.62,0-5.14,0-7.65,0a1.57,1.57,0,0,0-1.66,1q-7.49,14-15.06,27.89l-3.45,6.41c2.76,0,5.35,0,7.93,0a1.32,1.32,0,0,0,.9-.7c1.08-2.08,2.09-4.21,3.15-6.3.16-.32.49-.77.75-.78,3.14,0,6.29,0,9.68,0Zm-185.05,23.3h13.16l1.26-6.26h-21.5c-2.42,11.71-4.82,23.37-7.24,35.1h24.39c.42-2.07.83-4.11,1.27-6.3h-16c.58-2.93,1.14-5.74,1.71-8.65h11.52c.44-2.14.85-4.16,1.3-6.33H2055C2055.56,1462.36,2056.06,1459.92,2056.58,1457.4Zm146.94-4.26a19.39,19.39,0,0,0-11.22-2.45,10.93,10.93,0,0,0-6.46,2.8c-3,2.69-5,8.5-1.27,13,.83,1,1.71,2,2.58,3,1.11,1.26,2.29,2.47,3.33,3.78a4.22,4.22,0,0,1,.13,5.23,3.83,3.83,0,0,1-4.36,1.37,10.33,10.33,0,0,1-2.27-.71c-1.51-.74-3-1.59-4.49-2.42-.47,2.17-1,4.31-1.37,6.46a1.4,1.4,0,0,0,.65,1,18.49,18.49,0,0,0,12.45,2.29c7.65-1.29,11.57-10.89,6.91-17.08a57.81,57.81,0,0,0-4.05-4.4,30.57,30.57,0,0,1-2.18-2.38,3,3,0,0,1-.24-3.38,2.83,2.83,0,0,1,2.84-1.81,17.54,17.54,0,0,1,3.95.73A26.46,26.46,0,0,1,2202,1460C2202.49,1457.72,2203,1455.5,2203.52,1453.14Zm-160-2.06h-10.93c-5.76,0-11.52,0-17.28,0-.4,0-1.08.31-1.15.59-.53,2.11-.94,4.26-1.42,6.54h10.45c-2,9.4-3.89,18.67-5.83,28h8.27c1.77-8.41,3.55-16.75,5.28-25.1.6-2.91.55-2.92,3.51-2.92h7.65C2042.56,1455.78,2043,1453.49,2043.52,1451.08Zm3.87-45c-2,9.44-3.89,18.7-5.83,28h8.26c2-9.35,3.95-18.66,5.93-28h10.53c.48-2.4.95-4.72,1.43-7.08h-29.26c-.51,2.38-1,4.7-1.51,7.11Zm-85.3,45-8.32,35.14c2.66,0,5.14,0,7.61,0,.74,0,.8-.38.93-.93q3-12.43,6-24.87c.73-3.09,1.46-6.18,2.22-9.36Zm247.51,0c-2.46,11.77-4.89,23.39-7.33,35.09h8.34c2.46-11.69,4.91-23.36,7.37-35.09Z" transform="translate(-1615 -1344.65)" style="fill:#fefefd"/><path d="M1860.51,1344.65c1.36.15,2.71.33,4.08.45a49.69,49.69,0,0,1,17.73,4.68c10.44,5.15,17,13.6,20.87,24.39a74.06,74.06,0,0,1,3.64,19.73c.12,1.67.19,3.34.29,5.13h-41.2a49.2,49.2,0,0,0-.05-7.29c-1.11-7.23-5.41-11.63-12.68-12.72-9.16-1.38-17.43.77-24.52,7a56.78,56.78,0,0,0-12.66,16.29,81.22,81.22,0,0,0-6.63,16.69,1.48,1.48,0,0,1-1.71,1.31c-5.52-.07-11,0-16.88,0-.48,2.42-1.11,4.84-1.41,7.31a23.23,23.23,0,0,0,1.33,11.89,1.58,1.58,0,0,0,1.74,1.19c5-.08,10.08-.06,15.12-.07h1.16c.48,1.61.86,3.16,1.4,4.65a14.42,14.42,0,0,0,11.77,9.9c7.07,1.19,14.09,1.21,20.89-1.52a23.36,23.36,0,0,0,12.69-11.63c.12-.25.23-.51.33-.77a3.93,3.93,0,0,0,.1-.49h-20.36c1.63-6.9,3.23-13.63,4.82-20.36h61.85c-3.49,15-7,29.82-10.46,44.81,3.67,0,7.22,0,10.77,0,.25,0,.62-.53.7-.87q2.05-8.62,4-17.26,7.62-32.76,15.23-65.53,4.05-17.43,8.11-34.87c0-.11.07-.22.14-.42h34.87c-.42,1.89-.83,3.77-1.26,5.65q-5.7,24.5-11.39,49-7.35,31.67-14.67,63.34c-1.6,6.92-3.23,13.83-4.78,20.76-.23,1-.56,1.35-1.63,1.35-17.08,0-34.16,0-51.24-.06-7.72,0-15.44,0-23.16-.08-.39,0-.78,0-1.3,0,1.48-6.29,2.94-12.48,4.41-18.67l-.37-.2c-.5.51-1.06,1-1.5,1.53a54.92,54.92,0,0,1-24.54,17.74,44.1,44.1,0,0,1-11.19,2.47,3.08,3.08,0,0,0-.65.21h-10.8a5.05,5.05,0,0,0-.74-.27l-10.32-2a18.58,18.58,0,0,0-3.52-.57q-35.15-.07-70.31,0c-1.1,0-1.51-.33-1.72-1.37-1.07-5.12-2.19-10.23-3.3-15.33q-4.14-18.94-8.29-37.89c-.8-3.67-1.61-7.35-2.48-11.28-.49.7-.83,1.18-1.16,1.67q-3.82,5.58-7.64,11.18-17.85,26.05-35.67,52.13a1.76,1.76,0,0,1-1.65.87q-24.3,0-48.59,0c-.3,0-.6,0-1.06-.06.32-.51.53-.88.77-1.23,5.12-7.49,10.27-15,15.35-22.47,4.55-6.74,9-13.55,13.55-20.27a3.18,3.18,0,0,1,2.87-1.61c7.52.12,15,.05,22.56.07a1.62,1.62,0,0,0,1.58-.76c3.72-5.49,7.5-10.94,11.26-16.4.69-1,1.35-2,2.16-3.24h-24.94c.23-.39.35-.63.5-.85l20-29.28c2.41-3.53,4.79-7.08,7.18-10.61l1.56-2.48.37-.37,1.59-2.27c1.74-2.51,3.49-5,5.22-7.54q6.75-9.84,13.45-19.71a2.25,2.25,0,0,1,2.14-1.11c7.8,0,15.6,0,23.4,0,.35,0,.7,0,1.09.06q12.84,59.52,25.66,118.9h10.91a1,1,0,0,0,0-.33q-.15-.32-.33-.63a53.78,53.78,0,0,1-7-26.35,70,70,0,0,1,2.11-18.28c2.48-10,5.74-19.65,10.87-28.57a93.32,93.32,0,0,1,30.26-32.35,85.42,85.42,0,0,1,36-13.18l4.92-.69Z" transform="translate(-1615 -1344.65)" style="fill:#8c734a"/><path d="M1850.19,1344.65l-4.92.69a85.42,85.42,0,0,0-36,13.18,93.32,93.32,0,0,0-30.26,32.35c-5.13,8.92-8.39,18.62-10.87,28.57a70,70,0,0,0-2.11,18.28,53.78,53.78,0,0,0,7,26.35q.18.32.33.63a1,1,0,0,1,0,.33h-10.91q-12.83-59.41-25.66-118.9c-.39,0-.74-.06-1.09-.06-7.8,0-15.6,0-23.4,0a2.25,2.25,0,0,0-2.14,1.11q-6.69,9.88-13.45,19.71c-1.73,2.52-3.48,5-5.22,7.54-1,0-1.64,1-1.59,2.27l-.37.37c-1.23.36-1.6.94-1.56,2.48-2.39,3.53-4.77,7.08-7.18,10.61l-20,29.28c-.15.22-.27.46-.5.85h24.94c-.81,1.22-1.47,2.24-2.16,3.24-3.76,5.46-7.54,10.91-11.26,16.4a1.62,1.62,0,0,1-1.58.76c-7.52,0-15,0-22.56-.07a3.18,3.18,0,0,0-2.87,1.61c-4.56,6.72-9,13.53-13.55,20.27-5.08,7.51-10.23,15-15.35,22.47-.24.35-.45.72-.77,1.23.46,0,.76.06,1.06.06q24.28,0,48.59,0a1.76,1.76,0,0,0,1.65-.87q17.8-26.08,35.67-52.13,3.83-5.6,7.64-11.18c.33-.49.67-1,1.16-1.67.87,3.93,1.68,7.61,2.48,11.28q4.15,18.94,8.29,37.89c1.11,5.1,2.23,10.21,3.3,15.33.21,1,.62,1.37,1.72,1.37q35.16,0,70.31,0a18.58,18.58,0,0,1,3.52.57l10.32,2a5.05,5.05,0,0,1,.74.27H1615V1344.65Z" transform="translate(-1615 -1344.65)" style="fill:#fefefd"/><path d="M2353.24,1480.73c-.43,1.8-.86,3.61-1.32,5.49h-23.13c2.41-11.7,4.82-23.36,7.23-35.08h8.38c-2,9.6-4,19.15-6,28.87h14.81Z" transform="translate(-1615 -1344.65)" style="fill:#020202"/><path d="M2001,1486.28c-2.48,0-4.91,0-7.34,0-.32,0-.72-.53-.91-.91q-5.18-9.7-10.3-19.45a7.7,7.7,0,0,0-.41-.67c-1.86,7.14-3.66,14.08-5.48,21h-8.28q4.18-17.64,8.34-35.16c2.44,0,4.76,0,7.07,0a1.59,1.59,0,0,1,1.11.77c3.38,6.29,6.72,12.61,10.06,18.91.2.38.41.75.77,1.41.67-3.18,1.27-6,1.88-8.91.8-3.82,1.59-7.65,2.44-11.46a1.14,1.14,0,0,1,.81-.72c2.47-.06,5,0,7.65,0C2006,1462.85,2003.52,1474.52,2001,1486.28Z" transform="translate(-1615 -1344.65)" style="fill:#020202"/><path d="M2257.08,1486.22c1.37-6.59,2.72-13.11,4.08-19.62,1-4.84,2.05-9.67,3-14.52.16-.81.46-1,1.25-1q2.94.08,5.87,0a1.3,1.3,0,0,1,1.37.85c3.35,6.39,6.75,12.76,10.13,19.14.16.29.35.57.65,1.08.65-3.07,1.26-5.9,1.86-8.73.81-3.82,1.6-7.64,2.45-11.46.07-.33.53-.81.82-.82,2.48-.07,5,0,7.64,0-2.48,11.77-4.93,23.44-7.41,35.21-2.46,0-4.89,0-7.32,0-.3,0-.69-.46-.87-.8q-5.13-9.66-10.22-19.35c-.13-.24-.29-.45-.55-.87-1.52,7.12-3,14-4.48,21Z" transform="translate(-1615 -1344.65)" style="fill:#020202"/><path d="M2132.06,1472.23c1.53-7.24,3-14.17,4.46-21.11h8.31c-2.47,11.75-4.93,23.42-7.4,35.17-2.46,0-4.86,0-7.25,0a1.3,1.3,0,0,1-.84-.63q-4.73-8.88-9.4-17.77c-.43-.81-.87-1.61-1.46-2.7-1.54,7.2-3,14.11-4.5,21.07h-8.28c2.44-11.72,4.88-23.38,7.34-35.15,2.45,0,4.88,0,7.31,0,.3,0,.71.44.89.77q4.49,8.38,8.94,16.8C2130.75,1469.77,2131.33,1470.85,2132.06,1472.23Z" transform="translate(-1615 -1344.65)" style="fill:#020202"/><path d="M2072.39,1367.33c1.52-7.16,3-14.06,4.46-21h8.31l-7.39,35.13c-2.46,0-4.89,0-7.31,0-.32,0-.73-.53-.92-.9q-4.85-9.09-9.63-18.19c-.31-.59-.64-1.18-1.09-2-1.52,7.15-3,14.06-4.49,21h-8.28q1.82-8.71,3.6-17.34c1.18-5.62,2.39-11.23,3.53-16.86.16-.78.45-1,1.17-.94q2.88.06,5.76,0a1.5,1.5,0,0,1,1.57.93c3.27,6.25,6.59,12.48,9.89,18.72C2071.79,1366.26,2072,1366.67,2072.39,1367.33Z" transform="translate(-1615 -1344.65)" style="fill:#020202"/><path d="M2220.21,1472.1c.25-7.62,2.9-14,9.53-18.3a19.4,19.4,0,0,1,15.15-2.75,13,13,0,0,1,10.58,12.2c.55,7.11-1.39,13.56-6.82,18.43-6,5.38-13,6.56-20.51,3.55-4.92-2-7.44-5.93-7.88-11.21,0-.28-.05-.56-.05-.84S2220.21,1472.46,2220.21,1472.1Zm26.55-4.63c.08-2.59-.2-4.42-1.28-6-2-3-6.2-3.82-9.88-1.9-4.22,2.2-7.27,8.08-6.63,12.79.46,3.47,2.48,5.9,5.53,6.42a8.9,8.9,0,0,0,6.13-1.06A12.41,12.41,0,0,0,2246.76,1467.47Z" transform="translate(-1615 -1344.65)" style="fill:#020202"/><path d="M2281.43,1420.53h-15.37l-2.9,13.59h-8.29c2.47-11.72,4.92-23.4,7.39-35.14h8.32c-.88,4.28-1.76,8.51-2.67,12.84h15.33c.69-3.29,1.39-6.6,2.07-9.91.62-3,.61-3,3.69-3h5.3c-2.49,11.77-5,23.42-7.43,35.16h-8.26C2279.54,1429.61,2280.47,1425.13,2281.43,1420.53Z" transform="translate(-1615 -1344.65)" style="fill:#020202"/><path d="M2094.7,1411.84c.9-4.28,1.81-8.56,2.71-12.88h8.35l-7.43,35.14h-8.26c.94-4.5,1.87-9,2.82-13.53h-15.37c-.95,4.45-1.92,9-2.89,13.55h-8.28c2.46-11.71,4.91-23.38,7.37-35.12h8.34l-2.67,12.84Z" transform="translate(-1615 -1344.65)" style="fill:#020202"/><path d="M1986.52,1346c5.27.17,10.46.27,15.64.56a9,9,0,0,1,3.81,1.24c3,1.72,4,4.8,3,8.56-.66,2.51-1.88,4.12-4.74,6.17a2.48,2.48,0,0,0,.51.43c3.94,2,5.18,5.59,4.25,9.8-.86,3.88-3.74,8.28-10.08,8.46-6.87.19-13.74,0-20.73,0C1980.93,1369.61,1983.7,1357.92,1986.52,1346Zm1,30.18c2.19,0,4.23,0,6.26,0a15.59,15.59,0,0,0,2.15-.18,5,5,0,0,0,4.42-4c.86-3.38-.25-5.8-3.12-6.22-2.42-.35-4.91-.31-7.41-.45C1989,1369.07,1988.29,1372.53,1987.5,1376.22Zm5.29-25.09-2,9.52c1.4,0,2.67,0,3.94,0a12.55,12.55,0,0,0,2.37-.26,4.61,4.61,0,0,0,3.71-3.48c.94-3.47-.64-5.65-4.23-5.76C1995.37,1351.1,1994.14,1351.13,1992.79,1351.13Z" transform="translate(-1615 -1344.65)" style="fill:#040404"/><path d="M2174.43,1421h-5.66c.42-2.13.84-4.17,1.25-6.24h13.11c-.58,2.85-1.15,5.64-1.73,8.44-.54,2.62-1.07,5.24-1.65,7.84a1.45,1.45,0,0,1-.71.93c-4.69,1.81-9.46,3.06-14.58,2.48-7.33-.83-12.44-6.08-12.54-13.46s2.14-13.7,8.24-18.25a22,22,0,0,1,11-4,37,37,0,0,1,14.81,1.36c-.53,2.49-1.07,5-1.62,7.52-1.87-.39-3.67-.83-5.5-1.12a20.44,20.44,0,0,0-9.82.59,12.51,12.51,0,0,0-8.22,13.28,7.31,7.31,0,0,0,8.63,6.32c4-.54,4-.54,4.79-4.53C2174.27,1421.8,2174.33,1421.49,2174.43,1421Z" transform="translate(-1615 -1344.65)" style="fill:#020202"/><path d="M2093.81,1470.77a9.79,9.79,0,0,1,3.6,5l3.85,10.4h-9.08c-1.23-3.26-2.45-6.54-3.7-9.81-.25-.67-.59-1.31-.87-2a4.23,4.23,0,0,0-5.35-2.77c-1,4.74-2.05,9.63-3.11,14.56h-8.23c2.42-11.72,4.83-23.4,7.28-35.31,5.53.17,11,.11,16.44.57,4.3.37,6.48,2.86,7.22,7.54.62,3.94-.24,7.64-3.91,10A26.56,26.56,0,0,1,2093.81,1470.77Zm-10.43-4.47c1.74,0,3.34.13,4.91,0a5.35,5.35,0,0,0,4.91-4.36,4.3,4.3,0,0,0-3.51-5.4c-1.37-.24-2.77-.26-4.22-.38C2084.76,1459.6,2084.08,1462.92,2083.38,1466.3Z" transform="translate(-1615 -1344.65)" style="fill:#020202"/><path d="M2184.63,1434.12q3.63-17.61,7.22-35c.16-.11.23-.18.29-.18,4.84,0,9.69-.16,14.51.17,6.88.47,10.41,5.73,8.72,12.49a8.57,8.57,0,0,1-6.59,6.54l-1.41.39c2.28,1.48,3.22,3.67,4.06,5.91,1.19,3.21,2.35,6.42,3.54,9.69h-9.08c-1.06-2.84-2.06-5.74-3.2-8.57a38.26,38.26,0,0,0-2.38-4.8,3.84,3.84,0,0,0-3.93-1.37c-.27.09-.49.56-.57.9-.51,2.3-1,4.6-1.47,6.9s-1,4.59-1.48,6.92Zm12.45-19.89c1.6,0,3,.08,4.47,0a5.46,5.46,0,0,0,5.42-4.79,4.18,4.18,0,0,0-3.22-5,43.9,43.9,0,0,0-4.57-.46C2198.47,1407.48,2197.79,1410.78,2197.08,1414.23Z" transform="translate(-1615 -1344.65)" style="fill:#020202"/><path d="M2013.19,1419.44c-1,4.92-2.08,9.79-3.12,14.67h-8.23c2.42-11.74,4.82-23.41,7.25-35.19,1.82,0,3.61,0,5.39,0,3.16,0,6.32,0,9.47.16,7.83.29,9.65,6.74,8.77,11.8-.72,4.11-3.25,6.56-7.42,7.44l-.74.14c3.74,2.74,4.23,7,5.81,10.74.67,1.57,1.17,3.2,1.78,4.89h-9.06c-1.15-3.06-2.29-6.15-3.46-9.23a27.88,27.88,0,0,0-1.17-2.62C2017.15,1419.66,2016.24,1419.18,2013.19,1419.44Zm3.18-15.39c-.72,3.51-1.39,6.81-2.09,10.18,1.59,0,3,.07,4.45,0a5.64,5.64,0,0,0,4.5-2.35c1.8-2.5,1.25-7.12-2.87-7.52C2019.06,1404.21,2017.75,1404.15,2016.37,1404.05Z" transform="translate(-1615 -1344.65)" style="fill:#020202"/><path d="M2116.09,1381.41c-3.14,0-6.05,0-9,0-.31,0-.71-.41-.89-.74q-4.57-8.2-9.1-16.43l-.84-1.5c-1.36,6.37-2.66,12.48-4,18.65H2084q3.69-17.61,7.37-35.1h8.34c-1,4.8-2,9.53-3,14.27l.26.19.91-.92q6.24-6.46,12.49-12.93a2,2,0,0,1,1.19-.63c3-.06,5.89,0,9.17,0L2105.55,1362Zm-19.23-20.6-.06,0a.2.2,0,0,0-.08.08l.14,0Z" transform="translate(-1615 -1344.65)" style="fill:#040404"/><path d="M2038.45,1346.2c1.14,11.76,2.27,23.39,3.41,35.12h-8.79v-7.7H2028a6.91,6.91,0,0,1-1.44,0c-2.83-.59-4.4.65-5.25,3.3a23.66,23.66,0,0,1-1.89,3.85,1.26,1.26,0,0,1-.83.63c-2.58,0-5.17,0-7.94,0l3.85-7.16q7.3-13.51,14.59-27a1.66,1.66,0,0,1,1.76-1C2033.32,1346.24,2035.79,1346.2,2038.45,1346.2Zm-12.91,22.36h7.15c-.19-4.36-.38-8.64-.57-12.92l-.2,0C2029.8,1359.9,2027.69,1364.2,2025.54,1368.56Z" transform="translate(-1615 -1344.65)" style="fill:#040404"/><path d="M2324.62,1486.25h-8.78v-7.72c-3.41,0-6.56,0-9.71,0-.27,0-.63.42-.78.72-1.06,2.06-2,4.15-3.11,6.2a1.48,1.48,0,0,1-1,.77c-2.56.06-5.11,0-7.86,0,.73-1.39,1.39-2.67,2.08-3.94q8.22-15.21,16.45-30.41a1.33,1.33,0,0,1,1.35-.87c2.36,0,4.72,0,7.07,0,.67,0,.9.18,1,.85q1.44,15.27,2.92,30.54C2324.35,1483.68,2324.48,1484.91,2324.62,1486.25Zm-9.19-12.75c-.19-4.41-.37-8.69-.56-13l-.22,0-6.39,13Z" transform="translate(-1615 -1344.65)" style="fill:#040404"/><path d="M2141.88,1486.28l3.75-7q7.35-13.57,14.67-27.16a1.74,1.74,0,0,1,1.84-1.1c2.47.09,4.94,0,7.56,0,1.14,11.73,2.27,23.4,3.41,35.14h-8.78v-7.69h-4.85c-1.48,0-3,0-4.43,0a1.15,1.15,0,0,0-1.26.8c-1,2.09-2,4.16-3.07,6.22-.16.3-.51.71-.77.72C2147.32,1486.3,2144.7,1486.28,2141.88,1486.28Zm21.49-25.78-.2,0c-2.12,4.3-4.24,8.6-6.39,13h7.16C2163.75,1469.08,2163.56,1464.79,2163.37,1460.5Z" transform="translate(-1615 -1344.65)" style="fill:#020202"/><path d="M1994,1398.92c1.14,11.75,2.28,23.43,3.43,35.18h-8.65c-.12-2.54-.23-5.11-.35-7.78-3.2,0-6.31,0-9.42,0-.3,0-.69.47-.86.81-1.18,2.31-2.31,4.64-3.46,7h-8.48c.9-1.69,1.74-3.3,2.6-4.89q7.89-14.58,15.75-29.17a1.91,1.91,0,0,1,2-1.19C1989,1399,1991.44,1398.92,1994,1398.92Zm-12.94,22.44h7.2c-.2-4.38-.39-8.66-.58-12.95h-.22Z" transform="translate(-1615 -1344.65)" style="fill:#020202"/><path d="M2322.44,1434.11h-8.81v-7.79c-2.23,0-4.22,0-6.2,0-1.27,0-2.81-.38-3.74.19s-1.26,2.13-1.83,3.26c-.74,1.46-1.45,2.92-2.16,4.34h-8.47c1.34-2.51,2.63-4.92,3.93-7.33q7.23-13.36,14.43-26.74a1.86,1.86,0,0,1,1.94-1.16c2.43.08,4.87,0,7.48,0C2320.15,1410.66,2321.29,1422.35,2322.44,1434.11Zm-9.74-25.69-.23,0-6.39,13h7.17C2313.07,1417,2312.89,1412.72,2312.7,1408.42Z" transform="translate(-1615 -1344.65)" style="fill:#020202"/><path d="M2121.93,1399h8.81c1.13,11.7,2.27,23.37,3.42,35.13h-8.65c-.11-2.54-.22-5.08-.34-7.76-2.75,0-5.46.08-8.16,0a2.18,2.18,0,0,0-2.51,1.54c-.76,1.88-1.79,3.65-2.65,5.49a1.27,1.27,0,0,1-1.33.87c-2.48-.06-5,0-7.61,0Zm-4.14,22.42h7.2c-.19-4.38-.38-8.69-.57-13l-.2,0Z" transform="translate(-1615 -1344.65)" style="fill:#020202"/><path d="M2241.63,1434.1v-7.78c-3.39,0-6.54,0-9.68,0-.26,0-.59.46-.75.78-1.06,2.09-2.07,4.22-3.15,6.3a1.32,1.32,0,0,1-.9.7c-2.58.06-5.17,0-7.93,0l3.45-6.41q7.54-13.93,15.06-27.89a1.57,1.57,0,0,1,1.66-1c2.51,0,5,0,7.65,0,1.14,11.76,2.28,23.43,3.42,35.18Zm-.9-25.67-.24,0q-3.18,6.46-6.39,13h7.17C2241.09,1417,2240.91,1412.73,2240.73,1408.43Z" transform="translate(-1615 -1344.65)" style="fill:#020202"/><path d="M2056.58,1457.4c-.52,2.52-1,5-1.55,7.56h11.43c-.45,2.17-.86,4.19-1.3,6.33h-11.52c-.57,2.91-1.13,5.72-1.71,8.65h16c-.44,2.19-.85,4.23-1.27,6.3h-24.39c2.42-11.73,4.82-23.39,7.24-35.1H2071l-1.26,6.26Z" transform="translate(-1615 -1344.65)" style="fill:#040404"/><path d="M2203.52,1453.14c-.53,2.36-1,4.58-1.54,6.81a26.46,26.46,0,0,0-3.53-1.77,17.54,17.54,0,0,0-3.95-.73,2.83,2.83,0,0,0-2.84,1.81,3,3,0,0,0,.24,3.38,30.57,30.57,0,0,0,2.18,2.38,57.81,57.81,0,0,1,4.05,4.4c4.66,6.19.74,15.79-6.91,17.08a18.49,18.49,0,0,1-12.45-2.29,1.4,1.4,0,0,1-.65-1c.4-2.15.9-4.29,1.37-6.46,1.52.83,3,1.68,4.49,2.42a10.33,10.33,0,0,0,2.27.71,3.83,3.83,0,0,0,4.36-1.37,4.22,4.22,0,0,0-.13-5.23c-1-1.31-2.22-2.52-3.33-3.78-.87-1-1.75-2-2.58-3-3.69-4.47-1.71-10.28,1.27-13a10.93,10.93,0,0,1,6.46-2.8A19.39,19.39,0,0,1,2203.52,1453.14Z" transform="translate(-1615 -1344.65)" style="fill:#040404"/><path d="M2043.52,1451.08c-.49,2.41-1,4.7-1.45,7.13h-7.65c-3,0-2.91,0-3.51,2.92-1.73,8.35-3.51,16.69-5.28,25.1h-8.27c1.94-9.33,3.87-18.6,5.83-28h-10.45c.48-2.28.89-4.43,1.42-6.54.07-.28.75-.58,1.15-.59,5.76,0,11.52,0,17.28,0h10.93Z" transform="translate(-1615 -1344.65)" style="fill:#040404"/><path d="M2047.39,1406.1h-10.45c.51-2.41,1-4.73,1.51-7.11h29.26c-.48,2.36-.95,4.68-1.43,7.08h-10.53c-2,9.38-3.95,18.69-5.93,28h-8.26C2043.5,1424.8,2045.43,1415.54,2047.39,1406.1Z" transform="translate(-1615 -1344.65)" style="fill:#020202"/><path d="M1962.09,1451.14h8.39c-.76,3.18-1.49,6.27-2.22,9.36q-3,12.43-6,24.87c-.13.55-.19,1-.93.93-2.47,0-5,0-7.61,0Z" transform="translate(-1615 -1344.65)" style="fill:#040404"/><path d="M2209.6,1451.13H2218c-2.46,11.73-4.91,23.4-7.37,35.09h-8.34C2204.71,1474.52,2207.14,1462.9,2209.6,1451.13Z" transform="translate(-1615 -1344.65)" style="fill:#040404"/><path d="M1688,1379.52c0-1.54.33-2.12,1.56-2.48Z" transform="translate(-1615 -1344.65)" style="fill:#fcfcfc"/><path d="M1689.9,1376.67c-.05-1.31.61-2.25,1.59-2.27Z" transform="translate(-1615 -1344.65)" style="fill:#fcfcfc"/><path d="M2246.76,1467.47a12.41,12.41,0,0,1-6.13,10.2,8.9,8.9,0,0,1-6.13,1.06c-3.05-.52-5.07-3-5.53-6.42-.64-4.71,2.41-10.59,6.63-12.79,3.68-1.92,7.88-1.12,9.88,1.9C2246.56,1463.05,2246.84,1464.88,2246.76,1467.47Z" transform="translate(-1615 -1344.65)" style="fill:#fcfcfc"/><path d="M1987.5,1376.22c.79-3.69,1.52-7.15,2.3-10.83,2.5.14,5,.1,7.41.45,2.87.42,4,2.84,3.12,6.22a5,5,0,0,1-4.42,4,15.59,15.59,0,0,1-2.15.18C1991.73,1376.23,1989.69,1376.22,1987.5,1376.22Z" transform="translate(-1615 -1344.65)" style="fill:#fcfcfc"/><path d="M1992.79,1351.13c1.35,0,2.58,0,3.81,0,3.59.11,5.17,2.29,4.23,5.76a4.61,4.61,0,0,1-3.71,3.48,12.55,12.55,0,0,1-2.37.26c-1.27,0-2.54,0-3.94,0Z" transform="translate(-1615 -1344.65)" style="fill:#fcfcfc"/><path d="M2083.38,1466.3c.7-3.38,1.38-6.7,2.09-10.17,1.45.12,2.85.14,4.22.38a4.3,4.3,0,0,1,3.51,5.4,5.35,5.35,0,0,1-4.91,4.36C2086.72,1466.43,2085.12,1466.3,2083.38,1466.3Z" transform="translate(-1615 -1344.65)" style="fill:#fcfcfc"/><path d="M2197.08,1414.23c.71-3.45,1.39-6.75,2.1-10.22a43.9,43.9,0,0,1,4.57.46,4.18,4.18,0,0,1,3.22,5,5.46,5.46,0,0,1-5.42,4.79C2200.12,1414.31,2198.68,1414.23,2197.08,1414.23Z" transform="translate(-1615 -1344.65)" style="fill:#fcfcfc"/><path d="M2016.37,1404.05c1.38.1,2.69.16,4,.29,4.12.4,4.67,5,2.87,7.52a5.64,5.64,0,0,1-4.5,2.35c-1.42.09-2.86,0-4.45,0C2015,1410.86,2015.65,1407.56,2016.37,1404.05Z" transform="translate(-1615 -1344.65)" style="fill:#fcfcfc"/><path d="M2096.86,1360.81v.07l-.14,0a.2.2,0,0,1,.08-.08Z" transform="translate(-1615 -1344.65)" style="fill:#fefefd"/><path d="M2025.54,1368.56c2.15-4.36,4.26-8.66,6.38-13l.2,0c.19,4.28.38,8.56.57,12.92Z" transform="translate(-1615 -1344.65)" style="fill:#fcfcfc"/><path d="M2315.43,1473.5h-7.17l6.39-13,.22,0C2315.06,1464.81,2315.24,1469.09,2315.43,1473.5Z" transform="translate(-1615 -1344.65)" style="fill:#fcfcfc"/><path d="M2163.37,1460.5c.19,4.29.38,8.58.57,13h-7.16c2.15-4.38,4.27-8.68,6.39-13Z" transform="translate(-1615 -1344.65)" style="fill:#fcfcfc"/><path d="M1981.05,1421.36l6.4-13h.22c.19,4.29.38,8.57.58,12.95Z" transform="translate(-1615 -1344.65)" style="fill:#fcfcfc"/><path d="M2312.7,1408.42c.19,4.3.37,8.6.55,13h-7.17l6.39-13Z" transform="translate(-1615 -1344.65)" style="fill:#fcfcfc"/><path d="M2117.79,1421.37l6.43-13,.2,0c.19,4.31.38,8.62.57,13Z" transform="translate(-1615 -1344.65)" style="fill:#fcfcfc"/><path d="M2240.73,1408.43c.18,4.3.36,8.59.54,13h-7.17q3.22-6.54,6.39-13Z" transform="translate(-1615 -1344.65)" style="fill:#fcfcfc"/></svg>