<?xml version="1.0" encoding="utf-8"?>
<!-- Generator: Adobe Illustrator 23.0.5, SVG Export Plug-In . SVG Version: 6.00 Build 0)  -->
<svg version="1.1" id="Layer_1" xmlns="http://www.w3.org/2000/svg" xmlns:xlink="http://www.w3.org/1999/xlink" x="0px" y="0px"
	width="83" height="75" viewBox="0 0 485 438.57" style="enable-background:new 0 0 485 438.57;" xml:space="preserve">
<style type="text/css">
	.st0{fill-rule:evenodd;clip-rule:evenodd;fill:#7B141F;}
	.st1{fill-rule:evenodd;clip-rule:evenodd;fill:#E2071F;}
	.st2{fill-rule:evenodd;clip-rule:evenodd;fill:#FFFFFF;}
	.st3{fill:#7B141F;}
</style>
<g>
	<rect x="66.84" y="8.29" class="st0" width="347" height="320.37"/>
	<polygon class="st1" points="110.58,64.18 296.49,64.18 389.43,167.95 296.49,281.44 110.58,281.44 193.82,167.95 	"/>
	<polyline class="st2" points="389.43,167.95 296.49,64.18 110.58,64.18 193.82,167.95 	"/>
</g>
<g>
	<path class="st3" d="M48.96,387.34c-2.52-2.97-6.17-4.66-10.87-4.66c-9.59,0-16.66,7.72-16.66,18.31
		c0,10.61,7.07,18.32,16.25,18.32c5.11,0,9.24-2.26,11.85-6.11l10.55,7.78c-4.78,6.76-12.9,9.89-20.78,9.89
		c-17.94,0-31.02-11.64-31.02-29.89c0-18.23,13.08-29.88,31.02-29.88c6.42,0,14.54,2.18,19.41,8.36L48.96,387.34z"/>
	<rect x="66.84" y="372.56" class="st3" width="12.66" height="56.86"/>
	<polygon class="st3" points="91.02,372.55 110.19,372.55 123.42,409.66 123.59,409.66 136.91,372.55 155.98,372.55 155.98,429.42 
		143.33,429.42 143.33,385.81 143.17,385.81 128.05,429.42 118.4,429.42 103.86,385.81 103.68,385.81 103.68,429.42 91.02,429.42 	
		"/>
	<path class="st3" d="M167.69,372.55h21.44c10.08,0,21.02,2.09,21.02,14.46c0,6.34-3.97,10.67-9.89,12.52v0.18
		c7.54,0.95,12.59,6.5,12.59,13.89c0,11.88-11.38,15.82-21.63,15.82h-23.53V372.55z M180.35,395.29h9.19c3.89,0,7.97-1.61,7.97-6.18
		c0-4.74-4.55-5.94-8.55-5.94h-8.61V395.29z M180.35,418.82h11.38c3.97,0,8.45-1.69,8.45-6.66c0-5.37-6.09-6.27-10.23-6.27h-9.6
		V418.82z"/>
	<polygon class="st3" points="228.96,373.47 237.32,373.47 269.64,419.82 269.8,419.82 269.8,373.47 276.42,373.47 276.42,429.29 
		268.07,429.29 235.75,382.92 235.61,382.92 235.61,429.29 228.96,429.29 	"/>
	<rect x="290.29" y="373.47" class="st3" width="6.64" height="55.82"/>
	<path class="st3" d="M328.94,373.47h6.23l23.73,55.82h-7.74l-5.67-13.72h-27.9l-5.77,13.72h-7.49L328.94,373.47z M331.93,381.98
		h-0.16l-11.59,27.43h22.77L331.93,381.98z"/>
	<path class="st3" d="M413.77,425.5c-6.39,3.55-13.63,5.19-20.9,5.19c-17.33,0-29.8-11.82-29.8-29.33
		c0-17.57,13.32-29.33,30.04-29.33c7.33,0,14.44,1.98,19.72,7.35l-4.96,5.2c-3.79-4.1-9.55-6.39-15.24-6.39
		c-12.76,0-22.47,9.62-22.47,23.17c0,13.33,9.4,23.19,23.13,23.19c4.48,0,9.76-1.18,13.87-3.23v-17.12h-12.86v-6.14h19.48V425.5z"/>
	<path class="st3" d="M445.79,373.47h6.23l23.73,55.82h-7.73l-5.69-13.72h-27.91l-5.76,13.72h-7.48L445.79,373.47z M448.77,381.98
		h-0.15l-11.59,27.43h22.78L448.77,381.98z"/>
</g>
<g>
</g>
<g>
</g>
<g>
</g>
<g>
</g>
<g>
</g>
<g>
</g>
<g>
</g>
<g>
</g>
<g>
</g>
<g>
</g>
</svg>
