<?xml version="1.0" encoding="utf-8"?>
<!-- Generator: Adobe Illustrator 23.0.5, SVG Export Plug-In . SVG Version: 6.00 Build 0)  -->
<svg version="1.1" id="Layer_1" xmlns="http://www.w3.org/2000/svg" xmlns:xlink="http://www.w3.org/1999/xlink" x="0px" y="0px"
	width="150" height="52" viewBox="0 0 459 161" style="enable-background:new 0 0 459 161;" xml:space="preserve">
<style type="text/css">
	.st0{fill:#003399;}
	.st1{fill-rule:evenodd;clip-rule:evenodd;fill:#003399;}
</style>
<g>
	<path class="st0" d="M82.58,8.94c20.09,0.07,40.82,4.82,62.14,14.33l1.01,0.43l0.36,1.01v0.07l0,0c1.73,5.26,3.24,10.51,4.46,15.77
		s2.23,10.51,2.95,15.77c1.01,6.91,1.58,13.75,1.73,20.66v8.06c-0.43,17.42-3.46,34.85-9.14,52.27l-0.36,1.01l-1.01,0.43
		c-20.16,8.93-40.39,13.32-60.55,13.32c-0.5,0-1.01,0-1.58,0v-4.9c0.58,0,1.08,0,1.58,0c19.15,0,38.38-4.1,57.6-12.46
		c8.35-25.92,10.66-51.84,6.91-77.76c-0.72-5.04-1.73-10.22-2.95-15.34c-1.08-4.75-2.45-9.58-3.96-14.33
		c-20.38-8.93-40.1-13.39-59.18-13.46V8.94z M23.47,23.34c18.86-9.65,38.45-14.4,58.68-14.4c0.14,0,0.29,0,0.43,0v4.9
		c-0.14,0-0.29,0-0.43,0c-19.22,0-37.73,4.46-55.66,13.46C19.22,44.58,15.12,62.15,14.9,80.08c-0.29,17.78,3.38,36,11.52,54.58
		c18.72,8.14,37.44,12.31,56.16,12.53v4.9c-19.66-0.22-39.31-4.61-58.97-13.32l-1.3-1.22c-8.35-18.72-12.24-37.15-12.31-55.22v-1.3
		c0-0.36,0-0.65,0-1.01c0.22-18.79,4.61-37.3,12.31-55.44L23.47,23.34z"/>
	<path class="st1" d="M83.88,120.47c-1.01-13.75-0.36-28.08-4.46-41.18C75.6,67.05,61.13,60.06,60.84,46.6
		c-0.29-10.51,7.7-22.68,22.68-22.68c14.04-0.07,22.75,10.15,23.76,21.53c1.22,13.18-14.76,22.03-18.94,34.56
		C84.02,92.82,85.25,107.01,83.88,120.47z"/>
	<path class="st1" d="M89.42,117.16c-0.58-11.95-0.58-23.4,2.74-33.55c3.67-11.52,11.3-21.24,22.97-24.41
		c7.99-2.16,19.73,7.2,17.86,16.78c-1.58,7.7-9.29,16.78-21.67,17.78c-5.76,0.5-8.21,5.11-11.81,7.78
		c16.13-1.58,26.57-7.92,33.84-14.54c1.08,5.62,1.8,15.05-2.59,18.29c-8.64,6.12-16.63,1.15-26.78,4.03
		C98.28,110.97,94.75,114.57,89.42,117.16z"/>
	<path class="st1" d="M78.41,117.16c0.65-11.95,0.58-23.4-2.66-33.55c-3.67-11.52-11.3-21.24-22.97-24.41
		c-7.99-2.16-19.8,7.2-17.86,16.78c1.58,7.7,9.29,16.78,21.67,17.78c5.69,0.5,8.21,5.11,11.81,7.78
		c-16.2-1.58-26.57-7.92-33.84-14.54c-1.08,5.62-1.8,15.05,2.59,18.29c8.64,6.12,16.63,1.15,26.78,4.03
		C69.62,110.97,73.08,114.57,78.41,117.16z"/>
	<path class="st1" d="M116.78,134.94V133l1.44-0.36l-1.44-2.16v-3.6l6.48,9l-2.3,0.58l-1.58-2.23L116.78,134.94z M116.78,126.88v3.6
		l-1.01-1.44l-0.43,4.32l1.44-0.36v1.94l-1.66,0.36l-0.29,2.66l-2.3,0.58l1.51-11.74l2.3-0.58L116.78,126.88L116.78,126.88z
		 M95.33,141.21v-1.87h0.5c0.79-0.07,1.3-0.14,1.51-0.22c0.29-0.07,0.58-0.29,0.72-0.5c0.22-0.29,0.29-0.58,0.29-0.94
		c-0.07-0.36-0.14-0.65-0.36-0.86c-0.14-0.22-0.43-0.36-0.72-0.43c-0.29-0.07-0.94-0.07-1.94,0v-1.87c0.58,0,0.94-0.07,1.08-0.07
		c0.36-0.07,0.65-0.29,0.86-0.5c0.22-0.22,0.29-0.5,0.22-0.86c0-0.36-0.14-0.65-0.36-0.79c-0.14-0.22-0.43-0.36-0.86-0.36
		c-0.14,0-0.43,0-0.94,0.07v-1.87c0.79-0.07,1.37-0.07,1.73,0c0.43,0,0.86,0.14,1.22,0.36c0.36,0.14,0.65,0.43,0.94,0.79
		c0.22,0.36,0.36,0.79,0.43,1.3s-0.07,1.01-0.29,1.44c-0.22,0.43-0.58,0.79-1.08,1.08c0.72,0.14,1.3,0.43,1.66,0.86
		c0.43,0.43,0.65,0.94,0.72,1.58c0,0.5-0.07,1.01-0.22,1.51c-0.22,0.5-0.5,0.86-0.86,1.22c-0.43,0.29-0.86,0.5-1.44,0.65
		c-0.36,0.07-1.3,0.14-2.66,0.29H95.33L95.33,141.21z M108.94,135.16l2.23,0.29c-0.14,1.22-0.5,2.23-1.15,2.95
		c-0.65,0.65-1.58,1.15-2.74,1.37c-1.44,0.22-2.74-0.07-3.82-0.86c-1.15-0.86-1.8-2.09-2.16-3.82c-0.29-1.8-0.07-3.31,0.72-4.46
		c0.72-1.15,1.87-1.87,3.38-2.16c1.37-0.22,2.45,0,3.46,0.65c0.58,0.36,1.08,0.94,1.44,1.8l-2.09,0.86
		c-0.22-0.5-0.58-0.94-1.01-1.15c-0.5-0.29-1.01-0.36-1.58-0.29c-0.79,0.14-1.37,0.58-1.8,1.22c-0.43,0.72-0.5,1.66-0.29,2.95
		c0.29,1.37,0.72,2.3,1.3,2.81c0.58,0.5,1.3,0.72,2.09,0.58c0.58-0.14,1.01-0.43,1.37-0.86
		C108.65,136.6,108.86,135.95,108.94,135.16z M95.33,130.12v1.87c-0.29,0-0.58,0.07-0.94,0.07l-1.3,0.14l0.22,2.52l1.51-0.14
		c0.14,0,0.36,0,0.5-0.07v1.87c0,0,0,0-0.07,0l-1.73,0.14l0.22,2.95l1.58-0.14v1.87l-3.6,0.36l-1.01-11.02l4.39-0.36
		C95.18,130.12,95.26,130.12,95.33,130.12L95.33,130.12z M81.43,137.39v-1.87c0.5,0,0.79-0.07,1.01-0.14
		c0.29-0.07,0.5-0.29,0.72-0.5c0.14-0.29,0.22-0.58,0.22-0.86c0.07-0.43-0.07-0.72-0.29-1.01c-0.22-0.29-0.5-0.43-0.86-0.5
		c-0.22,0-0.43-0.07-0.79-0.07v-1.87c1.08,0,1.73,0.07,2.09,0.22c0.65,0.14,1.15,0.5,1.58,1.08s0.65,1.3,0.58,2.16
		c0,0.65-0.14,1.22-0.36,1.73c-0.29,0.43-0.58,0.79-0.94,1.08c-0.43,0.22-0.79,0.36-1.22,0.5
		C82.73,137.39,82.15,137.39,81.43,137.39z M81.43,130.55v1.87c-0.22,0-0.5,0-0.86,0l-1.08-0.07v3.17h1.15c0.29,0,0.58,0,0.79,0
		v1.87c-0.14,0-0.36,0-0.58,0h-1.44l-0.07,4.18l-2.23-0.07l0.22-11.02l3.53,0.07C81.07,130.55,81.29,130.55,81.43,130.55
		L81.43,130.55z M60.62,136.31v-3.38c0.65,0.14,1.08,0.14,1.3,0.14c0.29-0.07,0.5-0.14,0.72-0.36c0.14-0.22,0.29-0.43,0.36-0.79
		c0.07-0.36,0-0.65-0.14-0.94s-0.43-0.43-0.79-0.58c-0.14-0.07-0.65-0.14-1.44-0.29v-1.87l0.94,0.14c1.15,0.22,1.94,0.43,2.45,0.72
		c0.5,0.29,0.86,0.72,1.08,1.3c0.22,0.5,0.29,1.15,0.14,1.8c-0.14,0.79-0.5,1.44-1.08,1.87c-0.5,0.43-1.3,0.65-2.3,0.65
		c0.43,0.36,0.79,0.72,1.01,1.08c0.29,0.43,0.58,1.08,0.94,2.02l0.94,2.38l-2.59-0.5l-1.15-2.66
		C60.84,136.82,60.77,136.53,60.62,136.31L60.62,136.31z M66.96,129.47l2.16,0.22l-0.5,5.98c-0.07,0.94-0.07,1.58-0.07,1.8
		c0.07,0.5,0.29,0.86,0.58,1.15c0.36,0.36,0.79,0.5,1.44,0.58c0.65,0.07,1.15-0.07,1.44-0.29c0.36-0.22,0.58-0.5,0.72-0.86
		c0.07-0.36,0.14-1.01,0.22-1.87l0.5-6.12l2.23,0.22l-0.5,5.76c-0.07,1.37-0.22,2.3-0.43,2.81c-0.14,0.5-0.43,1.01-0.72,1.3
		c-0.36,0.36-0.86,0.65-1.44,0.79c-0.5,0.22-1.22,0.22-2.09,0.14c-1.08-0.07-1.87-0.29-2.38-0.58c-0.5-0.29-0.94-0.65-1.22-1.01
		c-0.29-0.43-0.43-0.86-0.5-1.3c-0.07-0.65-0.07-1.58,0-2.81L66.96,129.47z M49.46,132.71l0.43-1.8l4.68,1.22l-1.15,4.25
		c-0.58,0.36-1.3,0.58-2.3,0.65c-0.94,0.07-1.8,0-2.66-0.22c-1.15-0.29-2.09-0.79-2.74-1.44c-0.72-0.72-1.15-1.58-1.37-2.52
		c-0.14-1.01-0.14-2.02,0.14-3.02c0.29-1.08,0.79-2.02,1.51-2.81c0.65-0.72,1.51-1.15,2.52-1.37c0.79-0.22,1.73-0.14,2.74,0.14
		c1.3,0.36,2.3,0.86,2.88,1.66c0.58,0.72,0.86,1.66,0.79,2.66l-2.23-0.14c0-0.58-0.14-1.08-0.5-1.51c-0.36-0.36-0.79-0.72-1.44-0.86
		c-0.94-0.22-1.73-0.14-2.45,0.29c-0.72,0.43-1.22,1.3-1.58,2.45c-0.36,1.3-0.29,2.3,0.07,3.1c0.43,0.79,1.08,1.3,1.94,1.51
		c0.5,0.14,0.94,0.14,1.44,0.14c0.5-0.07,0.94-0.22,1.37-0.36l0.36-1.37L49.46,132.71L49.46,132.71z M60.62,128.25l-3.74-0.65
		l-1.87,10.87l2.16,0.36l0.79-4.54l0.5,0.07c0.5,0.07,0.86,0.22,1.08,0.29c0.22,0.14,0.36,0.36,0.58,0.58
		c0.07,0.22,0.29,0.58,0.5,1.08v-3.38c-0.22,0-0.43-0.07-0.72-0.07l-1.58-0.29l0.43-2.74l1.73,0.29c0.07,0,0.14,0,0.14,0V128.25z"/>
	<path class="st1" d="M403.78,114.78v-20.3h8.93V58.77l-8.93,17.86V32.06h35.06l8.93,102.67H412.7v-19.94H403.78z M403.78,32.06
		v44.57l-8.93,17.86h8.93v20.3h-16.85l-6.91,18.86h-21.74v-23.47l24.26-52.34h-4.97l13.82-25.78H403.78L403.78,32.06z M358.27,66.26
		l10.87-25.78l-10.87-6.05V66.26z M271.8,56.39c0.5-2.95,0.5-5.83,0-8.57V56.39L271.8,56.39z M358.27,34.43v31.82l-1.44,3.46
		c-21.46-15.34-53.14-1.37-54.94,14.83c-1.8,16.92,11.09,30.6,43.99,20.38l-11.3,30.24c-43.42,4.82-60.26-12.38-62.78-32.47V91.31
		c0.65-5.26,2.02-10.37,3.89-15.12c21.38-53.14,56.09-41.18,69.26-42.19l1.94-5.9L358.27,34.43L358.27,34.43z M358.27,110.18
		l-10.87,23.47h10.87V110.18z M232.78,133c23.26-4.61,46.08-32.54,23.18-54.79c8.93-4.75,14.47-13.32,15.84-21.82v-8.57
		c-1.58-8.86-8.42-16.06-21.31-16.27l-17.71-0.36v19.73h7.34c7.85,0,6.84,20.3-2.95,20.3h-4.39v15.55c10.58,2.02,6.84,16.7,0,21.24
		V133L232.78,133z M271.8,91.31v11.38C271.37,98.94,271.37,95.13,271.8,91.31z M202.1,30.54l-14.33,27.79l6.41-0.5l-17.28,75.82
		h49.46c2.16,0,4.25-0.22,6.41-0.65v-24.98c-1.22,0.86-2.59,1.37-3.96,1.37h-17.78l5.9-22.82h13.32c0.94,0,1.8,0.07,2.52,0.22V71.22
		h-12.38l4.97-20.3h7.42V31.19L202.1,30.54z"/>
</g>
</svg>
