<svg xmlns="http://www.w3.org/2000/svg" width="199" height="60" viewBox="0 0 398.593 121.304"><g fill-rule="evenodd" clip-rule="evenodd"><path fill="#FF6400" d="M21.198 105.125c-.303-.021-.756-.06-.793-.521-.036-.45.347-.526.682-.64 1.686-.567 3.012-1.567 4.001-3.083 2.55-3.905-.033-8.5-3.46-9.959-2.081-.886-4.314-1.152-6.585-1.13-3.459.035-6.919.021-10.378.014-1.337-.003-1.463.098-1.463 1.479-.004 4.601-.001 9.201-.002 13.802-.001 4.636-.003 9.271.002 13.906 0 1.343.224 1.568 1.572 1.548 1.623-.025 3.245-.088 4.868-.12 3.429-.068 6.873.334 10.261-.669 3.652-1.08 6.373-3.021 7.178-6.978.195-.958.309-1.952-.105-2.856-1.152-2.506-2.696-4.576-5.778-4.793zm-9.99-10.787c1.916.131 3.889-.053 5.706.76 1.311.585 2.383 1.42 2.494 3.018.099 1.424-1.153 3.052-2.688 3.498-.727.211-1.45.438-2.187.609-.712.167-1.438.012-2.159-.004-2.367.005-2.354.005-2.316-2.395.022-1.418.023-2.836-.013-4.254-.022-.84.388-1.286 1.163-1.232zm6.37 20.451c-1.668.52-3.374.654-4.946.699-.222.018-.291.025-.359.028-2.146.113-2.25-.006-2.217-2.125.028-1.864.039-3.729-.008-5.593-.023-.91.35-1.233 1.221-1.224 1.793.019 3.595-.02 5.348.396 1.393.331 2.654.949 3.412 2.263 1.249 2.167.07 4.772-2.451 5.556zM65.951 89.788c-1.556.02-3.114.051-4.668-.006-.962-.035-1.271.308-1.265 1.24.029 4.67.014 8.978.014 13.978h.02c0 5-.002 9.442.003 14.147.001 1.18.242 1.399 1.294 1.351a75.39 75.39 0 0 1 3.834-.072c1.707.008 1.806-.072 1.802-1.81-.021-7.853-.043-15.703-.05-23.555-.001-1.347-.083-2.694.121-4.04.121-.796-.238-1.243-1.105-1.233zM56.446 118.669c-1.444-1.983-1.973-4.396-3.14-6.509-1.247-2.255-1.701-4.957-3.917-6.664-.59-.453-.02-.7.384-.803 1.954-.492 3.306-1.693 4.313-3.409 1.731-2.954 1.077-7.808-2.645-9.915-2.377-1.346-5.042-1.637-7.683-1.732-3.697-.134-7.422-.041-11.125-.037-1.256.002-1.537.277-1.537 1.524V105h.052c0 5-.003 9.415.003 14.087.001 1.2.284 1.528 1.441 1.534 1.557.008 3.114.013 4.672.014.859.001 1.292-.423 1.261-1.272-.127-3.485.257-6.976-.222-10.453-.104-.75.201-1.304.955-1.296 1.06.01 2.147.081 3.165.349.925.243 1.653.829 2.126 1.809.537 1.112.96 2.263 1.454 3.386.842 1.911 1.868 3.741 2.405 5.78.283 1.075 1.139 1.69 2.243 1.724 1.759.054 3.522-.158 5.279.141.57.098.951-.212.854-.849-.066-.44-.095-.951-.338-1.285zm-10.092-17.091c-1.73 1.055-3.607 1.525-5.635 1.328-.553 0-1.107.026-1.659-.007-.836-.049-1.249-.47-1.136-1.355.23-1.826.169-3.658.055-5.488-.088-1.403.318-1.968 1.688-1.813 2.298.26 4.698.021 6.78 1.464 2.03 1.404 2.032 4.574-.093 5.871z"/><path fill="#2156A6" d="M398.153 81.744c-.359-.244-.596-.571-.766-.959-.713-1.629-1.43-3.258-2.135-4.891-1.5-3.473-2.994-6.946-4.489-10.42-.816-1.898-1.651-3.789-2.437-5.699-.604-1.466-1.424-2.855-1.933-4.331-.877-2.544-2.072-4.946-3.097-7.416-1.117-2.691-2.329-5.36-3.482-8.042-1.328-3.089-2.716-6.151-4.02-9.251-1.572-3.741-3.227-7.449-4.747-11.21a288.314 288.314 0 0 0-3.55-8.336c-1.469-3.332-2.761-6.748-4.383-10.017-.286-.575-.748-.708-1.32-.707-4.533.012-8.699.007-13.699.007V.419c-4 0-9.037.002-13.604-.004-.445 0-.834.059-.978.524-.34 1.099-1.059 2.009-1.414 3.085-1.197 3.634-2.983 7.016-4.356 10.578-1.349 3.495-2.933 6.896-4.407 10.342-.812 1.896-1.587 3.807-2.403 5.7-.643 1.486-1.39 2.943-1.937 4.447-.988 2.721-2.277 5.305-3.333 7.99-.869 2.211-1.958 4.337-2.788 6.562-1.097 2.939-2.44 5.771-3.583 8.693-1.756 4.485-3.816 8.851-5.73 13.273-.901 2.084-1.717 4.206-2.663 6.269-.572 1.245-.978 2.559-1.678 3.758-.541.927-.213 1.458.729 1.458 7.372-.005 14.743-.021 22.115-.03 1.061-.001 1.595-.571 1.932-1.539.52-1.487 1.135-2.943 1.737-4.4.724-1.75 1.536-3.464 2.2-5.235.664-1.774 1.32-3.55 2.114-5.27.405-.877 1.12-1.28 2.116-1.117.305.049.62.053.931.052 8.826-.004 17.651-.01 26.477-.018 1.313-.001 2.632.043 3.94-.038.848-.054 1.372.204 1.726.979 1.041 2.279 1.895 4.629 2.761 6.977 1.023 2.775 2.378 5.421 3.253 8.26.234.761.632 1.401 1.669 1.396 7.821-.036 15.642-.027 23.463-.037.449-.001.9-.018 1.347-.068.34-.04.743-.102.844-.485.084-.322-.157-.597-.422-.777zm-40.005-31.515c-4.554-.004-9.108-.021-13.662-.023-2.346-.001-4.691.012-7.038.031-1.065.01-1.391-.41-1.042-1.412.146-.417.315-.826.475-1.238-.532.05-.622.495-.809.858.187-.363.276-.809.808-.858.209-.156.263-.365.209-.611.184-.109.193-.261.102-.436.122-.11.144-.245.097-.397.751-.75.866-1.771 1.155-2.718.117-.113.139-.248.089-.399.612-1.036 1.094-2.119 1.201-3.337l.056-.398c.604-1.054 1.253-2.088 1.363-3.343l.08-.398c.365-.342.69-.7.537-1.263.034-.132.067-.263.102-.394.349-.351.591-.747.543-1.268l.074-.396c.784-1.133 1.12-2.421 1.311-3.76l.143-.393c.392-.249.598-.584.5-1.063.124-.106.156-.24.116-.395.419-.403.652-.874.524-1.472l.099-.396c.661-.817.937-1.821 1.281-2.777.325-.901.496-1.857.741-2.788.112-.425.33-.779.805-.845.451-.062.681.271.895.593.094.144.223.299.235.456.206 2.489 1.45 4.657 2.138 6.996.154.529.339 1.041.686 1.479l.087.397c-.049.575.154 1.057.543 1.47a.702.702 0 0 0 .095.605c-.015.167-.098.367-.034.496.638 1.303.825 2.78 1.462 4.051.41.817.275 1.881 1.122 2.482-.075.243-.015.459.131.657a7.757 7.757 0 0 0 1.185 3.541c-.053.156-.01.288.101.404.109 1.371.81 2.532 1.333 3.757-.057.216-.056.422.092.606.269.875.471 1.777.822 2.617.392.949.252 1.282-.753 1.282zm37.125 27.567c.069-.066.071-.172.031-.282-.06-.224-.099-.456-.165-.678.067.222.106.454.166.678.04.11.038.215-.032.282zM282.622 56.182c1.269-3.372 2.557-6.736 3.811-10.113.683-1.838 1.399-3.664 2.074-5.503.732-1.994 1.66-3.949 2.322-5.961 1.081-3.278 2.566-6.39 3.671-9.657 1.563-4.62 3.431-9.137 5.172-13.695 1.175-3.078 2.358-6.305 3.533-9.383.528-1.382.282-1.87-1.232-1.87h-14.744c-2.526 0-5.054.153-7.579.147-.508-.002-.991.104-1.18.69-.732 2.285-1.388 4.639-2.224 6.885-.409 1.102-.583 2.271-.995 3.367-.59 1.57-1.027 3.208-1.543 4.807-.591 1.835-1.234 3.659-1.78 5.507a126.41 126.41 0 0 1-1.589 4.909c-.595 1.748-1 3.563-1.567 5.321-.589 1.824-1.272 3.616-1.809 5.461-.661 2.27-1.37 4.527-2.099 6.777-.551 1.703-1.297 3.353-1.719 5.084-.596 2.445-1.518 4.78-2.192 7.196-.652 2.342-1.698 4.57-1.991 7.02-.045.368-.229.724-.374 1.074-.155.377-.4.667-.865.56-.446-.103-.604-.424-.568-.857.109-1.319-.469-2.524-.896-3.671-.896-2.411-1.578-4.882-2.332-7.329-.566-1.843-1.242-3.647-1.791-5.494-.744-2.496-1.486-4.993-2.265-7.479-.541-1.728-1.218-3.405-1.647-5.178-.401-1.658-1.14-3.231-1.605-4.878-.692-2.449-1.544-4.848-2.215-7.308-.774-2.837-1.771-5.625-2.683-8.429-1.415-4.354-2.739-8.735-4.185-13.08-.207-.624-.474-.817-1.082-.816-7.925.013-15.85.009-23.775.013-1.082 0-1.376.397-1.063 1.424.263.859.767 1.633 1.036 2.47.685 2.123 1.555 4.177 2.312 6.271.987 2.737 2.044 5.454 3.055 8.187.952 2.573 1.829 5.18 2.848 7.722 1.3 3.238 2.397 6.55 3.707 9.783 1.043 2.572 1.819 5.255 2.889 7.814 1.333 3.188 2.394 6.475 3.69 9.677 1.436 3.55 2.598 7.207 4.064 10.754.95 2.297 1.655 4.695 2.572 7.017 1.437 3.633 2.738 7.319 4.085 10.987.243.661.706.848 1.37.846 4.673-.016 9.345-.008 14.018-.01 4.638-.001 9.275-.017 13.913.013.872.005 1.292-.338 1.582-1.146.78-2.17 1.711-4.287 2.463-6.467 1.212-3.511 2.679-6.923 3.935-10.419 1.087-3.033 2.328-6.019 3.467-9.04zm1.528-5.878c-.359 1.54-.983 2.982-1.647 4.402.664-1.42 1.287-2.862 1.647-4.402zM213.857 1.638c-.788.053-1.046.112-1.06.521.015-.409.272-.469 1.06-.521.211-.196.319-.15.395-.026-.075-.125-.184-.17-.395.026zm28.22 79.423c-.279-.186-.394-.441-.463-.715.07.273.184.529.463.715.141 1.021.269 1.401.828 1.482-.559-.08-.687-.461-.828-1.482zM164.063 82.068c-.418-1.604-1.376-2.963-1.877-4.551-.852-2.701-2.126-5.26-3.14-7.916a188.902 188.902 0 0 0-2.797-6.853c-.268-.626-.299-1.383-.66-1.934-1.033-1.574-1.633-3.346-2.258-5.071-.975-2.691-2.061-5.32-3.556-7.747-1.396-2.265-3.121-4.229-5.954-4.756-.298-.056-.664-.175-.666-.551-.001-.434.383-.497.729-.592 1.324-.358 2.695-.612 3.952-1.137 3.498-1.46 6.477-3.61 8.683-6.776 1.854-2.661 2.868-5.589 3.291-8.786.181-1.373.162-2.731.219-4.102.096-2.3-.376-4.513-1.24-6.547-1.55-3.646-3.988-6.62-7.457-8.736-2.233-1.361-4.621-2.296-7.039-3.207-2.232-.841-3.356-1.395-6.846-2.048-.278-.053-.592-.176-.897-.203-2.538-.227-5.078-.298-7.631-.289-13.395.046-26.683.026-40.078.022-1.718-.001-1.744.106-1.744 1.794v39.666c0 12.876-.102 25.752-.112 38.628-.003 2.855-.084 2.854 2.76 2.854 6.715.003 13.401.009 20.116.012 1.404 0 1.751-.296 1.749-1.423l-.042-28.243c-.002-.448-.007-.9-.061-1.345-.138-1.13.098-1.429 1.261-1.438 1.488-.013 2.988-.115 4.461.038 1.475.154 3.003-.029 4.421.437 3.365 1.106 5.732 3.443 7.503 6.428 1.407 2.371 2.277 4.992 3.313 7.526 1.23 3.012 2.241 6.115 3.298 9.196.88 2.562 1.757 5.123 2.648 7.679.322.924.749 1.173 1.624 1.169 5.676-.028 11.353-.029 17.028-.034 2.042-.001 4.084.024 6.125.017.978-.004 1.11-.271.874-1.181zm-29.515-51.542c-.763 1.18-2.025 2.05-3.34 2.717a17.266 17.266 0 0 1-7.672 1.881c-2.626.034-5.237.442-8.043.232-.793.037-1.758.103-2.725.123-1.326.028-1.898-.665-1.689-1.962a9.755 9.755 0 0 0 .146-1.542c-.003-4.634-.021-9.266-.037-13.899-.005-1.326.168-1.543 1.472-1.512 3.521.088 7.056-.325 10.564.146 2.855.384 5.782.499 8.358 2.101 2.219 1.38 3.882 3.138 4.129 5.829.188 2.048-.042 4.153-1.163 5.886zM200.974 80.679c.004-25.476.003-50.952.001-76.428 0-.935.024-1.87-.013-2.803-.041-1.027-.473-1.423-1.49-1.423-7.407.001-14.814.005-22.222.012-1.144.001-1.526.385-1.56 1.56-.019.623-.013 1.246-.014 1.869-.002 25.995-.004 51.99-.01 77.985 0 1.653.335 2.027 1.982 2.028 7.131.006 14.261.001 21.392.011.497 0 .985-.049 1.403-.289.32-.184.796-.433.313-.937l.02-.619c.34-.265.198-.638.198-.966zM73.653 55.886c-.181-1.394-.587-2.859-1.333-4.157-.984-1.712-2.036-3.383-3.483-4.729-1.627-1.513-3.532-2.627-5.585-3.502-2.003-.855-4.019-1.641-6.18-2-.339-.056-.901.21-.962-.28-.056-.448.574-.37.867-.579.027-.02.063-.028.095-.041 4.085-1.59 7.889-3.569 10.75-7.063 1.666-2.033 2.585-4.354 3.269-6.829.602-2.178.469-4.399.377-6.6-.129-3.065-1.099-5.88-2.805-8.469-.379-.575-.811-1.098-1.25-1.612h.001C59.841-.975 37.568.648 37.568.648l.013.013C26.052.654 14.524.65 2.996.651c-.481 0-.935-.041-1.375.219-.095.023-.247.042-.247.065v.001l-.072.002C1.186.939.931.941.931.943v.001C.931.941.688.937.573.933.209.771.128.955.163 1.271c.01.139.016.276.025.415l-.11.357.122.472c.128.101.16.201.096.302.064-.101.031-.202-.096-.302-.267.135-.268.269 0 .402l-.118.881c.243.307.142.667.142 1.003.004 24.84.002 49.68.005 74.52.001.422-.131 3.242.066 3.617.616.397 1.442.212 1.927.212l38.645.005c1.17.2 2.337.226 3.503.112 24.347-.755 27.818-14.536 27.82-14.542.101-.223.192-.45.261-.69.609-2.129 1.185-4.244 1.349-6.494a28.247 28.247 0 0 0-.147-5.655zM23.928 25h.025c0-2 .03-4.744-.015-7.129-.018-.967.288-1.382 1.308-1.337 3.521.151 7.046-.223 10.566.1 2.61.239 5.192.498 7.601 1.74a6.83 6.83 0 0 1 3.687 6.184c-.02 1.338-.124 2.589-.819 3.772-1.137 1.937-2.972 2.97-4.941 3.719-3.16 1.202-6.49 1.568-9.859 1.574-2.074.006-4.148.008-6.223-.005-1.182-.007-1.355-.284-1.339-1.435.032-2.384.009-4.183.009-7.183zm13.064 42.527c-3.804.298-7.604.038-11.403.131-1.494.037-1.697-.262-1.681-1.772.03-2.663.009-5.327.009-7.99-.003-2.802.016-5.604-.015-8.405-.009-.821.279-1.265 1.121-1.244 4.831.117 9.686-.408 14.486.438 2.908.513 5.705 1.322 7.9 3.52 1.464 1.466 1.977 3.261 2.067 5.232.081 1.778-.112 3.54-.99 5.115-.745 1.338-2.077 2.09-3.369 2.813-2.517 1.408-5.263 1.939-8.125 2.162zM110.28 89.74c-.761-.387-2.266.114-2.818.793-.554.679-.576 1.536-.9 2.288-1.007 2.328-2.133 4.614-2.988 6.998-.938 2.614-2.229 5.077-3.131 7.704-.466 1.358-1.022 2.689-1.611 4.001-.605 1.346-1.256 2.663-1.557 4.128-.095.46-.41.955-.987.908-.595-.048-.624-.598-.786-1.065a192.182 192.182 0 0 0-2.284-6.254c-.73-1.891-1.615-3.725-2.278-5.638-.877-2.527-2.093-4.915-2.919-7.467-.504-1.556-1.324-3.009-1.831-4.58-.533-1.649-2.137-2.396-3.682-1.723-.479.209-.429.576-.263.955.828 1.881 1.677 3.753 2.493 5.639.734 1.697 1.454 3.4 2.148 5.115.616 1.52 1.157 3.07 1.789 4.583.687 1.644 1.547 3.222 2.139 4.896.986 2.793 2.23 5.473 3.408 8.181.336.771.96 1.356 1.574 1.38 1.574.008 2.475-.597 2.93-1.688 1.147-2.754 2.308-5.502 3.467-8.251 1.292-3.065 2.596-6.126 3.882-9.194.715-1.707 1.287-3.484 2.137-5.12.873-1.68 1.157-3.61 2.339-5.157.313-.412.386-1.099-.271-1.432zM197.723 110.012c-.075-1.84.118-4.328-.169-6.818-.244-2.106-2.188-4.534-4.184-5.214-2.336-.796-4.696-.856-7.057-.384-1.27.254-2.604.395-3.767 1.076-.595.349-1.144 1.647-.84 2.157.455.765 1.195.395 1.661.147 2.207-1.169 4.568-1.215 6.957-1.121.836.032 1.596.359 2.338.774 1.754.981 1.859 2.707 2.045 4.384.16 1.451-.233 1.875-1.703 1.873-.894-.002-1.796-.225-2.68-.156-2.468.191-4.898.528-7.24 1.481-2.062.84-3.475 2.307-3.971 4.313-.965 3.903.537 6.623 4.251 7.86 3.38 1.126 7.064 1.095 9.896-1.964.436-.47.942-1.25 1.707-.837.736.398.17 1.16.048 1.7-.196.864.141 1.16.897 1.229.345.03.691.05 1.037.045.856-.014 1.326-.432 1.16-1.311-.54-2.845-.346-5.72-.386-9.234zm-3.498 4.504c-.47 1.461-1.587 2.553-2.984 3.121-1.188.483-2.415 1.116-3.619.785-1.609.158-2.946-.168-4.132-.941-2.238-1.46-1.744-5.447.635-6.758 1.557-.858 3.181-1.412 5-1.49 1.4-.06 2.771-.534 4.21-.363 1.345.159 1.373.249 1.46 1.571.091 1.414-.152 2.777-.57 4.075zM344.603 108.591c-.015-3.04-.168-6.087.1-9.123.105-1.202-.156-1.552-1.501-1.63-1.425-.081-1.92.334-1.913 1.502.013 2.214.004 4.66.004 6.66h.029c0 2-.002 4.478.002 6.726.001.529-.143.995-.362 1.482-.877 1.95-2.335 3.224-4.372 3.802-4.211 1.195-7.756-.285-8.189-4.841-.439-4.615-.268-9.255-.081-13.884.041-1.016-.313-1.447-1.383-1.482-1.47-.048-1.805.198-1.804 1.293.004 4.187.07 8.374-.031 12.558-.042 1.709.238 3.296.959 4.795.944 1.966 2.359 3.632 4.537 4.101 3.714.798 7.324.757 9.988-2.663.285-.366.62-1.001 1.232-.736.701.303.16.905.159 1.377 0 .172-.021.348-.062.514-.121.482-.277 1.085.219 1.322.72.345 1.563.285 2.311.018.582-.209.613-.801.513-1.335-.65-3.469-.339-6.97-.355-10.456zM252.915 116.826c-.244-.264-.343-.59-.477-.909-.949-2.269-1.891-4.541-2.877-6.794-.974-2.227-2.006-4.429-2.996-6.648-1.045-2.342-2.133-4.666-3.079-7.047-.46-1.161-1.278-2.146-1.593-3.347-.514-1.965-.954-2.377-3.016-2.376-.764-.021-1.773-.1-2.163.932-.206.547-.473 1.06-.681 1.6-1.086 2.822-2.459 5.521-3.711 8.267-1.459 3.2-2.789 6.467-4.399 9.596-1.553 3.017-2.556 6.294-4.414 9.164-.445.688-.089 1.271.739 1.349 1.305.122 2.339-.333 2.899-1.535a102.924 102.924 0 0 0 2.162-5.004c.588-1.455 1.183-2.145 2.055-1.993 1.482.257 2.967.12 4.448.127 3.318.016 6.639.03 9.954-.077 1.071-.035 1.742.294 2.143 1.214a174.52 174.52 0 0 1 2.029 4.836c.813 2.032 1.648 2.591 3.639 2.381.464-.049.999-.267.759-.703-.54-.988-.631-2.178-1.421-3.033zm-7.913-7.382c-4.1-.056-8.199-.126-12.3.002-1.054.032-1.271-.31-.813-1.339.977-2.196 1.973-4.384 2.962-6.575.958-2.122 1.748-4.322 2.948-6.333.101-.169.132-.39.158-.592.07-.538.172-1.088.83-1.135.611-.043.975.434 1.096.936.56 2.323 1.847 4.347 2.653 6.569.465 1.279 1.143 2.48 1.668 3.74.501 1.201.983 2.399 1.63 3.54.449.791.08 1.233-.832 1.187zM294.116 98.002c-3.128-.785-6.223-1.018-9.376.027-3.909 1.297-6.452 3.889-7.562 7.778-.943 3.311-.482 6.557 1.209 9.577 1.597 2.853 4.107 4.479 7.238 5.22 2.506.593 5.017.307 7.525.019 1.676-.192 1.813-.387 1.792-2.091-.01-.783-.159-1.183-1.079-.927-.594.166-1.2.306-1.803.453-3.468.845-6.76.385-9.349-2.151-1.799-1.762-2.727-4.109-2.552-6.689 0-.3-.007-.542 0-.783.162-5.174 3.491-8.481 8.744-8.633 1.662-.048 3.194.501 4.797.706.61.077 1.191.095 1.252-.656.061-.724.222-1.584-.836-1.85zM368.771 99.887c-1.407-1.63-3.229-2.234-5.257-2.547-2.204-.34-4.218.159-6.212 1.063-1.1.497-1.553 1.528-2.305 2.313-.245.257-.523.493-.906.294-.41-.214-.289-.579-.199-.913.054-.199.135-.391.21-.583.36-.922.155-1.33-.796-1.605-.548-.158-1.093-.136-1.639-.005-.569.137-.823.44-.604 1.053.248.691.287 1.505.283 2.237-.013 2.905-.005 5.808-.005 8.808h-.083c0 3 0 6.203.002 9.351 0 .443-.104.952.425 1.128.759.251 1.576.284 2.319-.087.651-.326.513-1.003.514-1.582.004-3.874.023-7.754 0-11.627-.012-1.912.648-3.616 1.767-5.071 1.385-1.801 3.417-2.328 5.621-2.286 4.056.077 5.664 2.657 5.751 6.141.11 4.475-.071 8.957-.11 13.435-.008.867.498 1.199 1.343 1.192 1.526-.012 1.862-.178 1.876-1.138.019-1.28-.007-2.56-.001-3.839.014-3.182-.01-6.364.067-9.545.056-2.335-.508-4.387-2.061-6.187zM387.849 118.199c-.297-.04-.615.043-.92.094-2.963.492-4.635-1.04-4.363-4.003.013-.138.01-.276.008-.415-.053-4.043.244-8.091-.164-12.129-.082-.812.13-1.291 1.072-1.388 1.215-.124 2.411.132 3.618.026.973-.085 1.464-.663 1.277-1.589-.207-1.03-1.063-1.016-1.799-.954-.9.074-1.796.076-2.693.078-1.351.003-1.668-.354-1.417-1.707.23-1.239.059-2.485.166-3.726.027-.313-.037-.619-.427-.733-1.037-.304-2.7.887-2.687 1.969.013.932-.002 1.865.162 2.794.162.901-.258 1.396-1.181 1.412-.969.018-1.938.004-2.907.018-.729.01-1.289.19-1.27 1.112.019.898.398 1.352 1.314 1.344 1.003-.009 2.007-.002 3.01.012.787.011 1.146.443 1.054 1.205-.314 2.623-.041 5.255-.169 7.88.125 2.591-.271 5.209.214 7.767.297 1.559 1.223 2.869 2.878 3.357 1.767.521 3.571.257 5.353.047.62-.074 1.059-.5 1.022-1.227-.036-.739-.45-1.15-1.151-1.244zM206.034 87.398c-.345-.018-.691.003-1.037-.005-.947-.021-1.279.446-1.204 1.366.1 1.233.222 2.477.16 3.707-.203 4.01-.001 8.019-.115 12.186 0 4.747.007 9.651-.009 14.557-.002.575.116 1.05.662 1.282 1.483.63 2.793-.226 2.794-1.803.006-9.975.004-19.949.032-29.924.003-.948-.423-1.322-1.283-1.366zM134.308 97.332c-2.375-.248-4.226.643-5.659 2.534-.366.483-.706 1.437-1.413 1.089-.68-.334-.283-1.223-.155-1.883.079-.412.195-.878-.299-1.092-.868-.375-1.796-.313-2.625.041-.683.29-.003.927-.092 1.398-.019.1.032.207.032.311V109h-.082c0 3 .003 6.648 0 9.902-.002 1.252.242 1.599 1.393 1.593 1.635-.007 1.91-.205 1.912-1.541.005-3.98.017-7.943.023-11.923.003-1.304.462-2.519.994-3.633 1.133-2.37 3.184-3.328 5.788-3.153.435.028.964.194 1.25-.257.407-.641.05-1.349-.011-2.013-.049-.527-.601-.596-1.056-.643zM115.953 97.815c-1.626.048-1.728.29-1.717 2.104.04 6.423.019 12.847-.003 19.271-.004 1.055.205 1.333 1.28 1.362 1.589.043 1.865-.151 1.866-1.33.002-3.354 0-6.707 0-10.061-.002-3.318-.002-6.638-.002-9.956.001-1.081-.349-1.421-1.424-1.39zM149.064 118.133c-2.344.767-4.524-.576-4.485-2.635.088-4.634.086-9.268-.006-13.9-.017-.865.341-1.196 1.161-1.179a90.85 90.85 0 0 0 3.423.033c.967-.015 1.438-.602 1.318-1.557-.131-1.046-.975-1.072-1.713-1.121-1.103-.072-2.212-.027-3.318-.049-.542-.011-1.04-.227-.929-.841.243-1.341-.021-2.694.206-4.032.141-.828-.326-1.25-1.146-1.078-.472.099-.952.215-1.39.41-.626.281-1.06.697-.992 1.51.083.997.036 2.005.071 3.007.029.856-.36 1.188-1.203 1.113-.722-.064-1.449-.064-2.174-.085-1.012-.028-1.294.65-1.364 1.474-.078.93.56 1.195 1.313 1.235a21.43 21.43 0 0 0 2.281-.013c.832-.045 1.179.344 1.161 1.225-.045 2.42-.016 5.35-.016 7.35h.007c0 2-.042 4.824.014 7.279.044 1.98 2.054 4.351 3.695 4.595 1.552.23 3.089.163 4.634-.069.856-.129 1.327-.503 1.203-1.444-.136-1.045-.439-1.658-1.751-1.228zm.876 1.562c-.12.308-.305.456-.519.526.215-.07.399-.218.519-.526.123-.18.174-.328.166-.451.008.123-.043.272-.166.451zM174.407 102.11c.001-.657-.057-1.325.039-1.97.313-2.122-.014-2.522-2.171-2.497-.173.002-.346.006-.519.013-.893.037-1.305.507-1.288 1.395.02 1.068.279 2.117.209 3.196-.241 3.707.503 7.454-.428 11.134-.513 2.024-1.748 3.433-3.715 4.158-.287.106-.574.188-.855.329-1.864.929-5.278.093-6.488-1.625-.735-1.043-1.188-2.229-1.197-3.527-.022-2.975-.016-5.95-.015-8.926.001-1.661-.006-3.321.028-4.981.018-.83-.462-1.139-1.155-1.14-.915-.002-2.119-.318-2.725.749-.082.145-.031.34-.031.469v.408c0 .266.014.591.013.893-.001 3.944.104 7.889.073 11.833-.02 2.53.681 4.807 2.41 6.686.966 1.049 2.137 1.913 3.582 2.164 1.86.322 3.719.573 5.635.064 1.35-.358 2.541-.792 3.41-1.933.374-.491.844-.912 1.274-1.36.146-.15.312-.298.542-.174.205.11.259.31.266.527.018.5-.238.931-.352 1.397-.229.933.1 1.396 1.046 1.472.413.033.832.031 1.245.002.884-.063 1.345-.459 1.374-1.442.037-1.286-.229-2.542-.224-3.82.018-4.499.012-8.997.017-13.494zm-16.83 16.739l-.245-.207.245.207.218.181-.218-.181zm12.766-1.834zm.107-2.14l-.104.297.104-.297zM318.381 101.871c-1.86-2.738-4.603-4.146-7.893-4.559-2.73-.344-5.331.082-7.694 1.408-4.052 2.273-5.424 6.112-5.73 10.47-.188 1.192.294 2.274.566 3.364.573 2.289 1.751 4.248 3.579 5.805 2.175 1.853 4.7 2.738 7.515 2.646 1.635-.054 3.321-.016 4.852-.834 2.339-1.25 4.475-2.666 5.589-5.25.882-2.046 1.479-4.136 1.585-6.363.039-.799-.623-1.414-.597-2.179.061-1.769-.877-3.19-1.772-4.508zm-5.268-1.467l-.011.001h-.004l.015-.001zm1.56 15.223c-1.046 1.382-2.61 2.06-4.154 2.316-2.531.424-5.059.094-6.98-1.925-1.417-1.489-2.446-3.196-2.451-5.351-.002-1.072-.057-2.149.014-3.218.181-2.735 1.382-5.021 3.741-6.358 1.98-1.123 4.188-1.322 6.527-.632 2.941.869 4.22 3.06 5.031 5.646.296.943.048 2.058.048 2.98.358 2.518-.332 4.636-1.776 6.542zm4.098-11.761l-.002-.004.002.004zM273.861 97.807c-1.521-.528-3.099-.678-4.675-.77-1.799-.105-3.537.255-5.275.785-2.689.82-4.819 2.471-6.182 4.755-1.736 2.911-2.482 6.178-1.462 9.616.583 1.964 1.26 3.858 2.767 5.354 2.498 2.478 5.514 3.656 9 3.753 1.492.042 2.948-.258 4.421-.396 2.005-.188 2.349-.529 2.249-2.477-.057-1.093-.364-1.327-1.422-1.071-2.614.635-5.184 1.26-7.903.258-2.113-.779-3.671-2.162-4.632-4.042-.683-1.334-1.086-2.917-.761-4.375-.214-2.923.635-5.299 2.7-7.208.639-.59 1.332-1.099 2.201-1.242.651-.107 1.265-.331 1.896-.473 1.387-.31 2.826-.334 4.2.011.801.201 1.592.388 2.409.472.838.086 1.331-.264 1.383-1.134.047-.778.046-1.483-.914-1.816z"/><path fill="#07559C" d="M116.866 88.551c-.813-.189-1.671-.267-2.427.124-.633.327-.198 1.006-.305 1.533.119.62-.393 1.475.5 1.819.67.26 1.435.195 2.149.073.366-.063.581-.368.589-.759.013-.655.024-1.313.006-1.968-.009-.356-.133-.732-.512-.822z"/></g></svg>