<svg width="1174" height="306" viewBox="0 0 1174 306" fill="none" xmlns="http://www.w3.org/2000/svg">
<g clip-path="url(#clip0_988_16)">
<path d="M280.989 108.001H319.958C341.448 108.001 355.201 121.469 355.201 139.663C355.201 157.857 341.593 171.613 319.958 171.613H300.195V208.289H280.989V108.001ZM317.668 156.57C327.986 156.57 336.007 151.268 336.007 139.808C336.007 128.203 327.986 123.044 317.668 123.044H300.189V156.57H317.668Z" fill="black"/>
<path d="M357.616 172.057C357.616 150.841 371.227 133.661 393.289 133.661C418.935 133.661 431.255 154.587 428.39 177.071H375.238C376.528 189.106 382.687 196.544 394.292 196.544C402.459 196.544 407.615 192.675 410.338 186.662H427.675C423.519 202.136 411.341 210.445 393.862 210.445C369.936 210.439 357.616 193.533 357.616 172.057ZM411.341 163.748C409.766 153.866 403.892 147.557 393.147 147.557C383.117 147.557 377.531 154.006 375.665 163.748H411.341Z" fill="black"/>
<path d="M438.036 135.794H455.658V148.975C458.953 141.526 466.836 135.222 478.438 135.222H479.443V151.713H478.438C460.532 151.713 456.088 164.178 456.088 177.931V208.303H438.036V135.794Z" fill="black"/>
<path d="M486.613 135.795H504.235V147.115C508.246 138.66 516.558 133.932 525.725 133.932C536.9 133.932 544.636 138.803 548.505 147.4C550.886 143.315 554.294 139.923 558.39 137.56C562.486 135.198 567.129 133.947 571.858 133.932C588.619 133.932 597.361 144.249 597.361 161.871V208.289H579.307V165.021C579.307 154.706 575.153 148.69 566.269 148.69C556.678 148.69 551.086 156.427 551.086 169.616V208.289H532.889V165.021C532.889 154.706 528.878 148.69 519.996 148.69C510.254 148.69 504.665 156.427 504.665 169.616V208.289H486.613V135.795Z" fill="black"/>
<path d="M606.645 172.058C606.645 149.85 618.537 133.804 638.737 133.804C649.052 133.804 656.788 138.532 661.66 146.699V135.795H679.284V208.289H661.66V197.401C656.788 205.423 649.052 210.294 638.737 210.294C618.537 210.294 606.645 194.248 606.645 172.058ZM643.035 195.553C654.925 195.553 661.372 185.962 661.372 172.058C661.372 158.153 654.925 148.559 643.035 148.559C631.145 148.559 624.696 158.151 624.696 172.058C624.696 185.965 631.288 195.538 643.035 195.538V195.553Z" fill="black"/>
<path d="M697.881 150.124H686.837V135.795H697.881V116.322H716.075V135.795H730.546V150.124H716.075V208.289H697.881V150.124Z" fill="black"/>
<path d="M733.68 172.058C733.68 149.85 745.57 133.804 765.772 133.804C776.087 133.804 783.824 138.532 788.695 146.699V135.795H806.316V208.289H788.695V197.401C783.824 205.423 776.087 210.294 765.772 210.294C745.57 210.294 733.68 194.248 733.68 172.058ZM770.071 195.553C781.961 195.553 788.407 185.962 788.407 172.058C788.407 158.153 781.961 148.559 770.071 148.559C758.181 148.559 751.731 158.151 751.731 172.058C751.731 185.965 758.32 195.538 770.071 195.538V195.553Z" fill="black"/>
<path d="M850.571 108.001H890.97C909.306 108.001 921.196 118.755 921.196 133.359C921.196 143.674 915.607 151.126 906.871 154.849C918.331 158.145 926.498 167.457 926.498 179.635C926.498 196.399 914.608 208.289 893.975 208.289H850.571V108.001ZM887.82 149.562C896.417 149.562 902.721 144.976 902.721 135.806C902.721 126.637 895.986 122.483 887.674 122.483H869.338V149.562H887.82ZM890.97 193.829C899.997 193.829 907.589 189.246 907.589 178.644C907.589 168.181 899.997 163.315 890.255 163.315H869.329V193.832L890.97 193.829Z" fill="black"/>
<path d="M932.509 172.058C932.509 149.85 944.402 133.804 964.601 133.804C974.916 133.804 982.653 138.532 987.524 146.699V135.795H1005.15V208.289H987.524V197.401C982.653 205.423 974.916 210.294 964.601 210.294C944.402 210.294 932.509 194.248 932.509 172.058ZM968.9 195.553C980.79 195.553 987.236 185.962 987.236 172.058C987.236 158.153 980.79 148.559 968.9 148.559C957.01 148.559 950.56 158.151 950.56 172.058C950.56 185.965 957.152 195.538 968.9 195.538V195.553Z" fill="black"/>
<path d="M1018.37 135.795H1036V147.257C1040.15 138.66 1049.03 133.932 1058.35 133.932C1075.4 133.932 1084.28 144.249 1084.28 161.871V208.289H1066.23V165.021C1066.23 154.706 1061.93 148.69 1052.47 148.69C1042.3 148.69 1036.43 156.427 1036.43 169.616V208.289H1018.37V135.795Z" fill="black"/>
<path d="M1115.3 173.046V208.289H1097.25V108.001H1115.3V165.594L1141.23 135.795H1162.87L1133.35 168.605L1166.73 208.289H1144.53L1115.3 173.046Z" fill="black"/>
<path d="M204.537 123.158L116.255 7.26562L27.9736 123.158C13.0784 142.776 7.26562 159.851 7.26562 178.379C7.26562 206.716 21.4343 232.147 46.8651 249.949L116.255 297.904L185.645 249.949C211.076 232.147 225.245 206.716 225.245 178.379C225.245 159.851 219.432 142.776 204.537 123.158ZM102.086 245.226V262.301L59.5806 233.237C39.5992 219.795 28.3369 199.814 28.3369 179.469C28.3369 168.933 31.2433 158.761 36.3295 149.315C38.5093 155.491 42.1423 161.667 50.1348 170.75L95.1838 220.885C102.45 229.241 102.086 234.327 102.086 245.226ZM68.663 159.851C57.4008 147.499 55.221 140.596 55.221 133.33C55.221 126.427 56.6742 120.251 65.3934 108.989L116.255 42.8689L167.117 108.989C175.473 120.251 177.289 126.427 177.289 133.33C177.289 140.596 175.109 147.499 163.847 159.851L116.255 212.892L68.663 159.851ZM172.93 233.237L130.424 262.301V245.226C130.424 234.327 130.06 229.241 137.326 220.885L182.375 170.75C190.368 161.667 194.001 155.491 196.181 149.315C201.267 158.761 204.173 168.933 204.173 179.469C204.173 199.814 192.911 219.795 172.93 233.237Z" fill="#0064FF"/>
</g>
<defs>
<clipPath id="clip0_988_16">
<rect width="1159.47" height="290.639" fill="white" transform="translate(7.26562 7.26562)"/>
</clipPath>
</defs>
</svg>
