<?xml version="1.0" encoding="utf-8"?>
<!-- Generator: Adobe Illustrator 22.0.0, SVG Export Plug-In . SVG Version: 6.00 Build 0)  -->
<svg version="1.1" id="Layer_1" xmlns="http://www.w3.org/2000/svg" xmlns:xlink="http://www.w3.org/1999/xlink" x="0px" y="0px"
	width="150" height="45" viewBox="0 0 91.9 28" style="enable-background:new 0 0 91.9 28;" xml:space="preserve">
<style type="text/css">
	.st0{fill-rule:evenodd;clip-rule:evenodd;fill:#2085C8;}
	.st1{fill-rule:evenodd;clip-rule:evenodd;fill:#FFFFFF;}
</style>
<g>
	<path class="st0" d="M26.4,14.8c0.4-4-1.4-7.7-3.3-9.8c-1.9-2.1-4.7-4.1-8.8-4.4c-2-0.2-4,0.2-5.7,0.9C6.9,2.1,5,3.4,3.8,4.8
		C3,5.7,2.3,6.6,1.7,7.7c-1.7,3.4-2,7.2-0.6,10.9c0.7,1.8,1.3,2.8,2.5,4.1C4.5,23.8,6,25,7.3,25.6c1.5,0.8,3.1,1.3,5.1,1.5
		c2,0.2,4-0.2,5.7-0.9c1.7-0.7,2.9-1.5,4-2.5c0.3-0.2,0.6-0.6,0.8-0.8C25,20.5,26.1,18.2,26.4,14.8z"/>
	<path class="st1" d="M5.8,10c0.6,0,1.7,1.8,5.5,0.6c0.9-0.3,1.7-0.6,2.5-0.9c1.9-0.7,3.7-1.4,5.6-0.6c0.4,0.1,0.9,0.4,1.1,0.6
		C21.1,9.9,21,10.3,21,11v5.3c0,0.3,0.1,1.5-0.1,1.6c-0.2,0-0.8-0.4-1.2-0.5c-1.4-0.6-3-0.4-4.4,0c-2.6,0.7-5.5,2.4-8.2,1.4
		c-1.6-0.6-1.4-0.8-1.4-2v-5.2C5.7,11.1,5.6,10.2,5.8,10z"/>
	<path class="st0" d="M83,14.8c-0.1-0.5,0-1.4,0-1.9c0-0.6,0.2-1.1,0.4-1.5c1.1-1.9,3.8-1.8,4.9,0c0.3,0.4,0.4,0.9,0.4,1.5
		c0,0.5,0.1,1.5,0,1.9L83,14.8L83,14.8z M83,17.7l5.7,0l0,2.9l2.8,0c0-1.6,0-3.2,0-4.8c0-1.4,0.1-3.3-0.2-4.5
		c-0.6-2.2-2.7-4.1-5.5-4.1c-2.8,0-4.8,2-5.4,4.1c-0.4,1.3-0.2,3.1-0.2,4.5c0,1.6,0,3.2,0,4.8l2.8,0L83,17.7z"/>
	<path class="st0" d="M50.5,14.8c0-0.5,0-1.4,0-1.9c0-1.5,1.2-2.9,2.8-2.9c1.7,0,2.8,1.4,2.8,2.9c0,0.6,0,1.3,0,1.9L50.5,14.8
		L50.5,14.8z M50.5,17.7l5.7,0l0,2.9l2.8,0c0.1-1.6,0-3.2,0-4.8c0-1.4,0.1-3.3-0.2-4.5c-0.6-2.2-2.7-4.1-5.4-4.1
		c-2.8,0-4.8,1.9-5.4,4.1c-0.4,1.2-0.2,3.1-0.2,4.5c0,0.8,0,1.6,0,2.4c0,0.8,0,1.6,0,2.4l2.8,0L50.5,17.7z"/>
	<path class="st0" d="M34.2,10.1c0.6,0,1.7,0,2.3,0c3.4,0.4,4.5,4.9,1.7,6.9c-1.1,0.8-2.6,0.8-4,0.7L34.2,10.1L34.2,10.1z
		 M31.4,20.6c1.5,0,3,0,4.5,0c1.5,0,2.5-0.3,3.6-0.9c4.1-2.4,4.5-8.9,0-11.6c-1-0.6-2.2-0.9-3.6-0.9c-1.5,0-3,0-4.5,0L31.4,20.6z"/>
	<path class="st0" d="M66.7,20.6c0-2.2,0-4.5,0-6.7c0-1.3,0-1.9,0.6-2.8c0.4-0.6,1.2-1.1,2.2-1.1c1.1,0,1.8,0.6,2.2,1.1
		c0.6,0.8,0.6,1.5,0.6,2.8l0,6.7l2.8,0c0-1.6,0-3.2,0-4.8c0-1.4,0.1-3.3-0.2-4.5c-0.6-2.2-2.7-4.1-5.5-4.1c-2.8,0-4.8,2-5.4,4.1
		c-0.4,1.3-0.2,3.1-0.2,4.5l0,4.8L66.7,20.6z"/>
</g>
</svg>
