<?xml version="1.0" encoding="utf-8"?>
<!-- Generator: Adobe Illustrator 23.0.5, SVG Export Plug-In . SVG Version: 6.00 Build 0)  -->
<svg version="1.1" id="Layer_1" xmlns="http://www.w3.org/2000/svg" xmlns:xlink="http://www.w3.org/1999/xlink" x="0px" y="0px"
	width="150" height="34" viewBox="0 0 722 165" style="enable-background:new 0 0 722 165;" xml:space="preserve">
<style type="text/css">
	.st0{fill:#BCBCBC;}
	.st1{fill:#33CC02;}
	.st2{fill:#494949;}
	.st3{fill:#F9CE3E;}
	.st4{fill:#285D32;}
	.st5{fill:#FDFDFD;}
</style>
<g>
	<g>
		<path class="st0" d="M63.77,5.38C67.4,16.77,71.03,28.16,74.7,39.7c-1.92,0.2-2.16-0.71-2.44-1.56
			c-3.28-10.04-6.56-20.07-9.8-30.12C62.2,7.2,62.3,6.26,62.23,5.38C62.75,5.38,63.26,5.38,63.77,5.38z"/>
		<path class="st1" d="M8.17,81.91c0.87,8.8,6.25,12.37,14.87,9.85c17.04-4.97,34.04-10.11,51.06-15.17
			c3.55-1.05,7.08-2.22,10.68-3.02c7.36-1.63,13.92,1.95,16.68,8.88c3.94,9.89,3.94,9.89-6.09,12.94c-4.89,1.49-9.8,2.91-14.67,4.45
			c-6.24,1.98-8.4,6.34-6.46,12.9c1.86,6.32,5.94,8.81,12.17,7.08c7.26-2.01,14.47-4.21,21.66-6.47c1.69-0.53,2.57-0.47,3.01,1.43
			c0.48,2.11,1.3,4.15,1.77,6.27c1.99,9.1-1.88,15.98-10.83,18.71c-19.42,5.92-38.88,11.75-58.36,17.48
			c-9.25,2.72-16.61-1.25-19.39-10.54c-5.7-19.09-11.17-38.25-16.78-57.37C6.75,86.89,6.69,84.58,8.17,81.91z"/>
		<path class="st2" d="M477.88,142.21c-17.09,11.2-38.1,3.09-46.77-13.62c-8.17-15.76-5.52-35.3,6.62-47.66
			c8.49-8.64,22.12-15.26,40.15-6.23c0-4.51,0-8.77,0-13.03c0-6.27,0.07-12.55-0.04-18.82c-0.03-1.99,0.55-2.7,2.59-2.64
			c4.22,0.13,8.45,0.17,12.67-0.01c2.49-0.1,3.25,0.64,3.23,3.22c-0.13,14.59-0.06,29.19-0.06,43.78c0,18.05-0.13,36.1,0.1,54.15
			c0.05,3.87-1.12,4.82-4.71,4.5c-3.56-0.32-7.17-0.24-10.74-0.01C478.38,145.99,477.36,145.13,477.88,142.21z M477.96,108.4
			c0-5.12-0.01-10.23,0.01-15.35c0-1.3-0.09-2.35-1.39-3.27c-8.22-5.79-21.25-3.85-27.33,4.17c-6.2,8.18-6.36,21.15-0.38,29.49
			c6.26,8.71,18.15,10.59,26.85,4.34c1.61-1.15,2.34-2.38,2.28-4.42C477.86,118.38,477.96,113.38,477.96,108.4z"/>
		<path class="st2" d="M314.18,142.59c-20.09,12.72-46.9-0.56-50.55-27.37c-2.38-17.48,5.43-33.25,19.61-40.96
			c9.43-5.13,19.06-5.32,28.68-0.66c2.42,1.17,2.71,0.58,2.69-1.72c-0.07-9.35,0.08-18.7-0.1-28.04c-0.05-2.87,0.73-3.85,3.65-3.66
			c3.83,0.25,7.68,0.19,11.52,0.01c2.47-0.11,3.34,0.6,3.28,3.21c-0.18,7.04-0.06,14.08-0.06,21.13c0,25.74-0.05,51.48,0.07,77.21
			c0.01,3.09-0.62,4.37-3.96,4.09c-3.56-0.3-7.17-0.19-10.75-0.03C315.88,145.93,313.97,145.8,314.18,142.59z M314.81,108.36
			c0-4.99-0.01-9.99,0.01-14.98c0.01-1.42,0.08-2.73-1.51-3.57c-6.67-3.55-13.53-4.81-20.57-1.36c-10.9,5.35-14.85,20.33-8.7,32.4
			c5.39,10.57,18.38,13.82,28.17,7.13c1.85-1.27,2.76-2.66,2.66-5.02C314.67,118.1,314.81,113.23,314.81,108.36z"/>
		<path class="st2" d="M379.93,70.49c21.66,0.19,38.49,17.06,38.49,38.57c0,21.75-17.3,38.68-39.34,38.49
			c-21.46-0.18-38.27-17.35-38.08-38.91C341.18,87.3,358.53,70.3,379.93,70.49z M400.29,109.24c0.08-12.32-9.01-22.39-20.31-22.5
			c-11.58-0.12-21,9.84-21.03,22.22c-0.03,12.13,9.33,22.32,20.56,22.39C390.83,131.42,400.21,121.43,400.29,109.24z"/>
		<path class="st2" d="M548.54,141.65c-8.02,4.82-16.35,6.09-25.05,5.16c-8.82-0.94-16.06-6.99-18.42-15.15
			c-2.58-8.92,0.19-18.23,7.23-23.86c7.26-5.8,15.9-7.25,24.83-7.62c2.94-0.12,5.9-0.22,8.82-0.01c2.66,0.19,2.99-1,2.63-3.18
			c-0.81-4.84-4.62-8.89-9.81-10.15c-7.13-1.73-13.77-0.51-19.57,3.98c-1.89,1.47-2.87,1.35-4.32-0.35c-1.83-2.13-3.76-4.23-5.92-6
			c-2.54-2.09-2.4-3.47,0.22-5.41c10.42-7.71,21.92-10.86,34.68-8.18c14.08,2.95,22.4,13.79,22.9,30.39
			c0.41,13.8,0.09,27.63,0.2,41.44c0.02,2.07-0.69,2.62-2.64,2.56c-4.09-0.12-8.2-0.22-12.28,0.03
			C549.49,145.46,548.31,144.65,548.54,141.65z M540.78,113.47c-4.47,0.06-8.94,0.16-13.08,2.15c-3.92,1.89-5.81,5.01-5.26,8.83
			c0.58,4.06,3.3,6.13,7.07,7.02c4.67,1.11,9.1-0.03,13.43-1.67c5.76-2.18,5.75-2.23,5.75-8.44
			C548.69,113.34,548.69,113.34,540.78,113.47z"/>
		<path class="st2" d="M714.53,121.31c0,6.65-0.25,13.32,0.1,19.95c0.19,3.6-1.07,4.3-4.26,4.05c-3.43-0.27-6.9-0.05-10.36-0.07
			c-1.69-0.01-3.63,0.64-3.71-2.35c-0.04-1.5-1.29-0.57-1.99-0.17c-6.69,3.91-14.03,4.48-21.52,4.12
			c-9.16-0.44-16.08-4.79-19.22-13.38c-3-8.2-2.38-16.4,3.97-23.27c5.7-6.17,13.18-8.5,21.2-9.53c4.96-0.63,9.96-0.7,14.94-0.49
			c2.63,0.11,3.01-0.93,2.55-3.19c-1.12-5.49-4.51-8.78-9.78-10.12c-7.11-1.8-13.76-0.54-19.54,3.99c-1.88,1.47-2.86,1.32-4.33-0.37
			c-2.18-2.51-4.52-4.88-6.96-7.14c-1.47-1.36-1.1-2.12,0.17-3.32c10.03-9.47,28.71-12.87,41.31-7.32
			c12.1,5.33,16.92,15.33,17.34,27.89c0.23,6.9,0.04,13.81,0.04,20.72C714.51,121.31,714.52,121.31,714.53,121.31z M688.66,113.43
			c-7.23,0.17-10.76,0.81-13.78,2.5c-3.29,1.84-5.28,4.53-4.77,8.41c0.5,3.85,3.06,6.06,6.67,7.04c4.65,1.26,9.11,0.21,13.46-1.43
			c6.3-2.37,6.29-2.39,6.29-8.88C696.53,113.24,696.53,113.24,688.66,113.43z"/>
		<path class="st2" d="M207.22,77.54c6.1-4.53,12.26-6.98,19.26-7.06c16.3-0.18,28.09,10.77,28.51,27.24
			c0.38,15.09,0.08,30.2,0.19,45.3c0.02,2.21-0.68,2.88-2.84,2.8c-4.09-0.15-8.2-0.18-12.28,0.01c-2.49,0.12-2.98-0.9-2.96-3.14
			c0.09-11.9,0.06-23.8,0.03-35.71c-0.01-2.3-0.11-4.6-0.26-6.9c-0.44-6.3-3.29-11-9.42-13.15c-5.79-2.03-15.85,0.51-19.38,4.52
			c-1.11,1.26-0.77,2.65-0.77,3.99c-0.03,15.36-0.16,30.72,0.08,46.07c0.06,3.7-1.14,4.58-4.52,4.32
			c-3.56-0.27-7.17-0.18-10.74-0.02c-2.27,0.1-3.11-0.48-3.1-2.95c0.09-22.52,0.1-45.05-0.01-67.57c-0.01-2.7,0.97-3.2,3.32-3.07
			c3.19,0.17,6.4,0.18,9.59,0C205.38,72.03,208.52,71.93,207.22,77.54z"/>
		<path class="st2" d="M594.4,77.11c9.22-6.63,18.44-8.83,28.63-5.82c11.26,3.33,18.82,12.87,19.16,25.48
			c0.41,15.35,0.12,30.73,0.21,46.09c0.01,1.79-0.46,2.48-2.35,2.42c-4.35-0.12-8.71-0.17-13.06,0.01c-2.38,0.1-2.66-0.96-2.65-2.94
			c0.07-12.16,0.04-24.33,0.03-36.49c0-1.15,0.02-2.31-0.01-3.46c-0.2-6.61-1.76-12.75-8.58-15.39c-6.96-2.7-13.53-0.97-19.58,3.23
			c-1.8,1.26-1.72,2.92-1.72,4.73c0.02,15.49-0.06,30.99,0.07,46.48c0.03,2.9-0.55,4.11-3.73,3.87c-3.95-0.3-7.94-0.15-11.9-0.04
			c-1.89,0.05-2.7-0.36-2.69-2.5c0.07-22.79,0.07-45.58,0-68.37c-0.01-2.1,0.77-2.62,2.68-2.57c3.58,0.1,7.18,0.23,10.75-0.03
			C593.23,71.55,595.55,72.14,594.4,77.11z"/>
		<path class="st3" d="M73.51,52.48c2.6,5.05,4.39,10.27,4.13,16.1c-0.11,2.41-0.84,3.74-3.23,4.37c-3.82,1-7.59,2.22-11.36,3.39
			c-1.38,0.43-2.79,1.04-3.52-0.86c-0.89-2.29,1.23-1.62,2.16-2.07c2.99-1.45,4.44-5.1,3.16-8.06c-1.56-3.59-4.41-4.33-8.2-3.25
			c-3.8,1.08-4.12,2.95-2.71,6.04c0.42,0.91,0.57,1.95,0.84,2.93c1.92,7.22,1.92,7.21-5.3,9.32c-4.9,1.43-9.86,2.68-14.66,4.39
			c-2.76,0.98-4.21,0.18-5.64-2.07c-6.19-9.75-6.51-19.6-0.72-29.61c0.57-0.99,1.13-1.99,1.7-2.98c1.28-1.28,2.55-2.55,3.83-3.83
			c1.05-0.74,2.09-1.49,3.14-2.23c11.26-5.9,21.98-4.74,32.22,2.89C64,37.99,45.76,36.2,36.41,43.28c-1.33,0.36-2.46,1-3.06,2.33
			c-1.92,0.65-3.14,2.01-3.87,3.85c-8.06,8.03-8.83,23.81-1.71,34.07c0.57,0.82,2.29,1.79,0.95,2.76c-1.27,0.91-1.79-0.96-2.38-1.77
			c-7.16-9.96-7.13-23.98,0.02-34.59c6.87-10.2,19.76-15.07,32.03-12.11c11.54,2.79,20.78,13.17,22.33,25.13
			c0.74,5.71,0.74,5.77-1.35,8.6c-0.2-7.28-0.37-14.16-5.05-19.77c-0.39-1.33-1.12-2.4-2.35-3.09c-0.32-0.72-1-1.66-1.58-1.13
			c-1.01,0.91,0.09,1.46,0.87,1.88C71.99,50.44,72.75,51.46,73.51,52.48z M45.9,61.38c-4.85,0.34-7.56,1.77-6.45,4.71
			c1.25,3.32,2.1,6.79,3.11,10.2c0.41,1.38,1.1,2.39,2.74,1.78c1.57-0.58,1.1-1.72,0.67-2.85c-0.48-1.24-1.6-2.81,0.24-3.6
			c1.46-0.63,2.58,0.64,3.41,1.85c0.29,0.42,0.59,0.83,0.86,1.27c0.89,1.46,2.07,1.35,3.24,0.47c1.45-1.09-0.26-1.64-0.51-2.46
			c-0.58-1.95-3.37-2.65-2.55-5.55C51.71,63.48,49.73,61.35,45.9,61.38z"/>
		<path class="st2" d="M161.3,108.71c0-11.12,0.07-22.24-0.06-33.36c-0.03-2.44,0.54-3.35,3.13-3.21c4.21,0.22,8.43,0.13,12.65,0.03
			c1.89-0.05,2.7,0.39,2.69,2.51c-0.07,22.88-0.07,45.76,0,68.64c0.01,2.18-0.95,2.52-2.77,2.49c-4.09-0.08-8.19-0.18-12.27,0.03
			c-2.66,0.14-3.47-0.66-3.44-3.38C161.39,131.2,161.3,119.95,161.3,108.71z"/>
		<path class="st4" d="M83.14,118.3c-3.8-0.07-6-2.37-7.17-7.36c-0.91-3.87,0.17-7.19,3.54-8.3c8.96-2.96,18.05-5.54,27.1-8.23
			c1.82-0.54,2.88,0.24,3.38,2.09c0.91,3.32,1.97,6.6,2.91,9.92c0.45,1.61,0.37,3.11-1.6,3.7c-9.05,2.71-18.1,5.41-27.16,8.11
			C83.78,118.32,83.38,118.28,83.14,118.3z M84.33,113.93c2.78-0.08,4.4-1.7,4.48-4.24c0.08-2.55-1.43-4.36-4.19-4.45
			c-2.77-0.09-4.37,1.67-4.47,4.19C80.04,112,81.65,113.63,84.33,113.93z"/>
		<path class="st2" d="M170.18,59.38c-5.22,0-9.5-4.33-9.44-9.52c0.06-5.22,4.4-9.4,9.64-9.31c5.05,0.09,9.18,4.26,9.25,9.32
			C179.7,55.05,175.4,59.38,170.18,59.38z"/>
		<path class="st4" d="M95.26,66.05c-3.11-1.81-6.38-3.03-10.06-2.43c-1.67,0.27-2.26-0.38-2.32-2c-0.04-1.12-0.53-2.22-0.66-3.35
			c-0.14-1.22-1.58-2.63-0.57-3.52c1.14-1.01,2.94-0.36,4.39,0.05c5.12,1.45,8.56,5.77,9.15,11.31L95.26,66.05z"/>
		<path class="st4" d="M17.75,73.32c0.12-0.04,0.34-0.13,0.34-0.12c1.14,2.78,2.35,5.54,3.35,8.37c0.6,1.72-1.17,1.21-1.9,1.63
			c-1.57,0.92-2.97,1.89-3.51,3.82c-0.33,1.2-1.26,1.71-2.27,0.62c-2.25-2.42-2.2-5.35-1.43-8.27
			C13.09,76.5,15.03,74.51,17.75,73.32z"/>
		<path class="st0" d="M22.66,46.29c0.16,0.56,0.05,1.01-0.56,1.19c-0.59,0.17-0.99-0.14-1.23-0.62c-0.22-0.45-0.34-0.96-0.5-1.44
			c-3.2-9.67-6.42-19.33-9.57-29.01c-0.24-0.73-1.16-1.84,0.01-2.34c1.41-0.62,1.66,0.87,1.94,1.73c3.26,9.91,6.46,19.84,9.68,29.77
			C22.5,45.81,22.59,46.05,22.66,46.29z"/>
		<path class="st0" d="M17.62,55.83c-0.02,0.75-0.04,1.31-0.66,1.45c-0.83,0.19-1.17-0.48-1.35-1.05c-0.76-2.3-1.41-4.64-2.16-6.95
			c-1.74-5.35-3.52-10.68-5.26-16.03c-0.25-0.77-1.05-1.86,0.24-2.24c1.13-0.33,1.32,0.9,1.6,1.73c2.41,7.28,4.81,14.56,7.22,21.84
			C17.4,55.07,17.54,55.56,17.62,55.83z"/>
		<path class="st3" d="M57.01,66.96c-0.15-1.48,0.41-2.37,1.8-2.43c2.28-0.11,3.12,1.59,3.31,3.36c0.16,1.5-0.98,2.63-2.53,2.75
			C56.68,70.86,58,68.03,57.01,66.96z"/>
		<path class="st0" d="M62.54,29.7c-2.48-3.28-3.26-7.13-4.55-10.77c-0.19-0.52-0.02-1,0.63-1.13c0.59-0.12,1.03,0.19,1.19,0.69
			C60.97,22.16,62.55,25.73,62.54,29.7z"/>
		<path class="st4" d="M95.2,66.11c0.09,0.03,0.18,0.05,0.27,0.08c-0.07-0.05-0.14-0.1-0.21-0.14C95.26,66.05,95.2,66.11,95.2,66.11
			z"/>
		<path class="st5" d="M477.96,108.4c0,4.99-0.1,9.98,0.05,14.96c0.06,2.04-0.67,3.27-2.28,4.42c-8.7,6.25-20.6,4.37-26.85-4.34
			c-5.99-8.34-5.82-21.3,0.38-29.49c6.07-8.02,19.11-9.96,27.33-4.17c1.3,0.91,1.39,1.96,1.39,3.27
			C477.95,98.17,477.96,103.28,477.96,108.4z"/>
		<path class="st5" d="M314.81,108.36c0,4.87-0.13,9.74,0.06,14.6c0.09,2.36-0.81,3.75-2.66,5.02c-9.79,6.7-22.78,3.44-28.17-7.13
			c-6.15-12.08-2.21-27.05,8.7-32.4c7.04-3.46,13.9-2.2,20.57,1.36c1.59,0.85,1.52,2.15,1.51,3.57
			C314.8,98.37,314.81,103.37,314.81,108.36z"/>
		<path class="st5" d="M400.29,109.24c-0.08,12.19-9.45,22.17-20.78,22.11c-11.23-0.06-20.6-10.26-20.56-22.39
			c0.03-12.39,9.45-22.34,21.03-22.22C391.28,86.86,400.36,96.92,400.29,109.24z"/>
		<path class="st5" d="M540.78,113.47c7.91-0.13,7.91-0.13,7.91,7.9c0,6.2,0.02,6.25-5.75,8.44c-4.32,1.64-8.75,2.78-13.43,1.67
			c-3.77-0.89-6.49-2.97-7.07-7.02c-0.55-3.83,1.34-6.94,5.26-8.83C531.84,113.63,536.31,113.53,540.78,113.47z"/>
		<path class="st5" d="M688.66,113.43c7.87-0.19,7.87-0.19,7.87,7.65c0,6.49,0.01,6.51-6.29,8.88c-4.36,1.64-8.82,2.69-13.46,1.43
			c-3.61-0.98-6.17-3.19-6.67-7.04c-0.51-3.88,1.48-6.57,4.77-8.41C677.9,114.24,681.43,113.6,688.66,113.43z"/>
		<path class="st5" d="M45.9,61.38c3.82-0.03,5.8,2.1,4.75,5.82c-0.82,2.9,1.97,3.6,2.55,5.55c0.24,0.82,1.96,1.37,0.51,2.46
			c-1.17,0.88-2.34,0.99-3.24-0.47c-0.27-0.43-0.57-0.85-0.86-1.27c-0.83-1.21-1.95-2.48-3.41-1.85c-1.84,0.79-0.72,2.36-0.24,3.6
			c0.43,1.13,0.9,2.27-0.67,2.85c-1.64,0.61-2.33-0.4-2.74-1.78c-1.01-3.41-1.86-6.88-3.11-10.2C38.35,63.15,41.05,61.72,45.9,61.38
			z M47.52,66.45c0.06-1.55-0.83-2.28-2.06-2.31c-1.1-0.03-2.54,0.26-2.21,1.83c0.2,0.98,0,2.67,1.35,2.78
			C45.98,68.85,47.21,67.96,47.52,66.45z"/>
		<path class="st5" d="M36.37,43.25c9.36-7.08,27.6-5.29,32.95,3.67c-10.23-7.63-20.96-8.78-32.22-2.89
			C36.86,43.78,36.62,43.52,36.37,43.25z"/>
		<path class="st5" d="M29.44,49.44c0.73-1.84,1.95-3.21,3.87-3.85c0.22,0.23,0.44,0.46,0.65,0.68c-1.28,1.28-2.55,2.55-3.83,3.83
			C29.91,49.88,29.68,49.66,29.44,49.44z"/>
		<path class="st5" d="M71.94,48.66c1.23,0.69,1.96,1.77,2.35,3.09c-0.26,0.24-0.52,0.48-0.78,0.72c-0.76-1.02-1.52-2.04-2.29-3.06
			C71.46,49.16,71.7,48.91,71.94,48.66z"/>
		<path class="st5" d="M37.11,44.04c-1.05,0.74-2.09,1.49-3.14,2.23c-0.22-0.23-0.43-0.45-0.65-0.68c0.6-1.34,1.73-1.97,3.06-2.33
			C36.62,43.52,36.86,43.78,37.11,44.04z"/>
		<path class="st5" d="M71.22,49.42c-0.78-0.43-1.88-0.97-0.87-1.88c0.58-0.53,1.26,0.41,1.58,1.13
			C71.7,48.91,71.46,49.16,71.22,49.42z"/>
		<path class="st5" d="M84.33,113.93c-2.68-0.3-4.29-1.93-4.19-4.5c0.1-2.53,1.7-4.28,4.47-4.19c2.76,0.09,4.28,1.9,4.19,4.45
			C88.73,112.23,87.11,113.85,84.33,113.93z"/>
		<path class="st3" d="M47.52,66.45c-0.31,1.51-1.54,2.4-2.93,2.29c-1.35-0.1-1.15-1.8-1.35-2.78c-0.32-1.57,1.12-1.86,2.21-1.83
			C46.68,64.17,47.58,64.91,47.52,66.45z"/>
	</g>
</g>
</svg>
