<?xml version="1.0" encoding="utf-8"?>
<!-- Generator: Adobe Illustrator 22.0.0, SVG Export Plug-In . SVG Version: 6.00 Build 0)  -->
<svg version="1.1" id="Layer_1" xmlns="http://www.w3.org/2000/svg" xmlns:xlink="http://www.w3.org/1999/xlink" x="0px" y="0px"
	width="75" height="75" viewBox="0 0 31 31" style="enable-background:new 0 0 31 31;" xml:space="preserve">
<style type="text/css">
	.st0{fill:#A0A0A0;}
	.st1{clip-path:url(#SVGID_2_);}
	.st2{fill:#EA601C;}
	.st3{fill:#E31222;}
	.st4{fill:#F59E21;}
	.st5{fill:url(#SVGID_3_);}
	.st6{clip-path:url(#SVGID_5_);}
	.st7{fill:#ED5176;}
	.st8{fill:#BA365F;}
	.st9{fill:#6A7193;}
	.st10{fill:#575B7A;}
	.st11{fill:#C8E7F7;}
	.st12{fill:#8CBCD6;}
	.st13{fill:#FFEB96;}
	.st14{fill:url(#SVGID_6_);}
	.st15{fill:none;}
</style>
<g>
	<defs>
		<rect id="SVGID_4_" x="0.7" y="0.4" width="30" height="30"/>
	</defs>
	<clipPath id="SVGID_2_">
		<use xlink:href="#SVGID_4_"  style="overflow:visible;"/>
	</clipPath>
	<g class="st1">
		<path class="st7" d="M3.7,9.1v17.8c0,0.1,0.1,0.2,0.2,0.2h23.5c0.1,0,0.2-0.1,0.2-0.2V9.1H3.7z"/>
		<g>
			<path class="st8" d="M3.7,15.2h23.9v1.2H3.7V15.2z"/>
			<path class="st8" d="M3.7,9.1h23.9v1.2H3.7V9.1z"/>
			<path class="st8" d="M11.4,9.1v1.2c0,0.9,0.7,1.6,1.6,1.6h6.6c1.1,0,2-0.9,2-2V9.1H11.4z"/>
			<path class="st8" d="M26.4,9.1v17.8c0,0.1-0.1,0.2-0.2,0.2h1.3c0.1,0,0.2-0.1,0.2-0.2V9.1H26.4z"/>
		</g>
		<path class="st9" d="M12.8,19.1v8h5.7v-8c0-0.3-0.2-0.5-0.5-0.5h-4.6C13.1,18.6,12.8,18.8,12.8,19.1z"/>
		<path class="st10" d="M13.6,19.9c0-0.3,0.2-0.5,0.5-0.5h4.4v-0.3c0-0.3-0.2-0.5-0.5-0.5h-4.6c-0.3,0-0.5,0.2-0.5,0.5v8h0.8V19.9z"
			/>
		<path class="st11" d="M2.4,12.8V15c0,0.1,0.1,0.2,0.2,0.2h26.1c0.1,0,0.2-0.1,0.2-0.2v-2.2c0-0.1-0.1-0.2-0.2-0.2H2.6
			C2.5,12.6,2.4,12.7,2.4,12.8z"/>
		<path class="st12" d="M28.7,12.6h-1.3c0.1,0,0.2,0.1,0.2,0.2V15c0,0.1-0.1,0.2-0.2,0.2h1.3c0.1,0,0.2-0.1,0.2-0.2v-2.2
			C29,12.7,28.9,12.6,28.7,12.6z"/>
		<path class="st11" d="M20.3,19.9v4.4c0,0.3,0.2,0.5,0.5,0.5h5c0.3,0,0.5-0.2,0.5-0.5v-4.4c0-0.3-0.2-0.5-0.5-0.5h-5
			C20.5,19.4,20.3,19.6,20.3,19.9z"/>
		<path class="st11" d="M5.2,19.9v4.4c0,0.3,0.2,0.5,0.5,0.5h5c0.3,0,0.5-0.2,0.5-0.5v-4.4c0-0.3-0.2-0.5-0.5-0.5h-5
			C5.4,19.4,5.2,19.6,5.2,19.9z"/>
		<path class="st11" d="M29,7.9v-1H2.4v1c0.7,0,1.2,0.5,1.2,1.2h24.3C27.8,8.5,28.3,7.9,29,7.9z"/>
		<path class="st12" d="M11.4,6.9h10.1v2.2H11.4V6.9z"/>
		<path class="st12" d="M27.7,6.9v1c-0.7,0-1.2,0.5-1.2,1.2h1.3c0-0.7,0.5-1.2,1.2-1.2v-1H27.7z"/>
		<path class="st13" d="M10.6,5.1v4.4c0,0.9,0.7,1.6,1.6,1.6h7c0.9,0,1.6-0.7,1.6-1.6V5.1c0-0.9-0.7-1.6-1.6-1.6h-7
			C11.3,3.6,10.6,4.3,10.6,5.1z"/>
		<path d="M27.6,19.9c-0.2,0-0.4,0.2-0.4,0.4v6.4h-8.3v-7.6c0-0.5-0.4-0.9-0.9-0.9h-4.6c-0.5,0-0.9,0.4-0.9,0.9v7.6H4.1v-6.4
			c0-0.2-0.2-0.4-0.4-0.4s-0.4,0.2-0.4,0.4v6.6c0,0.3,0.3,0.6,0.6,0.6h23.5c0.3,0,0.6-0.3,0.6-0.6v-6.6C28,20.1,27.8,19.9,27.6,19.9
			z M13.2,26.7v-7.6c0-0.1,0.1-0.1,0.1-0.1H18c0.1,0,0.1,0.1,0.1,0.1v7.6H13.2z"/>
		<path d="M25.7,25.1c0.5,0,0.9-0.4,0.9-0.9v-4.4c0-0.5-0.4-0.9-0.9-0.9h-5c-0.5,0-0.9,0.4-0.9,0.9v4.4c0,0.5,0.4,0.9,0.9,0.9H25.7z
			 M20.7,24.3v-4.4c0,0,0-0.1,0.1-0.1h5c0,0,0.1,0,0.1,0.1v4.4c0,0,0,0.1-0.1,0.1L20.7,24.3C20.7,24.3,20.7,24.3,20.7,24.3z"/>
		<path d="M10.6,25.1c0.5,0,0.9-0.4,0.9-0.9v-4.4c0-0.5-0.4-0.9-0.9-0.9h-5c-0.5,0-0.9,0.4-0.9,0.9v4.4c0,0.5,0.4,0.9,0.9,0.9H10.6z
			 M5.6,24.3v-4.4c0,0,0-0.1,0.1-0.1h5c0,0,0.1,0,0.1,0.1v4.4c0,0,0,0.1-0.1,0.1L5.6,24.3C5.6,24.3,5.6,24.3,5.6,24.3z"/>
		<path d="M28.2,9.1c0-0.4,0.3-0.8,0.8-0.8c0.2,0,0.4-0.2,0.4-0.4v-1c0-0.2-0.2-0.4-0.4-0.4h-6.6c-0.2,0-0.4,0.2-0.4,0.4
			c0,0.2,0.2,0.4,0.4,0.4h6.2v0.2c-0.6,0.1-1,0.6-1.1,1.1h-6.3V5.1c0-1.1-0.9-2-2-2h-7c-1.1,0-2,0.9-2,2v1.4H2.4
			C2.1,6.5,2,6.7,2,6.9v1c0,0.2,0.2,0.4,0.4,0.4c0.4,0,0.8,0.3,0.8,0.8c0,0.1,0.1,0.3,0.2,0.3v2.7H2.6c-0.3,0-0.6,0.3-0.6,0.6V15
			c0,0.3,0.3,0.6,0.6,0.6h0.7v3.1c0,0.2,0.2,0.4,0.4,0.4s0.4-0.2,0.4-0.4v-3.1h23.1v3.1c0,0.2,0.2,0.4,0.4,0.4
			c0.2,0,0.4-0.2,0.4-0.4v-3.1h0.7c0.3,0,0.6-0.3,0.6-0.6v-2.2c0-0.3-0.3-0.6-0.6-0.6h-0.7V9.4C28.1,9.4,28.2,9.2,28.2,9.1z M11,5.1
			C11,4.5,11.5,4,12.2,4h7c0.6,0,1.2,0.5,1.2,1.2v4.4c0,0.6-0.5,1.2-1.2,1.2h-7c-0.6,0-1.2-0.5-1.2-1.2L11,5.1L11,5.1z M28.6,14.8
			H2.8V13h25.8V14.8z M4.1,12.2V9.5H9c0.2,0,0.4-0.2,0.4-0.4c0-0.2-0.2-0.4-0.4-0.4H3.9c-0.1-0.6-0.6-1-1.1-1.1V7.3h7.5v2.2
			c0,1.1,0.9,2,2,2h7c1.1,0,2-0.9,2-2v0h6.1v2.7H4.1z"/>
		<path d="M14.1,22.4h-0.3c-0.2,0-0.4,0.2-0.4,0.4s0.2,0.4,0.4,0.4h0.3c0.2,0,0.4-0.2,0.4-0.4S14.3,22.4,14.1,22.4z"/>
		<path d="M12.8,5.6h0.5L13.8,8c0.1,0.5,0.5,0.8,1,0.8h2.4c0.4,0,0.8-0.3,1-0.7l0.8-2.1c0.1-0.2,0-0.4-0.1-0.6
			c-0.1-0.2-0.3-0.3-0.5-0.3h-3.4c-0.2,0-0.4,0.2-0.4,0.4c0,0.2,0.2,0.4,0.4,0.4h3.1l-0.7,1.9C17.3,8,17.3,8,17.2,8h-2.4
			c-0.1,0-0.2-0.1-0.2-0.2l-0.5-2.4c-0.1-0.4-0.4-0.6-0.8-0.6h-0.5c-0.2,0-0.4,0.2-0.4,0.4C12.4,5.4,12.6,5.6,12.8,5.6z"/>
		<path d="M14.9,9.2h-0.1c-0.2,0-0.4,0.2-0.4,0.4c0,0.2,0.2,0.4,0.4,0.4h0.1c0.2,0,0.4-0.2,0.4-0.4C15.3,9.3,15.1,9.2,14.9,9.2z"/>
		<path d="M16.6,9.2h-0.1c-0.2,0-0.4,0.2-0.4,0.4c0,0.2,0.2,0.4,0.4,0.4h0.1c0.2,0,0.4-0.2,0.4-0.4C17,9.3,16.8,9.2,16.6,9.2z"/>
	</g>
</g>
</svg>
