<?xml version="1.0" encoding="utf-8"?>
<!-- Generator: Adobe Illustrator 23.0.5, SVG Export Plug-In . SVG Version: 6.00 Build 0)  -->
<svg version="1.1" id="Layer_1" xmlns="http://www.w3.org/2000/svg" xmlns:xlink="http://www.w3.org/1999/xlink" x="0px" y="0px"
	width="150" height="45" viewBox="0 0 380.24 115.57" style="enable-background:new 0 0 380.24 115.57;" xml:space="preserve">
<style type="text/css">
	.st0{fill-rule:evenodd;clip-rule:evenodd;fill:#006677;}
	.st1{fill-rule:evenodd;clip-rule:evenodd;fill:#FFFFFF;}
	.st2{fill-rule:evenodd;clip-rule:evenodd;fill:#E45300;}
</style>
<g id="Layer_x5F_1">
	<path id="_719543696" class="st0" d="M228.19,3.95h22.71l55.34,74.59V15.31c0-6.39-8.75-11.13-8.75-11.13h28.38
		c0,0-7.45,4.26-7.45,11.01v95.9c0,0-13.13-5.33-23.06-18.83c-9.93-13.5-47.18-62.16-47.18-62.16v64.41c0,4.62,7.8,10.3,7.8,10.3
		h-28.02c0,0,7.8-4.26,7.8-9.95V16.26C235.75,7.73,228.19,3.95,228.19,3.95z M350.31,78.52V15.22c0-6.4-8.8-11.14-8.8-11.14h33.41
		c0,0-7.49,4.27-7.49,11.03v78.76c0,6.05,7.13,11.02,7.13,11.02h-32.1c0,0,7.85-4.86,7.85-9.84V78.52z M159.82,14.15V44.7h14.52
		c6.73,0,16.29-3.55,16.29-15.98c0-12.43-14.16-14.56-19.12-14.56H159.82z M159.82,54.64v39.78h19.12c7.44,0,21.25-6.39,21.25-18.82
		c0-12.43-11.33-20.96-21.95-20.96H159.82z M135.09,4.04h49.07c10.98,0,23.46,9.4,23.46,22.19c0,17.4-13.34,19.77-13.34,19.77
		s23.37,5.68,23.37,28.06c0,22.38-25.5,30.82-34,30.82l-49.2-0.13c0,0,8.48-4.41,8.48-11.87V16.16
		C142.94,8.35,135.09,4.04,135.09,4.04z"/>
	<g id="_719544824">
		<path class="st1" d="M6.03,104.88h100.85V4.04H6.03V104.88z"/>
		<path class="st2" d="M6.03,4.04h31.51c-0.09,0.22-0.32,0.82-0.61,1.91c-1.38,5.33-3.36,20.72,10.47,43.27
			c3.41,5.56,6.72,9.98,10.11,14.31l-10.96,8.76C28.39,50.04,6.03,21.69,6.03,21.69V4.04z M6.03,42.48v62.4l30.56-24.67L15.52,54
			L6.03,42.48z M106.87,36.18c-0.22-0.31-1.16-1.72-2.53-3.13c-4.19-4.3-13.25-11.23-24.16-5.31c-10.08,5.47-15.24,18-2.67,34.57
			c10.33,13.63,19.67,14.96,24.93,14.19c0.91-0.13,3.7-0.81,4.42-1.25V36.18z M106.87,17.9l0-13.87h-56.1
			c-0.06,0.24-0.47,1.09-0.63,2.51c-0.36,3.19-0.49,9.27,1.77,17.89c3.11,11.83,11.75,22.37,11.75,22.37s-0.89-11.76,9.95-22.63
			c6.86-6.88,14.64-9.01,20.94-8.91c2.23,0.03,4.27,0.34,6.03,0.74C101.33,16.18,106.3,17.61,106.87,17.9z M106.87,80.3
			c-0.25,0.21-0.85,0.59-1.87,1.29c-2.75,1.87-8.67,4.64-18.42,3.17c-8.83-1.33-17.28-7.21-25.04-16.37l-11.1,8.9
			c7.83,9.42,13.89,16.96,15.93,18.42c7.66,5.5,12.93,3.41,12.93,3.41l-7.09,5.75h34.67V80.3z M54.56,104.88H16.11l3.14-2.55
			L40.6,85.23c0,0,8.46,10.99,11.79,15.02c0.63,0.76,1.11,1.48,1.47,2.13C54.52,103.54,54.44,104.31,54.56,104.88z"/>
	</g>
</g>
</svg>
