<?xml version="1.0" encoding="utf-8"?>
<!-- Generator: Adobe Illustrator 22.0.0, SVG Export Plug-In . SVG Version: 6.00 Build 0)  -->
<svg version="1.1" id="Layer_1" xmlns="http://www.w3.org/2000/svg" xmlns:xlink="http://www.w3.org/1999/xlink" x="0px" y="0px"
	width="150" height="51" viewBox="0 0 67.1 23.1" style="enable-background:new 0 0 67.1 23.1;" xml:space="preserve">
<style type="text/css">
	.st0{fill:#88898B;}
	.st1{fill:#F8AC5E;}
	.st2{fill:#EB5F27;}
	.st3{fill:#231F20;}
	.st4{fill:#EC1C25;}
	.st5{fill:#243E92;}
	.st6{fill:#E22228;}
	.st7{fill:#FAD701;}
	.st8{fill-rule:evenodd;clip-rule:evenodd;fill:#FFFFFF;}
	.st9{fill-rule:evenodd;clip-rule:evenodd;fill:#FECF22;}
	.st10{fill-rule:evenodd;clip-rule:evenodd;fill:#006AB4;}
	.st11{fill-rule:evenodd;clip-rule:evenodd;fill:#D61627;}
</style>
<g>
	<path class="st8" d="M2,0h62.8c0.5,0,1,0.2,1.4,0.6c0.3,0.3,0.6,0.8,0.6,1.4v18.5c0,0.5-0.2,1-0.6,1.4c-0.3,0.3-0.8,0.6-1.4,0.6H2
		c-0.5,0-1-0.2-1.4-0.6c-0.3-0.3-0.6-0.8-0.6-1.4V1.9c0-0.5,0.2-1,0.6-1.4C1,0.2,1.5,0,2,0z"/>
	<path class="st9" d="M66.1,15.4v4.9c0,0.8-0.6,1.4-1.4,1.4H2.2c-0.8,0-1.4-0.6-1.4-1.4v-4.9c0-0.1,0.1-0.2,0.2-0.2h64.9
		C66,15.2,66.1,15.3,66.1,15.4z"/>
	<path class="st10" d="M66.1,8.1v6.1c0,0.1-0.1,0.2-0.2,0.2H1c-0.1,0-0.2-0.1-0.2-0.2V8.1C0.8,8,0.9,7.9,1,7.9h64.9
		C66,7.9,66.1,8,66.1,8.1z"/>
	<path class="st11" d="M2.2,0.7h62.5c0.8,0,1.4,0.6,1.4,1.4V7c0,0.1-0.1,0.2-0.2,0.2H1C0.9,7.2,0.8,7.1,0.8,7V2.1
		C0.8,1.4,1.5,0.7,2.2,0.7z"/>
	<path class="st8" d="M10.8,5.3c4.4-1.3,8.1-2.1,11.6-2.5c3.2-0.4,6.2-0.5,9.4-0.6v0h1.1h1.2h1.1v0c3.2,0,6.2,0.2,9.3,0.6
		c3.5,0.5,7.2,1.2,11.5,2.5C56.6,5.4,57,5.6,57.4,6C57.8,6.3,58,6.8,58,7.4v3.7v0.2V15c0,0.6-0.2,1.1-0.6,1.4
		c-0.3,0.3-0.8,0.6-1.3,0.7c-4.3,1.3-8,2.1-11.5,2.5c-3.1,0.4-6.1,0.5-9.3,0.6v0h-1.1h0v0l-0.4,0l-0.1,0v0h-0.5v0l-0.6,0v0
		c-3.5,0-6.7-0.1-10-0.6c-3.6-0.4-7.3-1.2-11.8-2.5c-0.5-0.1-0.9-0.4-1.3-0.7C9.1,16,8.9,15.6,8.9,15v-3.7v-0.2V7.4
		c0-0.6,0.2-1.1,0.6-1.4C9.9,5.6,10.3,5.4,10.8,5.3z"/>
	<g>
		<path class="st10" d="M41,13.7c-0.3-0.4,0-1,0.2-1.4c0.2-0.3,0.4-0.7,0.8-0.8c0.1,0,0.2,0.1,0.2,0.2C42.3,12.6,41.7,13.8,41,13.7
			L41,13.7z M26.2,11.6c0.4,0.9-0.8,2.5-1.2,2.1C24.7,13.3,25.4,11.4,26.2,11.6L26.2,11.6z M28.7,13.6l-0.1-0.2
			c0-0.1-0.1-0.1-0.2-0.1c-0.3,0.1-0.8,0.3-1.1,0.3c-0.1,0-0.2-0.1-0.2-0.2c0-0.8,1.3-3.5,1.7-4.7c0-0.1,0-0.2-0.2-0.2l-0.5,0
			c-0.1,0-0.1,0-0.2,0.1c-0.2,0.4-0.6,1.5-0.8,1.9c0,0.1-0.1,0.1-0.2,0.1c-1.4-0.1-2,0.3-2.6,1.1c-1,1.3-0.3,1.4-1,1.9
			c-0.7,0.4-0.6,0.2-0.6,0.1c-0.3-0.2,0.5-1.9,0.6-2.2c0.1-0.5-0.1-0.8-0.6-0.8c-0.4,0-0.7,0.3-1,0.5c-1,0.5-0.1-1.5-2.8,0.4
			c-0.1,0.1-0.2,0.2-0.4,0.2c-0.1,0.1-0.3-0.1-0.3-0.2c0.3-0.6,0.6-1.5,0.8-1.7c0.3-0.7,0.6-1.4,0.8-2.1c0-0.1,0-0.2-0.2-0.2
			c-1.2,0-3.7,0.5-4.6,1.2c-1.6,1.4,0.1,3.3,1.5,2.2c0.1-0.1,0.1-0.3-0.1-0.3c-0.3-0.1-0.6-0.1-0.6-0.5C15.9,9.5,16,9.2,16.3,9
			c0.3-0.2,1.4-0.4,2.1-0.6c0.1,0,0.2,0.1,0.2,0.2c-0.1,0.3-0.2,0.6-0.3,0.8c-0.6,1.6-1.3,4.1-3.4,4.2c-0.9,0-1.3-0.3-1.6-0.9
			c-0.1-0.1-0.3-0.1-0.3,0c-0.1,0.3-0.1,0.6,0,0.9c0.1,0.4,0.4,0.6,0.7,0.8c1.6,0.8,3.1-0.5,4.2-1.4c0.3-0.2,1.3-1.2,1.8-1.1
			c0.1,0,0.1,0.1,0.1,0.1c0.2,0.6-0.5,1.6-0.6,2.3c0,0.1,0.1,0.2,0.2,0.2l0.7,0c0.1,0,0.1,0,0.2-0.1c0.2-0.5,0.3-1,0.5-1.5
			c0.2-0.5,0.4-1.3,0.9-0.9c0,0,0.1,0.1,0.1,0.1c0.1,0.7-0.8,1.9-0.2,2.3c0.5,0.4,1.6-0.3,2-0.5c0.1-0.1,0.2,0,0.3,0.1
			c0.2,0.3,0.2,0.6,0.8,0.7c0.4,0.1,0.8-0.1,1.1-0.3c0.1-0.1,0.2,0,0.3,0.1c0.1,0.1,0.1,0.2,0.4,0.2C26.8,14.6,27.9,13.8,28.7,13.6
			L28.7,13.6z M48.9,12.7c0-0.5,0.4-1.1,0.8-1.3c0.1,0,0.2,0,0.2,0.2c0,0.3-0.2,0.5-0.3,0.7C49.5,12.5,49.3,12.8,48.9,12.7
			L48.9,12.7z M32.9,11.6L32.9,11.6c0,0.1,0.1,0.2,0.2,0.2c0.2-0.1,0.5-0.2,0.7-0.2c0.1,0,0.2,0.1,0.2,0.2c0,0.7-0.7,2-0.9,2.7
			c0,0.1,0.1,0.2,0.2,0.2l0.7,0c0.1,0,0.1,0,0.2-0.1c0.2-0.4,0.4-1.1,0.5-1.5c0.2-0.4,0.3-1.2,0.9-1.1c0.1,0,0.1,0.1,0.1,0.1
			c0.2,0.6-0.5,1.7-0.7,2.4c0,0.1,0.1,0.2,0.2,0.2l0.9,0c0.1,0,0.1,0,0.2-0.1c0.2-0.6,0.4-1.4,0.7-1.9c0.1-0.3,0.3-0.8,0.7-0.7
			c0.5,0.1-0.4,1.1-0.4,2c0,0.4,0.3,0.7,0.7,0.7c0.5,0,1.2-0.6,1.7-0.8c0.1,0,0.2,0,0.2,0.1c0.2,0.4,0.2,0.6,0.7,0.7
			c0.6,0.1,0.9-0.2,1.3-0.4c0,0,0,0,0,0l0.1,0.1c0.1,0.2,0.2,0.3,0.4,0.3c0.9,0.1,2.2-1.3,2.7-2c0.5-0.6,0.4-0.7,0.8-0.7
			c0.1,0,0.2,0.1,0.2,0.2c-0.2,0.7-0.8,1.6-0.2,2.2c0.6,0.6,1.8-0.1,2.3-0.4c0.1,0,0.2,0,0.2,0c0.3,0.4,0.6,0.7,1.4,0.6
			c0.6,0,1-0.3,1.5-0.4c0.1,0,0.2,0,0.2,0.1c0.6,0.8,2.1,0.2,2.6-0.4c0.1-0.2-0.1-0.4-0.2-0.3c-0.2,0.1-0.4,0.3-0.5,0.4
			c-0.4,0.2-0.8,0.1-0.8-0.4c0-0.2,0.5-1.6,0.6-2.1c0-0.1,0.1-0.1,0.2-0.1l0.4,0c0.1,0,0.1-0.1,0.2-0.1l0.1-0.4
			c0-0.1-0.1-0.2-0.2-0.2l0,0c-0.1,0-0.2-0.1-0.2-0.2c0.1-0.6,0.4-1.2,0.6-1.8c0-0.1-0.1-0.2-0.2-0.2l-0.6,0c-0.1,0-0.1,0-0.2,0.1
			l-0.7,1.9c0,0.1-0.1,0.1-0.2,0.1l-0.4,0c-0.1,0-0.1,0.1-0.2,0.1l-0.1,0.4c0,0.1,0.1,0.2,0.2,0.2l0.1,0c0.1,0,0.2,0.1,0.2,0.2
			c-0.2,0.7-0.5,1.6-0.9,2c-0.4,0.5-1.7,0.8-2,0c0-0.1,0-0.2,0-0.2c0.3-0.3,0.9-0.4,1.3-1.2c1.1-2-1.1-2.2-2.1-0.8
			c-0.6,0.8-0.4,1.1-0.4,2c0,0.1,0,0.1-0.1,0.2c-1.1,0.6-1.4,0.7-1.3-0.4c0.1-1.1,0.3-1,0.5-1.2c0.1-0.2,0.2-0.4,0-0.6
			c-0.2-0.2-0.4-0.1-0.7-0.1c-0.1,0-0.1-0.1-0.1-0.1c-0.1-0.3,0-0.4,0.1-0.6c0.1-0.1,0-0.3-0.1-0.3c-0.1,0-0.1,0-0.2,0
			c-0.4-0.1-0.2-0.1-0.3-0.2c0-0.1-0.1-0.1-0.2,0c-0.2,0.1-0.2,0.1-0.3,0.4c-0.3,0.9-0.2,1.1-0.6,1.7c-0.2,0.3-1,1.4-1.6,1.4
			c-0.1,0-0.2-0.1-0.2-0.2c0-0.5,0.6-2,0.9-2.7c0-0.1,0-0.2-0.2-0.2c-0.6,0-0.7,0.1-0.8,0.2c0,0.1-0.1,0.1-0.2,0.1
			c-0.9-0.4-1.4,0-2,0.5c-0.8,0.7-0.9,1.7-1,2c0,0,0,0.1-0.1,0.1c-0.2,0.1-0.7,0.3-1,0.3c-0.1,0-0.2-0.1-0.2-0.2
			c0-0.5,0.6-1.7,0.7-2.2c0.1-0.6-0.2-0.9-0.8-0.7c-0.4,0.1-0.6,0.4-0.9,0.5c-0.1,0-0.1,0-0.2,0c-0.3-0.2-0.3-0.7-0.9-0.5
			c-0.5,0.1-0.5,0.5-1,0.6c0,0,0,0,0,0L35.3,11c0-0.1-0.1-0.2-0.1-0.3c0,0-0.1-0.1-0.1-0.1c-0.5,0-1.4,0.5-2,0.8
			C32.9,11.4,32.9,11.5,32.9,11.6z"/>
		<path class="st11" d="M30.7,11.1c0.4,0,0.7,0.1,0.9,0.4c0.2,0.2,0.4,0.6,0.4,0.9c0,0.4-0.1,0.7-0.4,0.9c-0.2,0.2-0.6,0.4-0.9,0.4
			c-0.4,0-0.7-0.1-0.9-0.4c-0.2-0.2-0.4-0.6-0.4-0.9c0-0.4,0.1-0.7,0.4-0.9C30,11.2,30.4,11.1,30.7,11.1L30.7,11.1z M30.7,9.9
			c-0.7,0-1.3,0.3-1.8,0.7c-0.4,0.4-0.7,1.1-0.7,1.8c0,0.7,0.3,1.3,0.7,1.8c0.4,0.4,1.1,0.7,1.8,0.7c0.7,0,1.3-0.3,1.8-0.7
			c0.4-0.4,0.7-1.1,0.7-1.8c0-0.7-0.3-1.3-0.7-1.8C32,10.2,31.4,9.9,30.7,9.9L30.7,9.9z M32.3,10.9c-0.4-0.4-0.9-0.6-1.6-0.6
			c-0.6,0-1.2,0.2-1.6,0.6c-0.4,0.4-0.6,0.9-0.6,1.6c0,0.6,0.2,1.2,0.6,1.6c0.4,0.4,0.9,0.6,1.6,0.6c0.6,0,1.2-0.2,1.6-0.6
			c0.4-0.4,0.6-0.9,0.6-1.6C32.9,11.8,32.7,11.3,32.3,10.9L32.3,10.9z M30.7,10.5c-0.5,0-1,0.2-1.3,0.6c-0.3,0.3-0.6,0.8-0.6,1.3
			c0,0.5,0.2,1,0.6,1.3c0.3,0.3,0.8,0.6,1.3,0.6c0.5,0,1-0.2,1.3-0.6c0.3-0.3,0.6-0.8,0.6-1.3c0-0.5-0.2-1-0.6-1.3
			C31.7,10.7,31.2,10.5,30.7,10.5L30.7,10.5z M31.9,11.3c-0.3-0.3-0.7-0.5-1.2-0.5c-0.4,0-0.9,0.2-1.2,0.5c-0.3,0.3-0.5,0.7-0.5,1.2
			s0.2,0.9,0.5,1.2c0.3,0.3,0.7,0.5,1.2,0.5c0.4,0,0.9-0.2,1.2-0.5c0.3-0.3,0.5-0.7,0.5-1.2S32.2,11.6,31.9,11.3L31.9,11.3z
			 M31.5,11.7c-0.2-0.2-0.5-0.3-0.7-0.3c-0.3,0-0.6,0.1-0.7,0.3c-0.2,0.2-0.3,0.5-0.3,0.7s0.1,0.6,0.3,0.7c0.2,0.2,0.5,0.3,0.7,0.3
			c0.3,0,0.6-0.1,0.7-0.3c0.2-0.2,0.3-0.5,0.3-0.7S31.7,11.9,31.5,11.7z"/>
	</g>
	<path class="st11" d="M11.1,6.3c8.6-2.6,14.6-3,21.8-3.1v0h1.2v0c7.1,0,13.1,0.5,21.6,3.1c0.6,0.2,1.1,0.5,1.1,1.1v3.7v0.2V15
		c0,0.6-0.5,0.9-1.1,1.1c-8.6,2.5-14.5,3-21.6,3.1v0h0c-0.1,0-0.3,0-0.4,0v0h-0.5v0c-7.3,0-13.3-0.5-22.1-3.1
		C10.5,15.9,10,15.6,10,15v-3.7v-0.2V7.4C10,6.8,10.5,6.5,11.1,6.3L11.1,6.3z M33,4.9c-6.7,0-12.8,0.3-20.7,2.3
		c-0.6,0.2-1,0.7-1,1.3l0,2.5v0.2l0,2.5c0,0.6,0.4,1.2,1,1.3c7.8,2,13.8,2.3,20.5,2.3H34c6.7,0,12.7-0.3,20.5-2.3
		c0.6-0.2,1-0.7,1-1.3v-2.5v-0.2V8.6c0-0.6-0.4-1.2-1-1.3c-7.9-2.1-13.9-2.3-20.7-2.3H33z"/>
</g>
</svg>
