<svg version="1.1" id="Layer_1" xmlns="http://www.w3.org/2000/svg" xmlns:xlink="http://www.w3.org/1999/xlink" x="0px" y="0px"
	 width="100%" viewBox="0 0 500 500" enable-background="new 0 0 500 500" xml:space="preserve">
<path fill="#19A7DF" opacity="1.000000" stroke="none" 
	d="
M27.180504,430.970612 
	C27.120413,428.640381 27.007896,426.310120 27.007738,423.979889 
	C26.999231,299.163788 26.926958,174.347610 27.076519,49.531700 
	C27.099840,30.068481 43.610203,12.379709 63.246887,11.059031 
	C73.317215,10.381744 83.429665,10.048717 93.523338,10.043373 
	C218.506042,9.977213 343.488800,10.000172 468.471527,10.000172 
	C470.444305,10.000172 472.417053,10.000172 474.687927,10.000172 
	C474.808319,11.397846 474.987335,12.506062 474.987396,13.614288 
	C474.994904,151.761856 474.989380,289.909424 474.982452,428.056976 
	C474.982422,428.723297 474.954102,429.389648 474.701416,430.831055 
	C474.034363,433.040375 473.639923,434.486206 473.170135,435.907104 
	C467.575714,452.826721 451.937439,464.995422 435.252533,465.001923 
	C312.341003,465.049805 189.429260,465.109741 66.518578,464.787933 
	C60.207600,464.771393 53.440918,462.192749 47.698082,459.232361 
	C36.377106,453.396576 30.566505,442.909485 27.180504,430.970612 
M315.812988,205.329987 
	C342.106934,185.031799 352.539459,153.731888 343.355804,122.695381 
	C330.210876,78.271530 280.890076,54.695415 236.166916,71.208511 
	C215.537888,78.825340 201.626572,96.112389 183.345062,107.061829 
	C182.645233,107.480988 182.097351,108.158882 181.492340,108.730698 
	C151.245117,137.319000 154.028763,184.733704 187.610611,207.549850 
	C205.384796,219.625961 225.333023,223.657669 246.619370,221.140198 
	C251.375000,220.577744 256.223450,218.858780 260.837555,219.377335 
	C280.770050,221.617416 298.837494,217.229599 315.812988,205.329987 
M205.473770,299.919708 
	C204.957672,295.629395 204.715591,291.284790 203.878586,287.058014 
	C200.010193,267.523346 187.058670,251.485901 162.533981,252.722870 
	C150.910477,253.309158 139.232925,252.823563 127.579849,252.823593 
	C125.826569,252.823593 124.073296,252.823608 121.479568,252.823608 
	C121.479568,263.836823 121.506340,274.126678 121.474518,284.416321 
	C121.380852,314.708466 121.249634,345.000488 121.161629,375.292633 
	C121.110733,392.810883 117.593910,389.496002 137.343155,389.836670 
	C140.099457,389.884216 141.231537,388.520142 141.181915,385.840149 
	C141.117233,382.345490 141.175186,378.848663 141.175964,375.352753 
	C141.177643,367.911865 141.176483,360.470947 141.176483,352.518463 
	C148.817596,352.518463 155.784866,352.597443 162.749847,352.503906 
	C185.193481,352.202576 198.520493,342.187683 203.475357,321.113098 
	C205.017456,314.554047 204.876984,307.599426 205.473770,299.919708 
M365.990448,308.499817 
	C365.990204,314.499481 366.192780,320.510071 365.869293,326.492279 
	C365.768829,328.350067 364.718048,330.766632 363.286865,331.838867 
	C356.319977,337.058258 348.563202,338.979431 340.341156,335.053406 
	C332.377045,331.250488 329.454254,324.392548 329.498474,315.833160 
	C329.593994,297.334625 329.533905,278.835297 329.517212,260.336273 
	C329.515594,258.556885 329.371613,256.777588 329.291046,254.937393 
	C322.478394,254.937393 316.118561,254.937393 309.472931,254.937393 
	C309.472931,276.223541 309.418030,297.046295 309.487152,317.868622 
	C309.569489,342.673767 329.639374,359.903656 354.241333,356.292145 
	C358.079712,355.728638 361.847961,354.687134 367.380676,353.492767 
	C365.471497,359.069214 364.747223,364.021210 362.267914,367.831055 
	C357.233887,375.566620 348.380066,376.026733 340.204773,377.203369 
	C340.204773,384.069489 340.204773,390.625397 340.204773,397.338104 
	C342.748474,397.207336 344.907074,397.173187 347.050354,396.974335 
	C368.628418,394.971985 385.138458,380.259705 385.623596,359.993439 
	C386.456696,325.191864 385.825165,290.355255 385.800659,255.533371 
	C385.800537,255.383087 385.686615,255.232880 385.502411,254.777527 
	C379.210815,254.777527 372.795715,254.777527 365.990448,254.777527 
	C365.990448,272.550629 365.990448,290.025299 365.990448,308.499817 
M254.456589,252.824387 
	C246.935333,253.971573 239.043198,254.043411 231.967896,256.483673 
	C215.883972,262.031006 219.437469,259.493683 222.785248,273.761169 
	C223.778198,277.992920 225.474091,278.647705 229.435242,277.159821 
	C238.369354,273.804016 247.591919,271.588562 257.275269,272.895569 
	C269.075439,274.488342 274.467041,282.152557 272.189209,294.402649 
	C270.776825,294.277161 269.321381,294.215118 267.886536,294.009552 
	C257.595825,292.535034 247.322632,292.007202 237.165192,294.846405 
	C222.595856,298.918823 215.355972,309.152740 216.017136,324.583130 
	C216.628311,338.847137 224.729309,348.212799 239.333435,350.985046 
	C256.504181,354.244568 273.138489,351.695343 289.181274,345.229065 
	C290.871948,344.547607 292.655518,341.602386 292.684570,339.681580 
	C292.951630,322.026276 293.035889,304.362518 292.786438,286.706665 
	C292.527161,268.354370 282.942749,257.288513 264.834442,253.886581 
	C261.741058,253.305435 258.564270,253.168549 254.456589,252.824387 
z"/>
<path fill="#247FC2" opacity="1.000000" stroke="none" 
	d="
M27.103195,431.436035 
	C30.566505,442.909485 36.377106,453.396576 47.698082,459.232361 
	C53.440918,462.192749 60.207600,464.771393 66.518578,464.787933 
	C189.429260,465.109741 312.341003,465.049805 435.252533,465.001923 
	C451.937439,464.995422 467.575714,452.826721 473.170135,435.907104 
	C473.639923,434.486206 474.034363,433.040375 474.641357,431.295349 
	C474.439575,441.555267 475.654449,452.494476 473.315735,462.612305 
	C469.596893,478.701050 455.673401,490.800354 438.006653,492.008850 
	C432.741028,492.369080 427.471497,492.955048 422.203552,492.957520 
	C305.377899,493.012085 188.552109,493.077576 71.726585,492.931061 
	C49.251232,492.902863 32.447613,481.710754 27.647110,458.786621 
	C25.840588,450.159821 27.141569,440.882324 27.103195,431.436035 
z"/>
<path fill="#FBFDFE" opacity="1.000000" stroke="none" 
	d="
M315.526855,205.549896 
	C298.837494,217.229599 280.770050,221.617416 260.837555,219.377335 
	C256.223450,218.858780 251.375000,220.577744 246.619370,221.140198 
	C225.333023,223.657669 205.384796,219.625961 187.610611,207.549850 
	C154.028763,184.733704 151.245117,137.319000 181.492340,108.730698 
	C182.097351,108.158882 182.645233,107.480988 183.345062,107.061829 
	C201.626572,96.112389 215.537888,78.825340 236.166916,71.208511 
	C280.890076,54.695415 330.210876,78.271530 343.355804,122.695381 
	C352.539459,153.731888 342.106934,185.031799 315.526855,205.549896 
M269.996094,147.201721 
	C273.740906,128.370178 267.720428,112.672760 253.107971,103.168549 
	C240.627121,95.050758 224.816589,96.527512 214.041962,106.817436 
	C198.029755,122.109329 198.844589,151.074707 215.717957,166.394684 
	C227.030716,176.666000 242.552963,177.869934 255.309586,169.427185 
	C263.073425,164.288788 267.344543,156.751968 269.996094,147.201721 
M283.511993,208.889999 
	C316.619843,196.998108 336.438934,165.711151 331.926239,131.157272 
	C327.722168,98.966301 297.082550,67.970482 259.423553,74.994835 
	C248.917374,76.954498 239.158493,80.613731 230.332489,87.178871 
	C231.032822,87.628815 231.280716,87.927933 231.525650,87.925545 
	C251.985031,87.726265 268.919678,96.696251 284.008057,109.238716 
	C307.864624,129.069855 314.530548,161.485306 299.814209,187.060791 
	C295.074951,195.297195 287.836121,202.095367 282.214172,208.972397 
	C281.472839,208.937622 282.132690,208.968567 283.511993,208.889999 
M294.808258,149.013336 
	C292.115082,132.885788 287.266327,121.967949 281.331573,119.197807 
	C285.318146,132.408829 285.316681,145.269119 278.673309,157.464142 
	C265.729828,181.224030 233.754929,188.603333 210.583557,173.361969 
	C209.046494,172.350952 207.334122,171.606445 204.597961,170.149353 
	C206.841843,173.992249 208.254791,176.630859 209.868683,179.140228 
	C219.513199,194.136093 232.660263,204.585312 249.959030,209.368530 
	C252.159714,209.977036 255.011322,209.848724 257.105927,208.972717 
	C277.497620,200.444595 297.385895,178.131027 294.808258,149.013336 
M182.832184,179.600418 
	C194.267151,202.296188 218.351547,217.252762 237.326996,213.593658 
	C196.754700,191.730545 183.878326,157.420288 192.374863,113.635986 
	C179.041489,123.818764 170.784073,154.909531 182.832184,179.600418 
z"/>
<path fill="#FCFEFF" opacity="1.000000" stroke="none" 
	d="
M205.490295,300.372803 
	C204.876984,307.599426 205.017456,314.554047 203.475357,321.113098 
	C198.520493,342.187683 185.193481,352.202576 162.749847,352.503906 
	C155.784866,352.597443 148.817596,352.518463 141.176483,352.518463 
	C141.176483,360.470947 141.177643,367.911865 141.175964,375.352753 
	C141.175186,378.848663 141.117233,382.345490 141.181915,385.840149 
	C141.231537,388.520142 140.099457,389.884216 137.343155,389.836670 
	C117.593910,389.496002 121.110733,392.810883 121.161629,375.292633 
	C121.249634,345.000488 121.380852,314.708466 121.474518,284.416321 
	C121.506340,274.126678 121.479568,263.836823 121.479568,252.823608 
	C124.073296,252.823608 125.826569,252.823593 127.579849,252.823593 
	C139.232925,252.823563 150.910477,253.309158 162.533981,252.722870 
	C187.058670,251.485901 200.010193,267.523346 203.878586,287.058014 
	C204.715591,291.284790 204.957672,295.629395 205.490295,300.372803 
M141.164780,316.494141 
	C141.164780,321.614166 141.164780,326.734222 141.164780,331.989075 
	C142.578384,332.206665 143.540054,332.490082 144.498871,332.480652 
	C151.481171,332.412292 158.498810,332.691864 165.436188,332.079041 
	C175.351730,331.203217 181.579681,325.527740 183.939560,315.941406 
	C186.042023,307.400696 186.018646,298.769806 183.831894,290.273773 
	C181.653397,281.809814 176.711853,275.086578 167.809875,273.649811 
	C159.233353,272.265564 150.384628,272.567810 141.164795,272.104462 
	C141.164795,287.276886 141.164795,301.386719 141.164780,316.494141 
z"/>
<path fill="#FAFDFE" opacity="1.000000" stroke="none" 
	d="
M365.990448,307.999878 
	C365.990448,290.025299 365.990448,272.550629 365.990448,254.777527 
	C372.795715,254.777527 379.210815,254.777527 385.502411,254.777527 
	C385.686615,255.232880 385.800537,255.383087 385.800659,255.533371 
	C385.825165,290.355255 386.456696,325.191864 385.623596,359.993439 
	C385.138458,380.259705 368.628418,394.971985 347.050354,396.974335 
	C344.907074,397.173187 342.748474,397.207336 340.204773,397.338104 
	C340.204773,390.625397 340.204773,384.069489 340.204773,377.203369 
	C348.380066,376.026733 357.233887,375.566620 362.267914,367.831055 
	C364.747223,364.021210 365.471497,359.069214 367.380676,353.492767 
	C361.847961,354.687134 358.079712,355.728638 354.241333,356.292145 
	C329.639374,359.903656 309.569489,342.673767 309.487152,317.868622 
	C309.418030,297.046295 309.472931,276.223541 309.472931,254.937393 
	C316.118561,254.937393 322.478394,254.937393 329.291046,254.937393 
	C329.371613,256.777588 329.515594,258.556885 329.517212,260.336273 
	C329.533905,278.835297 329.593994,297.334625 329.498474,315.833160 
	C329.454254,324.392548 332.377045,331.250488 340.341156,335.053406 
	C348.563202,338.979431 356.319977,337.058258 363.286865,331.838867 
	C364.718048,330.766632 365.768829,328.350067 365.869293,326.492279 
	C366.192780,320.510071 365.990204,314.499481 365.990448,307.999878 
z"/>
<path fill="#FCFEFF" opacity="1.000000" stroke="none" 
	d="
M254.941284,252.825409 
	C258.564270,253.168549 261.741058,253.305435 264.834442,253.886581 
	C282.942749,257.288513 292.527161,268.354370 292.786438,286.706665 
	C293.035889,304.362518 292.951630,322.026276 292.684570,339.681580 
	C292.655518,341.602386 290.871948,344.547607 289.181274,345.229065 
	C273.138489,351.695343 256.504181,354.244568 239.333435,350.985046 
	C224.729309,348.212799 216.628311,338.847137 216.017136,324.583130 
	C215.355972,309.152740 222.595856,298.918823 237.165192,294.846405 
	C247.322632,292.007202 257.595825,292.535034 267.886536,294.009552 
	C269.321381,294.215118 270.776825,294.277161 272.189209,294.402649 
	C274.467041,282.152557 269.075439,274.488342 257.275269,272.895569 
	C247.591919,271.588562 238.369354,273.804016 229.435242,277.159821 
	C225.474091,278.647705 223.778198,277.992920 222.785248,273.761169 
	C219.437469,259.493683 215.883972,262.031006 231.967896,256.483673 
	C239.043198,254.043411 246.935333,253.971573 254.941284,252.825409 
M245.045990,311.184570 
	C237.942642,313.985168 235.452972,318.441803 236.785126,325.972015 
	C237.834808,331.905609 241.773987,334.953705 249.231262,334.756866 
	C254.675415,334.613129 260.155609,334.025757 265.518982,333.070374 
	C272.881012,331.759003 272.840454,331.529724 272.840515,323.876190 
	C272.840515,321.220093 273.205109,318.490967 272.695862,315.936188 
	C272.405853,314.481262 270.771881,312.275787 269.598389,312.179962 
	C261.702332,311.535126 253.767487,311.365204 245.045990,311.184570 
z"/>
<path fill="#1BA8DF" opacity="1.000000" stroke="none" 
	d="
M269.919495,147.613083 
	C267.344543,156.751968 263.073425,164.288788 255.309586,169.427185 
	C242.552963,177.869934 227.030716,176.666000 215.717957,166.394684 
	C198.844589,151.074707 198.029755,122.109329 214.041962,106.817436 
	C224.816589,96.527512 240.627121,95.050758 253.107971,103.168549 
	C267.720428,112.672760 273.740906,128.370178 269.919495,147.613083 
z"/>
<path fill="#1CA8DF" opacity="1.000000" stroke="none" 
	d="
M283.152283,208.944763 
	C282.132690,208.968567 281.472839,208.937622 282.214172,208.972397 
	C287.836121,202.095367 295.074951,195.297195 299.814209,187.060791 
	C314.530548,161.485306 307.864624,129.069855 284.008057,109.238716 
	C268.919678,96.696251 251.985031,87.726265 231.525650,87.925545 
	C231.280716,87.927933 231.032822,87.628815 230.332489,87.178871 
	C239.158493,80.613731 248.917374,76.954498 259.423553,74.994835 
	C297.082550,67.970482 327.722168,98.966301 331.926239,131.157272 
	C336.438934,165.711151 316.619843,196.998108 283.152283,208.944763 
z"/>
<path fill="#1DA8DF" opacity="1.000000" stroke="none" 
	d="
M294.833313,149.467834 
	C297.385895,178.131027 277.497620,200.444595 257.105927,208.972717 
	C255.011322,209.848724 252.159714,209.977036 249.959030,209.368530 
	C232.660263,204.585312 219.513199,194.136093 209.868683,179.140228 
	C208.254791,176.630859 206.841843,173.992249 204.597961,170.149353 
	C207.334122,171.606445 209.046494,172.350952 210.583557,173.361969 
	C233.754929,188.603333 265.729828,181.224030 278.673309,157.464142 
	C285.316681,145.269119 285.318146,132.408829 281.331573,119.197807 
	C287.266327,121.967949 292.115082,132.885788 294.833313,149.467834 
z"/>
<path fill="#1EA9E0" opacity="1.000000" stroke="none" 
	d="
M182.647461,179.270142 
	C170.784073,154.909531 179.041489,123.818764 192.374863,113.635986 
	C183.878326,157.420288 196.754700,191.730545 237.326996,213.593658 
	C218.351547,217.252762 194.267151,202.296188 182.647461,179.270142 
z"/>
<path fill="#1DA9E0" opacity="1.000000" stroke="none" 
	d="
M141.164795,315.995331 
	C141.164795,301.386719 141.164795,287.276886 141.164795,272.104462 
	C150.384628,272.567810 159.233353,272.265564 167.809875,273.649811 
	C176.711853,275.086578 181.653397,281.809814 183.831894,290.273773 
	C186.018646,298.769806 186.042023,307.400696 183.939560,315.941406 
	C181.579681,325.527740 175.351730,331.203217 165.436188,332.079041 
	C158.498810,332.691864 151.481171,332.412292 144.498871,332.480652 
	C143.540054,332.490082 142.578384,332.206665 141.164780,331.989075 
	C141.164780,326.734222 141.164780,321.614166 141.164795,315.995331 
z"/>
<path fill="#1FA9E0" opacity="1.000000" stroke="none" 
	d="
M245.445587,311.113007 
	C253.767487,311.365204 261.702332,311.535126 269.598389,312.179962 
	C270.771881,312.275787 272.405853,314.481262 272.695862,315.936188 
	C273.205109,318.490967 272.840515,321.220093 272.840515,323.876190 
	C272.840454,331.529724 272.881012,331.759003 265.518982,333.070374 
	C260.155609,334.025757 254.675415,334.613129 249.231262,334.756866 
	C241.773987,334.953705 237.834808,331.905609 236.785126,325.972015 
	C235.452972,318.441803 237.942642,313.985168 245.445587,311.113007 
z"/>
</svg>