<?xml version="1.0" encoding="utf-8"?>
<!-- Generator: Adobe Illustrator 23.0.5, SVG Export Plug-In . SVG Version: 6.00 Build 0)  -->
<svg version="1.1" id="Layer_1" xmlns="http://www.w3.org/2000/svg" xmlns:xlink="http://www.w3.org/1999/xlink" x="0px" y="0px"
	width="150" height="61" viewBox="0 0 64 26" style="enable-background:new 0 0 64 26;" xml:space="preserve">
<style type="text/css">
	.st0{fill-rule:evenodd;clip-rule:evenodd;fill:#412A8B;}
</style>
<path class="st0" d="M11.19,3.19c5.63,0,10.19,4.62,10.19,10.31c0,5.7-4.56,10.31-10.19,10.31C5.56,23.82,1,19.21,1,13.51
	C1,7.81,5.56,3.19,11.19,3.19L11.19,3.19z M11.19,7.06c-3.52,0-6.38,2.89-6.38,6.45s2.86,6.45,6.38,6.45c3.52,0,6.38-2.89,6.38-6.45
	S14.72,7.06,11.19,7.06L11.19,7.06z M52.81,3.19C58.44,3.19,63,7.81,63,13.51c0,5.7-4.56,10.31-10.19,10.31
	c-5.63,0-10.19-4.62-10.19-10.31C42.61,7.81,47.18,3.19,52.81,3.19L52.81,3.19z M52.81,7.06c-3.52,0-6.38,2.89-6.38,6.45
	s2.86,6.45,6.38,6.45s6.38-2.89,6.38-6.45S56.33,7.06,52.81,7.06L52.81,7.06z M23.74,7.2l6.19,13.9c0.12,0.27,1.07,2.64,4.02,2.51
	l7.52-17.58V3.9h-6.43V7.2h2.06l-4.38,10.74L27.86,7.2h2.17V3.9h-8.15V7.2H23.74z"/>
<g>
</g>
<g>
</g>
<g>
</g>
<g>
</g>
<g>
</g>
<g>
</g>
<g>
</g>
<g>
</g>
<g>
</g>
<g>
</g>
<g>
</g>
<g>
</g>
<g>
</g>
<g>
</g>
<g>
</g>
</svg>
