<?xml version="1.0" encoding="utf-8"?>
<!-- Generator: Adobe Illustrator 23.0.5, SVG Export Plug-In . SVG Version: 6.00 Build 0)  -->
<svg version="1.1" id="maybank" xmlns="http://www.w3.org/2000/svg" xmlns:xlink="http://www.w3.org/1999/xlink" x="0px" y="0px"
	width="76" height="75" viewBox="0 0 509 500" style="enable-background:new 0 0 509 500;" xml:space="preserve">
<style type="text/css">
	.Arched_x0020_Green{fill:url(#SVGID_1_);stroke:#FFFFFF;stroke-width:0.25;stroke-miterlimit:1;}
	.st0{fill:#FABC19;}
	.st1{fill:none;}
	.st2{fill:#623D39;}
	.st3{fill:#ED1B2E;}
</style>
<linearGradient id="SVGID_1_" gradientUnits="userSpaceOnUse" x1="-121" y1="576.2803" x2="-120.2929" y2="575.5732">
	<stop  offset="0" style="stop-color:#20AC4B"/>
	<stop  offset="0.9831" style="stop-color:#19361A"/>
</linearGradient>
<g>
	<g>
		<rect x="11.81" y="372.3" class="st0" width="485.5" height="116.11"/>
		<g>
			<g>
				<polygon points="170.08,456.91 183.33,420.75 187.66,456.91 201.66,456.91 194.08,403.79 176.99,403.79 165.68,435.71 
					154.37,403.79 137.29,403.79 129.7,456.91 143.7,456.91 148.04,420.75 161.29,456.91 				"/>
				<polygon points="243.66,417.41 261.66,456.91 254.54,472.41 270.04,472.41 294.79,417.41 278.79,417.41 269.29,445.04 
					259.66,417.41 				"/>
				<polygon points="481.66,456.87 465.29,435.75 480.2,417.41 463.54,417.41 450.29,434.66 450.29,399.41 435.79,399.41 
					435.79,456.87 450.29,456.87 450.29,436.87 465.16,456.87 				"/>
				<g>
					<path class="st1" d="M311.87,426.97v20.78c2.66,0.72,13.58,2.83,13.58-10.92C325.45,423.32,314.81,425.98,311.87,426.97z"/>
					<path d="M297.12,454.88c0,0,7.67,2.87,18.42,2.87s24.75-3.33,24.75-21.83s-18.58-19.17-20.75-19.17c-4.09,0-6.71,1.11-7.67,1.6
						v-19.02h-14.75V454.88z M311.87,447.75v-20.78c2.94-0.99,13.58-3.65,13.58,9.86C325.45,450.59,314.53,448.47,311.87,447.75z"/>
				</g>
				<g>
					<path class="st1" d="M369.37,438.66c-2.96,0-13.75,0.41-13.75,6.09c0,5.28,10.67,4.39,13.75,4.03
						C369.37,447.18,369.37,442.82,369.37,438.66z"/>
					<path d="M348.2,427.41c21.17-6.25,21.17,1.25,21.17,2.25c0,0.14,0,0.62,0,1.34c-17.13,0.14-27.33,5.04-27.33,13.91
						c0,9,9.5,12.92,22.08,12.92s19-2.92,19-2.92s0-15.92,0-24.58c0-8.67-5.58-14.17-19-14.17s-19.25,3.17-19.25,3.17L348.2,427.41z
						 M355.62,444.75c0-5.68,10.79-6.09,13.75-6.09c0,4.16,0,8.52,0,10.12C366.28,449.14,355.62,450.02,355.62,444.75z"/>
				</g>
				<g>
					<path class="st1" d="M230.87,438.66c-2.96,0-13.75,0.41-13.75,6.09c0,5.28,10.67,4.39,13.75,4.03
						C230.87,447.18,230.87,442.82,230.87,438.66z"/>
					<path d="M209.7,427.41c21.17-6.25,21.17,1.25,21.17,2.25c0,0.14,0,0.62,0,1.34c-17.13,0.14-27.33,5.04-27.33,13.91
						c0,9,9.5,12.92,22.08,12.92c12.58,0,19-2.92,19-2.92s0-15.92,0-24.58c0-8.67-5.58-14.17-19-14.17
						c-13.42,0-19.25,3.17-19.25,3.17L209.7,427.41z M217.12,444.75c0-5.68,10.79-6.09,13.75-6.09c0,4.16,0,8.52,0,10.12
						C227.78,449.14,217.12,450.02,217.12,444.75z"/>
				</g>
				<path d="M415.7,456.83h14.58v-25c0-13-9.33-15.75-20.83-15.75s-20.75,3.17-20.75,3.17v37.58h14.58v-29.89
					c11.21-3.28,12.42,2.12,12.42,4.72V456.83z"/>
			</g>
			<g>
				<circle class="st0" cx="71.72" cy="430.35" r="40.56"/>
				<path d="M71.72,389.79c22.4,0,40.56,18.16,40.56,40.56c0,22.4-18.16,40.56-40.56,40.56c-22.4,0-40.56-18.16-40.56-40.56
					C31.16,407.95,49.32,389.79,71.72,389.79 M71.72,386.09c-24.41,0-44.26,19.86-44.26,44.26c0,24.41,19.86,44.26,44.26,44.26
					c24.41,0,44.26-19.86,44.26-44.26C115.99,405.94,96.13,386.09,71.72,386.09L71.72,386.09z"/>
				<g>
					<path class="st1" d="M41.37,429.66c0.17-0.29,1.46-1.08,1.38-1.33c-0.09-0.28-0.71-0.42-1.29-0.25s-2.5,1.08-2.21,1.58
						s2,3.04,2.96,3.04s0.71-1,0.38-1.42C42.39,431.05,41.2,429.95,41.37,429.66z"/>
					<path class="st1" d="M62.7,415.25c0.83-1.04,1.21-1.46,1.38-1.42c0,0-1.48-0.08-2.13-0.04c0.21,0.18,0.34,0.43,0.34,0.73
						c0,0.54-0.44,0.98-0.98,0.98c-0.09,0-0.16-0.03-0.24-0.05l0.01,0.05C61.08,415.5,61.87,416.29,62.7,415.25z"/>
					<path class="st1" d="M52.16,439.42c-0.31,0.1-0.77,0.32-1.37,0.78c-0.23,0.18-0.49,0.35-0.76,0.51
						c0.67,1.38,2.29,2.42,2.29,2.42C52.04,441.85,52.1,440.3,52.16,439.42z"/>
					<path class="st1" d="M66.66,441c-0.04-0.79-2.5-1.04-2.5-1.04s0.71,2.29,0.63,2.63c-0.08,0.33-2.04,0.25-2.04,0.25
						c0.08,0.67-0.46,2.25-0.46,2.25C65.29,443.79,66.7,441.79,66.66,441z"/>
					<path class="st1" d="M55.44,447.16c0,0,0.5,2.06,1.06,2.25s0.63-0.81,1.41-1.56C57.91,447.85,56.25,447.82,55.44,447.16z"/>
					<path d="M52.66,414.85c0,0,0.94-3.69,2.44-4.94s6.9-4.81,14.69-7.31c0.93-0.3,2,0.04,2.05,0.06c-0.05,0.31-0.08,0.51-0.1,0.59
						c-0.1,0.58-0.54,0.96-0.54,0.96c1.58,0.21,2.63-0.92,2.92-2.21c0.29-1.29,1.29-6.41,2.92-6.33c4.54,0.21,7.79,14.88,7.46,15.54
						c-0.22,0.44-2,0.08-2,0.08c2.83,4.46,6.54,4.42,7.38,3.71c0.83-0.71,0.38-3,0.38-3c8.92,5.29,8.42,11.58,8.42,11.58
						c2.67-10.42-3.5-14.88-3.5-14.88c2.42-0.08,5.04,1.46,5.04,1.46c-3.75-5.04-11.5-7.83-11.5-7.83s-9.04-10.04-11.96-9.67
						c-2.42,0.31-3.8,4.75-4.47,7.78c-0.33-0.03-0.97-0.05-1.79,0.04c-0.64-0.79-3.35-4.01-4.4-2.95c-0.41,0.41-0.54,3.3-0.57,4.52
						c-4.38,1.74-11.83,5.02-13.34,7.42c-1.38,2.19-1.69,3.81-1.69,3.81s-8.94,5.75-11.12,12
						C39.35,425.29,45.35,418.29,52.66,414.85z"/>
					<path d="M81.41,410.2c-0.13-4.63-2.42-8.33-3.58-8.54c-1.17-0.21-1.54,4.21-1.54,4.21C79.37,407.91,81.41,410.2,81.41,410.2z"
						/>
					<path d="M59.45,409.37c-1.79,1.08-1,2-1,2s-0.29-0.92,1.92-1.54c3.94-1.11,7.5-2.25,7.42-3.21c-0.08-0.96-2.75-1.33-2.75-1.33
						C65.79,406.29,61.24,408.29,59.45,409.37z"/>
					<path d="M58.16,419.95c0,0,1.13-2.62,1.96-2.96c0,0,1.46,0.38,2.25,0.08c0.79-0.29,2.29-2.29,2.88-2.33
						c0,0-1.54,6.71-7.79,6.58c0,0,4.5,2.54,6.79,0.75c2.29-1.79,0.54-3.17,3.5-6.04s1-3,0.88-2.96s-1.04-0.25-1.04-0.25
						s0.42-0.54,1.25-0.92c0.83-0.38,5.63-2.54,5.71-3.83c0.08-1.29-3.46-2.75-5.25-2.71c0,0,1.62,0.67,1.54,1.58
						s-4.75,2.96-4.75,5.58c0,0-1.67,0.13-2.88-0.13s-2.5-0.13-3.83,0.75s-1.42-1.08-1.29-1.33c0,0-2.58,1.63,0.67,3.71
						c0,0-1.33,1.38-1.46,1.71C57.16,417.58,56.62,419.37,58.16,419.95z M61.31,415.5c0.54,0,0.98-0.44,0.98-0.98
						c0-0.29-0.14-0.55-0.34-0.73c0.65-0.04,2.13,0.04,2.13,0.04c-0.17-0.04-0.54,0.38-1.38,1.42c-0.83,1.04-1.63,0.25-1.63,0.25
						l-0.01-0.05C61.14,415.47,61.22,415.5,61.31,415.5z"/>
					<path d="M54.04,428.54c0,0-0.06-2.38-2.25-1.88c-3.68,0.84-4.94,7.38-4.94,7.38C50.97,426.41,54.04,428.54,54.04,428.54z"/>
					<path d="M55.41,434.35c2-3.25-0.44-5.31-3.56-3.56s-3.88,5.94-3.88,5.94C54.16,429.98,55.41,434.35,55.41,434.35z"/>
					<path d="M47.41,428.29c2.25-3.63,4.81-3.56,4.81-3.56C49.16,422.48,47.41,428.29,47.41,428.29z"/>
					<path d="M84.91,430.16c0,0-2.25-2-2-5.69s0.94-9.25-5.31-13.13c0,0,2.56,3.94,1.63,7.81s-4.07,10.49-3.81,12.69
						c0.56,4.81,5.56,5.69,5.19,12.25c0,0,2.94-3.56,2.38-7.75s-4.25-6-2.63-9.31C80.35,427.04,82.22,429.79,84.91,430.16z"/>
					<path d="M102.9,412.72c0,0,5.46,14.86-0.7,28.35c0,0,0.35-1.96-1.17-5.83c-1.63-4.15-1.08-9.5-0.42-10.5c0,0-3,3-2.83,8
						s1.5,19.08-8.67,24.33c0,0,3.85-7.04,2.42-15.29c0,0,1.31,0.5,2,2.25c0,0,2.75-7.25-0.81-16.13c0,0,2,0.38,3.25,1.44
						c0,0,1.31-6.35-5.88-10.81c-1.81-1.13-1.56-1.75-1.56-1.75s-0.56,1.44,0.63,2.88s2.81,4.25,2.56,5.69c0,0-1.94-1.38-4.75-1
						c0,0,5.38,4.56,4.56,14.38c0,0-1.38-1.5-4.88-2.13c0,0,3.94,7.38,0.44,14.44c0,0-0.25-2.5-1.38-4.06c0,0-0.88,5.19-7.13,7
						c0,0,5.06-6.31-0.94-9.5s-11.06,3.88-12.06,10.06c0,0-6.94,0.5-7.63-2.31s1.31-4,1.31-4s1.06,0.69,3.5-0.44
						c2.44-1.13,7.56-4.19,7.06-8.06s-6.56-7.69-11.38-6.13s-7.56,5.81-10.06,5.75s-5.56-3.88-5.12-5.88s2.06-2.56,2.62-5.94
						c0,0-0.88,0.08-1.46-0.29c-0.58-0.38-2.12-1-2.96-0.79c-0.83,0.21-2.88,1.58-2.96,1.33s0.21-1.75,0.21-1.75
						s-2.25,2.38-1.92,3.33c0.33,0.96,2.29,3.33,4.33,4.67c0,0,0.38,2.92,3.04,5.63c1.59,1.62,3.08,1.91,4.35,1.64
						c0.54,0.79,2.36,3.19,5.27,3.71c0,0-0.5-3.35-0.14-5.88c0.12-0.06,0.23-0.12,0.32-0.21c0.46-0.46,5.79-5.38,9.75-0.63
						c0,0-1.79,0.67-2.5,2.92s-1.13,7.83-7,4.25c0,0-0.5,3.21,1.29,5.13c0,0-0.25,3.42,3.63,5.29s6.58,0.46,9.08,1.71
						c0,0-0.25-5.13,1.88-8.25s5.13-4.17,6.58-2.96c1.46,1.21,2.38,5.79-3.25,10.54c0,0,6.46,0.83,10.88-2.54c0,0-0.55,5.95-5.01,11
						c16.15-3.47,28.21-17.83,28.21-35.02C107.54,423.94,105.85,417.93,102.9,412.72z M42.2,432.7c-0.96,0-2.67-2.54-2.96-3.04
						s1.63-1.42,2.21-1.58s1.2-0.03,1.29,0.25c0.08,0.25-1.21,1.04-1.38,1.33c-0.17,0.29,1.02,1.39,1.21,1.63
						C42.91,431.71,43.16,432.7,42.2,432.7z M50.03,440.71c0.27-0.16,0.52-0.33,0.76-0.51c0.61-0.46,1.07-0.68,1.37-0.78
						c-0.06,0.88-0.12,2.43,0.16,3.71C52.32,443.13,50.7,442.1,50.03,440.71z M62.74,442.83c0,0,1.96,0.08,2.04-0.25
						c0.08-0.33-0.63-2.63-0.63-2.63s2.46,0.25,2.5,1.04c0.04,0.79-1.38,2.79-4.38,4.08C62.29,445.08,62.83,443.5,62.74,442.83z
						 M56.5,449.41c-0.56-0.19-1.06-2.25-1.06-2.25c0.81,0.66,2.47,0.69,2.47,0.69C57.13,448.6,57.07,449.6,56.5,449.41z"/>
					<path d="M76.95,414.12c0,0-4.21-2.37-6.08,0.08c-1.76,2.31-0.62,6.28-1.65,8.75c-0.03-0.03-0.07-0.06-0.1-0.09
						c-2.33-2.08-5.21,1.46-5.75,2.5c-0.54,1.04-1.25,1.17-1.25,1.17c-5.13,1.04-4.04-3.08-5.75-4.33
						c-1.71-1.25-4.58,0.58-4.58,0.58c2.88-0.54,3.54,1.46,3.46,2.25c-0.08,0.79,0.5,3.13,1.29,4.42c0.79,1.29,4,0.38,6.63,0.58
						c2.63,0.21,4.13,3.42,4.13,3.42c1.58-3.83-2.67-5.58-2.67-5.58s1.24-2.35,2.71-1.54c4.67,2.58,3.5,13.04,3.5,13.04
						c4.02-7.56,2.25-11.99,0.15-14.59C71.25,422.42,72.44,415,76.95,414.12z"/>
				</g>
			</g>
		</g>
	</g>
	<g>
		<path class="st2" d="M228.74,166.76c-9.19-23.74-39.33-62.08-93.23-58.19c-34.4,2.48-54.83,24.12-63.14,35.21V14.47H11.81v336.29
			h60.56V194.07c4.43-7.56,12.82-19.88,25.75-31.19c19.42-16.97,46.46-14.49,63.17-0.65c24.22,20.05,29.57,60.78,23.74,92.79
			c-6.56,36.05-30.64,54.2-57.47,59.56c-26.83,5.36-46-0.76-46-0.76s8.31,23.41,34.03,33.33c16.69,6.45,57.78,3.39,84.49-19.88
			c24.95-21.74,34.73-40.97,39.82-77.1C244.27,219.13,236.99,188.1,228.74,166.76L228.74,166.76z"/>
		<path class="st2" d="M293.8,121.18h59.23v172.63c0,0-0.97,24.25,3.4,30.06c4.37,5.82,13.6,6.79,13.6,6.79s-13.89,25.87-47.1,23.27
			c-24.76-1.94-28.16-21.82-28.16-38.31c0-46.44,0-17.53,0-193.48L293.8,121.18L293.8,121.18z"/>
		<path class="st2" d="M420.53,121.18h59.23v172.63c0,0-0.97,24.25,3.4,30.06c4.38,5.82,13.6,6.79,13.6,6.79
			s-13.89,25.87-47.1,23.27c-24.76-1.94-28.16-21.82-28.16-38.31c0-46.44,0-17.53,0-193.48L420.53,121.18L420.53,121.18z"/>
		<path class="st3" d="M326.82,67.36V47.47h44.06c-4.55-20.52-22.86-35.88-44.78-35.88c-25.35,0-45.89,20.52-45.89,45.83
			c0,25.31,20.54,45.83,45.89,45.83c21.92,0,40.24-15.36,44.79-35.89H326.82L326.82,67.36z"/>
		<path class="st3" d="M448.94,11.59c-21.92,0-40.24,15.36-44.79,35.88h44.06v19.88h-44.06c4.54,20.53,22.87,35.89,44.79,35.89
			c25.34,0,45.89-20.52,45.89-45.83C494.82,32.11,474.28,11.59,448.94,11.59L448.94,11.59z"/>
	</g>
</g>
<g>
</g>
<g>
</g>
<g>
</g>
<g>
</g>
<g>
</g>
<g>
</g>
</svg>
