<?xml version="1.0" encoding="utf-8"?>
<!-- Generator: Adobe Illustrator 22.0.0, SVG Export Plug-In . SVG Version: 6.00 Build 0)  -->
<svg version="1.1" id="Layer_1" xmlns="http://www.w3.org/2000/svg" xmlns:xlink="http://www.w3.org/1999/xlink" x="0px" y="0px"
	width="75" height="75" viewBox="0 0 30 30" style="enable-background:new 0 0 30 30;" xml:space="preserve">
<style type="text/css">
	.st0{fill:#A0A0A0;}
	.st1{clip-path:url(#SVGID_2_);}
	.st2{fill:#EA601C;}
	.st3{fill:#E31222;}
	.st4{fill:#F59E21;}
	.st5{fill:url(#SVGID_3_);}
	.st6{clip-path:url(#SVGID_5_);}
	.st7{fill:#ED5176;}
	.st8{fill:#BA365F;}
	.st9{fill:#6A7193;}
	.st10{fill:#575B7A;}
	.st11{fill:#C8E7F7;}
	.st12{fill:#8CBCD6;}
	.st13{fill:#FFEB96;}
	.st14{fill:url(#SVGID_6_);}
	.st15{fill:none;}
</style>
<g>
	<defs>
		<rect id="SVGID_1_" x="0.1" y="-0.1" width="30" height="30"/>
	</defs>
	<clipPath id="SVGID_2_">
		<use xlink:href="#SVGID_1_"  style="overflow:visible;"/>
	</clipPath>
	<g class="st1">
		<g>
			<path d="M9.7,27.1c0-0.3,0.2-0.5,0.5-0.5c0.3,0,0.5,0.2,0.5,0.5c0,0.3-0.2,0.5-0.5,0.5C9.9,27.6,9.7,27.4,9.7,27.1 M11,27.1v-0.8
				h-0.3v0.2c-0.1-0.1-0.3-0.2-0.5-0.2c-0.4,0-0.8,0.3-0.8,0.8c0,0.5,0.3,0.8,0.8,0.8c0.2,0,0.4-0.1,0.5-0.2v0.2H11V27.1z
				 M22.4,27.1c0-0.3,0.2-0.5,0.5-0.5c0.3,0,0.5,0.2,0.5,0.5c0,0.3-0.2,0.5-0.5,0.5C22.6,27.6,22.4,27.4,22.4,27.1 M23.7,27.1v-1.4
				h-0.3v0.8c-0.1-0.1-0.3-0.2-0.5-0.2c-0.4,0-0.8,0.3-0.8,0.8c0,0.5,0.3,0.8,0.8,0.8c0.2,0,0.4-0.1,0.5-0.2v0.2h0.3V27.1z
				 M15.2,26.6c0.2,0,0.4,0.1,0.4,0.4h-0.8C14.8,26.7,14.9,26.6,15.2,26.6 M15.2,26.3c-0.5,0-0.8,0.3-0.8,0.8c0,0.5,0.3,0.8,0.8,0.8
				c0.2,0,0.4-0.1,0.6-0.2l-0.2-0.3c-0.1,0.1-0.3,0.2-0.5,0.2c-0.2,0-0.4-0.1-0.5-0.4h1.2c0,0,0-0.1,0-0.1
				C15.9,26.6,15.6,26.3,15.2,26.3 M19.3,27.1c0-0.3,0.2-0.5,0.5-0.5c0.3,0,0.5,0.2,0.5,0.5c0,0.3-0.2,0.5-0.5,0.5
				C19.4,27.6,19.3,27.4,19.3,27.1 M20.5,27.1v-0.8h-0.3v0.2c-0.1-0.1-0.3-0.2-0.5-0.2c-0.4,0-0.8,0.3-0.8,0.8
				c0,0.5,0.3,0.8,0.8,0.8c0.2,0,0.4-0.1,0.5-0.2v0.2h0.3V27.1z M17.3,27.1c0,0.5,0.3,0.8,0.8,0.8c0.2,0,0.4-0.1,0.6-0.2l-0.2-0.3
				c-0.1,0.1-0.3,0.1-0.4,0.1c-0.3,0-0.5-0.2-0.5-0.5c0-0.3,0.2-0.5,0.5-0.5c0.1,0,0.3,0,0.4,0.1l0.2-0.3c-0.2-0.1-0.3-0.2-0.6-0.2
				C17.7,26.3,17.3,26.6,17.3,27.1 M21.7,26.3c-0.2,0-0.3,0.1-0.4,0.2v-0.2H21v1.6h0.3V27c0-0.3,0.1-0.4,0.3-0.4c0.1,0,0.1,0,0.2,0
				l0.1-0.3C21.9,26.3,21.8,26.3,21.7,26.3 M12.6,26.4c-0.2-0.1-0.4-0.2-0.6-0.2c-0.4,0-0.6,0.2-0.6,0.5c0,0.3,0.2,0.4,0.5,0.5
				l0.2,0c0.2,0,0.3,0.1,0.3,0.2c0,0.1-0.1,0.2-0.4,0.2c-0.2,0-0.4-0.1-0.5-0.2l-0.2,0.3c0.2,0.1,0.4,0.2,0.7,0.2
				c0.4,0,0.7-0.2,0.7-0.5c0-0.3-0.2-0.4-0.5-0.5l-0.2,0c-0.1,0-0.3,0-0.3-0.2c0-0.1,0.1-0.2,0.3-0.2c0.2,0,0.4,0.1,0.5,0.1
				L12.6,26.4z M17,26.3c-0.2,0-0.3,0.1-0.4,0.2v-0.2h-0.3v1.6h0.3V27c0-0.3,0.1-0.4,0.3-0.4c0.1,0,0.1,0,0.2,0l0.1-0.3
				C17.2,26.3,17.1,26.3,17,26.3 M14.1,26.3h-0.6v-0.5h-0.3v0.5h-0.3v0.3h0.3v0.7c0,0.4,0.1,0.6,0.5,0.6c0.1,0,0.3,0,0.4-0.1
				l-0.1-0.3c-0.1,0.1-0.2,0.1-0.3,0.1c-0.2,0-0.2-0.1-0.2-0.3v-0.7h0.6V26.3z M9,27.9v-1c0-0.4-0.2-0.6-0.6-0.6
				c-0.2,0-0.4,0.1-0.5,0.3c-0.1-0.2-0.3-0.3-0.5-0.3c-0.2,0-0.3,0-0.5,0.2v-0.2H6.6v1.6h0.3V27c0-0.3,0.1-0.4,0.4-0.4
				c0.2,0,0.3,0.1,0.3,0.4v0.9H8V27c0-0.3,0.2-0.4,0.4-0.4c0.2,0,0.3,0.1,0.3,0.4v0.9H9z"/>
			<rect x="12.5" y="14.5" class="st2" width="5.1" height="9.2"/>
			<path class="st3" d="M12.8,19.1c0-1.9,0.9-3.5,2.2-4.6c-1-0.8-2.3-1.3-3.6-1.3c-3.2,0-5.9,2.6-5.9,5.9c0,3.2,2.6,5.9,5.9,5.9
				c1.4,0,2.6-0.5,3.6-1.3C13.7,22.6,12.8,20.9,12.8,19.1"/>
			<path class="st4" d="M24.6,19.1c0,3.2-2.6,5.9-5.9,5.9c-1.4,0-2.6-0.5-3.6-1.3c1.4-1.1,2.2-2.7,2.2-4.6c0-1.9-0.9-3.5-2.2-4.6
				c1-0.8,2.3-1.3,3.6-1.3C21.9,13.2,24.6,15.8,24.6,19.1"/>
		</g>
		<linearGradient id="SVGID_3_" gradientUnits="userSpaceOnUse" x1="0.9554" y1="6.4431" x2="29.2113" y2="6.4431">
			<stop  offset="0" style="stop-color:#241F5D"/>
			<stop  offset="1" style="stop-color:#034EA1"/>
		</linearGradient>
		<path class="st5" d="M11.7,2L8,10.9H5.6l-1.8-7C3.6,3.4,3.5,3.2,3.2,3C2.7,2.8,1.8,2.5,1,2.3L1,2h3.9c0.5,0,0.9,0.3,1.1,0.9l1,5.1
			l2.4-6H11.7z M21.1,8c0-2.3-3.2-2.5-3.2-3.5c0-0.3,0.3-0.7,1-0.7c0.3,0,1.2-0.1,2.3,0.4l0.4-1.9c-0.5-0.2-1.3-0.4-2.1-0.4
			c-2.3,0-3.8,1.2-3.9,2.9c0,1.3,1.1,2,2,2.4c0.9,0.4,1.2,0.7,1.2,1.1c0,0.6-0.7,0.9-1.4,0.9c-1.1,0-1.8-0.3-2.3-0.6l-0.4,1.9
			c0.5,0.2,1.5,0.5,2.5,0.5C19.6,11,21.1,9.8,21.1,8 M27.1,10.9h2.1L27.4,2h-1.9c-0.4,0-0.8,0.3-1,0.6L21,10.9h2.4l0.5-1.3h2.9
			L27.1,10.9z M24.6,7.7l1.2-3.3l0.7,3.3H24.6z M14.9,2l-1.9,8.8h-2.3L12.7,2H14.9z"/>
	</g>
</g>
</svg>
